<svg width="347" height="256" viewBox="0 0 347 256" fill="none" xmlns="http://www.w3.org/2000/svg">
<g opacity="0.2">
<path d="M217.329 332.37C217.329 332.37 218.181 328.862 220.3 322.681C222.419 316.501 225.797 307.671 230.343 296.915C234.888 286.159 240.523 273.46 246.865 259.387C253.206 245.314 260.254 229.882 267.241 213.506C270.719 205.306 274.005 197.26 276.838 189.36C278.235 185.398 279.51 181.483 280.523 177.575C281.537 173.667 281.951 169.744 282.558 165.928C284.807 150.657 287.61 136.991 291.203 125.858C293.925 117.037 297.645 108.555 302.289 100.576L304.593 96.8909C305.268 95.8314 305.921 94.9868 306.404 94.2805C306.888 93.5742 307.28 93.0521 307.541 92.6836C307.802 92.315 307.932 92.1538 307.932 92.1538C307.932 92.1538 307.817 92.3458 307.571 92.7143L306.474 94.3266C305.998 95.0406 305.36 95.8621 304.692 96.96C304.024 98.0579 303.28 99.2633 302.389 100.653C297.805 108.663 294.133 117.161 291.441 125.989C287.886 137.106 285.122 150.757 282.888 166.02C282.289 169.82 281.928 173.79 280.861 177.713C279.794 181.636 278.558 185.559 277.176 189.529C274.351 197.444 271.034 205.498 267.579 213.705C260.585 230.089 253.514 245.514 247.172 259.579C240.83 273.644 235.126 286.32 230.573 297.069C226.02 307.817 222.565 316.608 220.415 322.766C219.863 324.301 219.41 325.683 219.026 326.873C218.642 328.063 218.304 329.076 218.066 329.906L217.498 331.779L217.329 332.37Z" fill="#40924A"/>
<path d="M314.204 80.4993C317.897 81.3361 321.805 80.3995 325.222 78.7641C328.638 77.1288 331.694 74.8332 334.857 72.7526C337.091 71.2785 339.563 69.8658 342.343 70.3955C342.951 70.5028 343.531 70.7383 344.041 71.0864C344.552 71.4346 344.983 71.8873 345.306 72.4148C346.842 75.1096 344.339 77.2823 344.27 79.8236C344.224 81.29 345.037 82.6797 344.999 84.1461C344.999 85.9196 343.794 87.4398 342.696 88.8141C341.344 90.4648 339.801 92.2383 337.69 92.5454C335.794 92.8218 332.531 93.674 330.726 93.0368C327.502 91.8928 324.83 91.8467 322.02 89.8889C318.12 87.1711 313.79 81.7584 313.889 81.8582L314.204 80.4993Z" fill="#40924A"/>
<path d="M295.763 91.0408C296.408 89.6665 297.706 88.9218 298.957 88.2078L311.886 80.845L315.809 81.2519C316.761 85.6665 317.145 88.6607 323.771 92.4228C325.006 93.1552 326.405 93.567 327.84 93.6205C329.844 93.6205 332.27 95.2174 331.287 97.6282C330.927 98.4602 330.278 99.1338 329.46 99.5245C327.385 100.556 325.12 101.152 322.805 101.276C320.491 101.4 318.175 101.05 316.001 100.246C314.335 99.6243 312.723 98.7107 310.95 98.6032C308.746 98.4574 306.228 99.4708 304.477 98.1195C303.809 97.6051 303.395 96.8297 302.742 96.2999C301.713 95.4631 300.293 95.3786 298.988 95.1713C297.414 94.9257 295.648 94.2654 295.495 92.4535C295.456 91.967 295.549 91.4791 295.763 91.0408Z" fill="#40924A"/>
<path d="M288.6 77.2211C285.291 72.4466 283.802 66.6456 284.4 60.8678C284.653 58.4494 285.375 55.8774 288.577 55.1941C289.752 54.9627 290.971 55.105 292.062 55.601C294.127 56.4993 297.076 57.006 298.112 59.0022C299.149 60.9983 299.893 64.484 300.707 66.5723C303.01 72.484 309.199 78.1347 314.834 81.0522L313.352 82.296C312.024 83.2557 305.805 83.6626 303.003 85.106C301.521 85.8737 298.98 86.9025 297.521 87.7087C296.062 88.5148 293.928 87.5321 292.3 87.2096C291.459 87.0652 290.679 86.6752 290.058 86.0887C287.671 83.7163 290.058 81.8584 289.859 79.7547C289.658 78.818 289.225 77.9469 288.6 77.2211Z" fill="#40924A"/>
<path d="M335.287 61.8509C334.519 59.5476 333.751 57.1983 332.216 55.325C330.814 53.6328 328.892 52.4507 326.749 51.9622C325.437 51.6628 324.032 51.632 322.842 50.9948C321.483 50.2654 320.615 48.8681 319.341 48.0005C318.58 47.5269 317.729 47.218 316.841 47.0937C315.954 46.9694 315.05 47.0325 314.189 47.2789C312.455 47.7769 310.872 48.6976 309.582 49.9583C308.392 51.0639 307.279 52.3998 305.667 52.7683C304.807 52.9756 303.886 52.8605 303.041 53.1292C301.014 53.7818 300.269 56.277 300.216 58.4037C300.101 63.1254 301.874 67.7627 304.523 71.6705C307.172 75.5784 310.665 78.8414 314.304 81.8587L317.091 80.9604C323.456 79.6245 328.492 74.9182 333.214 70.4038C334.343 69.3212 335.517 68.1542 335.909 66.6417C336.3 65.1292 335.794 63.4018 335.287 61.8509Z" fill="#40924A"/>
<path d="M295.618 68.1231C295.672 68.0847 296.34 69.0828 297.553 70.5722C299.142 72.5153 300.916 74.2997 302.85 75.9005C304.795 77.4889 306.891 78.8826 309.107 80.0617C310.812 80.9677 311.917 81.4283 311.887 81.4898C311.623 81.4326 311.365 81.3477 311.119 81.2364C310.605 81.0521 309.883 80.7374 309.008 80.3151C304.437 78.0739 300.452 74.7985 297.368 70.7488C296.896 70.144 296.458 69.5134 296.056 68.8601C295.879 68.6338 295.732 68.3862 295.618 68.1231Z" fill="#40924A"/>
<path d="M310.735 57.5052C310.792 57.8218 310.817 58.1432 310.811 58.4649C310.811 59.1635 310.873 60.0004 310.919 61.0676C311.011 63.271 311.195 66.3037 311.556 69.6434C311.917 72.9832 312.393 75.9851 312.769 78.1579C312.946 79.179 313.099 80.0389 313.222 80.7299C313.296 81.0422 313.34 81.3611 313.353 81.6819C313.222 81.3871 313.127 81.0778 313.069 80.7606C312.915 80.1617 312.715 79.2942 312.493 78.2116C312.04 76.0465 311.525 73.0369 311.165 69.6895C310.804 66.3421 310.658 63.2864 310.635 61.0752C310.635 59.9773 310.635 59.0791 310.635 58.4649C310.631 58.1422 310.664 57.8201 310.735 57.5052Z" fill="#40924A"/>
<path d="M322.243 65.6668C321.824 66.3858 321.359 67.0781 320.854 67.7397C319.979 68.9989 318.812 70.7724 317.645 72.8069C316.478 74.8415 315.541 76.7456 314.896 78.1429C314.582 78.912 314.221 79.6608 313.813 80.3847C313.841 80.1623 313.9 79.945 313.99 79.7398C314.121 79.3252 314.343 78.7417 314.635 78.0277C315.412 76.1686 316.302 74.3584 317.299 72.6073C318.301 70.8607 319.411 69.1785 320.623 67.5708C321.092 66.9566 321.483 66.4729 321.767 66.1428C322.052 65.8127 322.22 65.613 322.243 65.6668Z" fill="#40924A"/>
<path d="M334.542 84.2232C334.299 84.3345 334.04 84.4095 333.774 84.4459C333.07 84.6105 332.358 84.7361 331.64 84.8221C326.889 85.4238 322.063 84.8436 317.59 83.133C316.915 82.8794 316.254 82.5898 315.609 82.2655C315.362 82.169 315.131 82.0343 314.926 81.8662C314.926 81.8048 315.978 82.2808 317.69 82.872C322.157 84.4163 326.903 84.987 331.609 84.5457C333.421 84.3768 334.527 84.1618 334.542 84.2232Z" fill="#40924A"/>
<path d="M313.675 96.7682C313.403 96.1465 313.207 95.4944 313.092 94.8258C312.739 93.2274 312.525 91.6013 312.454 89.9659C312.373 88.3306 312.438 86.6915 312.646 85.0676C312.696 84.3907 312.83 83.7226 313.045 83.0791C313.054 83.7543 313.013 84.4292 312.923 85.0983C312.679 88.3293 312.831 91.578 313.376 94.772C313.524 95.4292 313.624 96.0964 313.675 96.7682Z" fill="#40924A"/>
<path d="M316.078 81.4359C316.502 79.5311 316.267 77.5386 315.41 75.7852C314.446 77.08 313.78 78.5717 313.46 80.1538C312.282 79.4016 311.215 78.4895 310.289 77.4436C310.337 78.8492 310.85 80.1991 311.747 81.2824L308.047 79.8006C308.37 80.6464 308.925 81.3836 309.649 81.927C310.374 82.4704 311.237 82.7979 312.139 82.8716C311.507 84.129 311.205 85.5269 311.264 86.9331C312.482 85.9363 313.483 84.7003 314.204 83.3016C315.216 84.9773 316.408 86.5374 317.759 87.9542L317.03 83.2555L319.701 83.386C318.518 82.3659 317.194 81.5205 315.771 80.8755" fill="#40924A"/>
<path d="M158.41 332.371C158.41 332.371 158.364 332.11 158.303 331.603C158.242 331.096 158.157 330.321 158.05 329.3C157.827 327.296 157.505 324.355 157.082 320.563C156.878 318.664 156.645 316.563 156.384 314.259C156.1 311.956 155.792 309.453 155.455 306.758C154.794 301.384 154.057 295.242 153.151 288.501C149.52 261.461 143.877 224.194 136.645 183.195C133.082 162.681 129.374 143.195 125.965 125.483C124.176 116.646 122.572 108.224 120.898 100.377C120.074 96.4564 119.283 92.6688 118.525 89.0142C117.758 85.3827 116.99 81.8895 116.222 78.5574C114.802 71.8856 113.335 65.897 112.115 60.6149C111.523 57.9738 110.879 55.5323 110.31 53.2828C109.742 51.0332 109.22 48.9833 108.775 47.1407C107.823 43.4478 106.948 40.6147 106.426 38.6953C106.157 37.7356 105.957 36.9986 105.819 36.4919C105.681 35.9852 105.619 35.7241 105.619 35.7241C105.619 35.7241 105.704 35.9775 105.857 36.4919C106.011 37.0063 106.218 37.728 106.502 38.68C107.055 40.6147 107.946 43.4401 108.921 47.1253C109.397 48.9756 109.934 51.0255 110.51 53.2674C111.086 55.5093 111.746 57.9507 112.345 60.5918C113.589 65.874 115.07 71.8625 116.514 78.5267C117.251 81.8587 118.019 85.3444 118.817 88.9835L121.213 100.339C122.902 108.185 124.522 116.6 126.318 125.444C129.75 143.157 133.474 162.642 137.028 183.157C144.261 224.155 149.858 261.468 153.42 288.493C156.982 315.518 158.41 332.371 158.41 332.371Z" fill="#40924A"/>
<path d="M121.083 5.45894C121.467 4.44406 122.085 3.534 122.887 2.80249C124.922 1.19788 128.177 2.23435 129.613 4.38408C130.265 5.36681 130.772 6.64129 131.916 6.9791C132.514 7.07141 133.122 7.07141 133.72 6.9791C136.737 6.90233 139.279 9.70464 139.716 12.6912C140.154 15.6778 138.949 18.6874 137.282 21.2057C135.616 23.7239 133.497 25.912 131.801 28.4072C129.129 32.3305 127.563 36.9063 124.998 40.8987C122.434 44.891 116.284 49.82 111.54 49.7816C117.897 37.5129 115.409 18.1039 121.083 5.45894Z" fill="#40924A"/>
<path d="M80.3832 18.1191C80.0607 16.2854 80.0607 14.4096 80.3832 12.5759C80.8209 10.7717 82.0416 9.03652 83.8228 8.52212C85.128 8.14592 86.5791 8.45302 87.8228 7.93095C90.1645 6.95589 90.8939 3.54705 93.3353 2.8791C94.9937 2.4338 96.7058 3.48562 98.4256 3.38582C101.228 3.22459 103.209 0.115164 106.011 0C106.865 0.0240023 107.698 0.264061 108.434 0.697741C109.17 1.13142 109.784 1.74456 110.218 2.47986C111.072 3.95541 111.643 5.5777 111.9 7.263C114.441 19.6469 115.462 36.0232 113.52 48.5147L109.589 51.0252C103.608 44.53 91.4159 40.3764 85.2508 33.7891C81.4581 29.7353 81.0435 23.6239 80.3832 18.1191Z" fill="#40924A"/>
<path d="M63.7927 45.8505C63.2936 44.4302 63.117 42.6336 64.2303 41.6202C64.7524 41.1518 65.4741 40.9369 65.9654 40.4378C66.7332 39.6163 66.7332 38.2881 66.4184 37.1748C66.1036 36.0616 65.6506 34.9637 65.7735 33.8197C66.0115 31.9003 67.9923 30.5798 69.9271 30.4262C71.8618 30.2727 73.7658 31.0097 75.5317 31.7238C86.9252 36.2689 102.987 43.2401 111.156 50.15C103.755 54.6258 95.3441 57.161 86.7026 57.5205C82.096 57.7047 77.4204 57.2517 73.2131 55.4091C69.0057 53.5665 65.3282 50.1807 63.7927 45.8505Z" fill="#40924A"/>
<path d="M111.524 49.812C112.983 45.6201 112.576 41.0366 112.154 36.6143C112.139 36.229 112.056 35.8495 111.908 35.4933C111.825 35.3186 111.695 35.1707 111.532 35.0662C111.369 34.9617 111.18 34.9049 110.987 34.9022C110.373 34.9022 110.035 35.5931 109.828 36.169C109.275 37.7045 108.73 39.24 108.177 40.7755L104.208 37.3129C103.755 36.9214 103.064 36.5452 102.626 36.9214C102.188 37.2976 102.465 37.9809 102.749 38.4569L104.684 41.7659C102.463 40.9762 100.056 40.8692 97.7737 41.4588C101.889 45.1594 105.735 45.5817 111.478 49.8504" fill="#40924A"/>
<path d="M80.1456 33.5969C80.1456 33.5969 80.2684 33.5969 80.4911 33.7044L81.4508 34.0959C82.2723 34.4414 83.4623 34.9482 84.9287 35.6315C87.8615 36.929 91.8846 38.7716 96.2685 40.9367C100.652 43.1018 104.56 45.2054 107.324 46.8331C108.714 47.6008 109.812 48.3225 110.564 48.8139L111.424 49.3897C111.527 49.4531 111.622 49.5277 111.708 49.6124C111.708 49.6124 111.585 49.574 111.378 49.4588L110.48 48.9444C109.712 48.4991 108.591 47.8542 107.186 47.0787C104.391 45.5432 100.476 43.4626 96.0919 41.2975C91.708 39.1324 87.7157 37.2514 84.8135 35.9232L81.3817 34.2956L80.4603 33.8426C80.2761 33.6737 80.1379 33.6123 80.1456 33.5969Z" fill="#40924A"/>
<path d="M89.0818 20.246C89.3081 20.5212 89.5086 20.8168 89.6806 21.1289L91.2162 23.5857C92.5444 25.6433 94.4561 28.438 96.767 31.3861C99.078 34.3343 101.335 36.8449 103.024 38.6261L105.036 40.7221C105.299 40.9531 105.538 41.2104 105.75 41.4899C105.455 41.2891 105.179 41.0603 104.928 40.8065C104.414 40.3536 103.692 39.6703 102.817 38.8027C100.556 36.5315 98.4311 34.1294 96.4523 31.6088C94.4865 29.0943 92.6739 26.4638 91.0242 23.7316C90.387 22.6798 89.8956 21.8199 89.5732 21.2057C89.3727 20.9059 89.2078 20.5839 89.0818 20.246Z" fill="#40924A"/>
<path d="M104 20.3689C104.131 20.6099 104.226 20.8685 104.284 21.1366C104.445 21.6357 104.66 22.3651 104.898 23.2787C105.382 25.0983 105.958 27.6319 106.434 30.4649C106.91 33.2979 107.201 35.8392 107.386 37.7509C107.462 38.6876 107.516 39.4477 107.531 39.9774C107.564 40.2503 107.564 40.5261 107.531 40.7989C107.452 40.5498 107.403 40.292 107.386 40.0312C107.309 39.417 107.217 38.6799 107.117 37.82C106.887 35.9544 106.533 33.3901 106.05 30.5647C105.566 27.7394 105.029 25.1904 104.614 23.3785C104.425 22.534 104.263 21.8123 104.13 21.2134C104.052 20.9384 104.008 20.6547 104 20.3689Z" fill="#40924A"/>
<path d="M112.715 48.7217C112.949 46.9241 113.314 45.146 113.805 43.4011C114.172 41.6224 114.668 39.8725 115.287 38.165C115.053 39.9651 114.689 41.7459 114.197 43.4932C113.836 45.271 113.34 47.0188 112.715 48.7217Z" fill="#40924A"/>
<path d="M82.7636 67.0255C84.6428 66.4287 86.569 65.9921 88.5218 65.7203C86.1341 64.4689 82.5103 61.9506 80.8442 59.8393C84.3188 61.2572 87.6591 62.9839 90.8251 64.9986C90.8251 63.3096 89.4969 60.5149 90.1879 58.9717C90.8712 62.1886 93.7349 65.49 96.399 67.4171C96.4835 65.9276 95.6313 64.0773 95.7157 62.5879C96.9524 65.1614 98.6281 67.4997 100.668 69.4977C100.301 67.9085 100.343 66.2523 100.791 64.6839C102.068 68.0086 103.884 71.1005 106.165 73.8356C105.318 71.9807 104.916 69.9538 104.99 67.9161C107.862 73.9507 112.937 78.112 118.28 83.6629C112.906 81.16 102.019 76.1465 96.0766 76.4997C98.3798 75.9622 101.597 75.8317 103.639 74.5803C100.069 73.9277 95.5161 72.7607 91.8923 72.6455C93.4278 72.1542 96.353 72.0236 99.4624 72.1465C96.3914 71.586 89.7809 69.3902 86.6331 69.5207C87.923 68.799 92.4911 69.7434 93.781 69.0217C91.0785 67.8624 85.2896 66.7338 82.7636 67.0255Z" fill="#40924A"/>
<path d="M90.6797 66.4884C91.0936 66.5999 91.499 66.741 91.8927 66.9106C92.6605 67.2024 93.7661 67.6784 95.1173 68.2696C102.147 71.4369 108.723 75.5266 114.672 80.4309C115.816 81.3752 116.714 82.1583 117.321 82.7341C117.647 83.0112 117.952 83.3114 118.235 83.6324C117.872 83.407 117.531 83.15 117.213 82.8647C116.584 82.3426 115.678 81.5902 114.496 80.6765C108.47 75.9152 101.929 71.8461 94.9945 68.546C93.6663 67.9164 92.5837 67.4173 91.8313 67.0795C91.43 66.9185 91.0444 66.7206 90.6797 66.4884Z" fill="#40924A"/>
<path d="M152.339 141.759C150.524 142.523 148.775 143.434 147.11 144.485C148.116 141.989 149.245 137.728 149.153 135.034C147.43 138.36 146.009 141.834 144.907 145.414C143.794 144.147 143.018 141.137 141.49 140.408C143.026 143.302 143.026 147.671 142.258 150.857C141.229 149.782 140.684 147.786 139.648 146.734C140.365 149.488 140.596 152.346 140.331 155.18C139.571 153.732 138.456 152.501 137.091 151.602C138.275 154.957 138.895 158.485 138.926 162.043C138.375 160.082 137.37 158.278 135.993 156.776C137.713 163.233 136.538 169.69 136.062 177.383C138.557 172.009 143.586 161.122 148.346 157.544C146.22 158.65 143.701 160.615 141.337 160.976C143.64 158.174 146.35 154.335 149.014 151.901C147.479 152.523 145.176 154.32 142.918 156.423C144.922 153.982 148.508 148.047 150.995 146.112C149.544 146.396 146.673 150.082 145.222 150.358C146.542 147.763 150.22 143.156 152.339 141.759Z" fill="#40924A"/>
<path d="M145.959 146.473C145.818 146.877 145.646 147.27 145.444 147.648C145.091 148.415 144.592 149.475 143.985 150.818C140.833 157.823 138.482 165.16 136.976 172.692C136.684 174.135 136.461 175.302 136.323 176.116C136.27 176.543 136.18 176.964 136.054 177.375C136.061 176.946 136.099 176.517 136.17 176.093C136.262 175.272 136.446 174.089 136.699 172.638C138.061 165.047 140.426 157.671 143.732 150.703C144.369 149.367 144.907 148.3 145.268 147.579C145.469 147.193 145.7 146.823 145.959 146.473Z" fill="#40924A"/>
<path d="M99.1093 332.608C99.1093 332.608 99.1093 332.47 99.0555 332.201C99.0018 331.933 98.9941 331.526 98.9481 331.011C98.8636 329.952 98.7331 328.416 98.5718 326.443C98.4951 325.453 98.4029 324.347 98.3108 323.142C98.2187 321.936 98.0191 320.631 97.8655 319.226C97.712 317.821 97.52 316.324 97.3281 314.735C97.2283 313.967 97.1515 313.115 97.0287 312.278C96.9058 311.441 96.7523 310.589 96.6141 309.706C96.3274 307.945 96.0331 306.108 95.7311 304.193C95.6544 303.71 95.5699 303.226 95.4931 302.742L95.1937 301.268L94.5795 298.251L93.9499 295.126C93.735 294.059 93.52 292.984 93.2359 291.909C92.7062 289.744 92.1534 287.518 91.5929 285.237C88.9686 275.376 85.7379 265.687 81.9192 256.224C77.9987 246.803 73.5093 237.629 68.4757 228.753C67.278 226.706 66.1161 224.73 64.9901 222.826C64.4373 221.859 63.8384 220.938 63.2549 220.032L61.5275 217.345L59.8615 214.75L59.0476 213.49L58.2108 212.254L55.0092 207.648L53.5198 205.513C53.0284 204.822 52.5217 204.177 52.0457 203.533L49.3124 199.97C48.4602 198.849 47.6925 197.774 46.9247 196.838L44.8364 194.266L41.965 190.696L41.1972 189.759C41.036 189.552 40.9592 189.437 40.9592 189.437C40.9592 189.437 41.0514 189.529 41.2279 189.736L41.9957 190.642L44.9593 194.166L47.0783 196.723C47.846 197.652 48.6138 198.719 49.489 199.832L52.2453 203.433C52.729 204.078 53.2434 204.723 53.7808 205.406L55.3163 207.54L58.5409 212.108L59.3854 213.314L60.1302 214.558L61.8039 217.153L63.539 219.832C64.1302 220.738 64.7367 221.659 65.2895 222.627L68.7905 228.554C73.8544 237.433 78.3622 246.617 82.2877 256.055C86.116 265.534 89.3419 275.245 91.9461 285.13L93.5814 291.817C93.8655 292.892 94.0728 293.975 94.2801 295.034C94.4874 296.094 94.7023 297.145 94.9096 298.166C95.1169 299.188 95.3089 300.209 95.5085 301.199C95.6083 301.691 95.7081 302.182 95.8002 302.673L96.0306 304.124C96.33 306.044 96.6217 307.886 96.8904 309.652C97.0286 310.527 97.1592 311.387 97.2897 312.224C97.4202 313.061 97.4893 313.89 97.5814 314.681C97.7606 316.278 97.9295 317.78 98.0882 319.188C98.234 320.593 98.4106 321.898 98.4951 323.111C98.5795 324.324 98.6563 325.414 98.7254 326.42C98.8559 328.393 98.9557 329.929 99.0248 331.027C99.0248 331.533 99.0786 331.933 99.0939 332.217C99.1093 332.501 99.1093 332.608 99.1093 332.608Z" fill="#40924A"/>
<path d="M3.02433 184.83L26.0955 184.508L32.2913 169.345L34.9785 150.266C35.1397 149.122 35.2625 147.847 34.5792 146.918C33.8959 145.989 32.3297 145.705 31.0859 146.012C28.2606 146.696 26.2644 149.36 25.512 152.154C24.7596 154.949 25.036 157.928 25.32 160.822C24.4141 157.879 23.5133 154.941 22.6175 152.009C22.5547 151.622 22.4099 151.254 22.1927 150.928C21.9755 150.602 21.691 150.326 21.3584 150.12C21.0098 150.026 20.6459 150.003 20.2883 150.053C19.9308 150.103 19.587 150.225 19.2778 150.412C17.7423 151.097 16.2605 151.842 14.8325 152.646C13.6673 153.177 12.6692 154.015 11.9457 155.072C11.6084 155.743 11.4232 156.481 11.4033 157.232C11.3834 157.983 11.5293 158.729 11.8305 159.417C12.2602 160.379 12.8152 161.28 13.4812 162.097C12.0532 160.907 9.58867 160.953 7.93799 162.043C5.88807 163.394 4.79786 165.774 3.78441 168.016C3.38518 168.899 2.97827 169.92 3.35447 170.811C3.83413 171.612 4.60401 172.198 5.50419 172.446L12.8747 175.517C11.0858 175.517 9.32763 175.103 7.54643 174.972C5.76523 174.842 3.83048 175.072 2.4869 176.247C1.14332 177.421 0.674992 179.233 0.252725 180.945C-0.0313462 182.074 -0.24632 183.441 0.590537 184.247C1.29584 184.749 2.16814 184.958 3.02433 184.83Z" fill="#40924A"/>
<path d="M38.7564 176.539C33.1441 171.825 33.052 171.387 32.7295 168.093C32.6758 167.487 33.0596 166.911 32.5452 166.558C31.8235 166.112 28.8984 167.587 28.192 168.093C27.1524 168.815 26.3866 169.866 26.0188 171.077C25.6509 172.288 25.7025 173.587 26.1652 174.765C25.3316 174.532 24.4639 174.447 23.6009 174.512C23.17 174.549 22.7554 174.694 22.3947 174.933C22.034 175.171 21.7387 175.496 21.5356 175.878C21.4475 176.072 21.3995 176.282 21.3945 176.495C21.3895 176.708 21.4276 176.92 21.5065 177.118C21.5854 177.316 21.7034 177.496 21.8535 177.647C22.0036 177.798 22.1828 177.917 22.3801 177.997C19.6161 179.582 17.4762 182.063 16.3148 185.03C19.3244 184.592 22.288 186.02 24.8216 187.702C27.3552 189.383 29.7352 191.402 32.6067 192.408C34.4567 193.042 36.4296 193.234 38.367 192.967C40.3044 192.7 42.1523 191.983 43.7622 190.873C44.2566 188.254 44.0544 185.552 43.1759 183.036C42.2973 180.521 40.7733 178.28 38.7564 176.539Z" fill="#40924A"/>
<path d="M247.809 332.608C247.802 332.473 247.802 332.337 247.809 332.201C247.809 331.917 247.809 331.518 247.878 331.011C247.947 329.944 248.047 328.409 248.178 326.405C248.247 325.407 248.323 324.301 248.408 323.096C248.492 321.89 248.677 320.577 248.823 319.172C248.968 317.767 249.145 316.263 249.322 314.666C249.421 313.898 249.49 313.046 249.613 312.209C249.736 311.372 249.882 310.512 250.013 309.637C250.289 307.871 250.576 306.028 250.872 304.109L251.103 302.658C251.203 302.167 251.302 301.675 251.395 301.184L252.001 298.151C252.208 297.13 252.416 296.078 252.623 295.019C252.83 293.959 253.045 292.877 253.329 291.802C253.841 289.626 254.384 287.397 254.957 285.115C257.565 275.23 260.79 265.519 264.615 256.04C268.547 246.605 273.055 237.421 278.113 228.538L281.621 222.611C282.174 221.644 282.773 220.723 283.364 219.817L285.099 217.137L286.804 214.558L287.617 213.298L288.462 212.093L291.686 207.525L293.222 205.391C293.713 204.707 294.228 204.062 294.711 203.417L297.468 199.817C298.32 198.719 299.088 197.667 299.855 196.723L301.967 194.166L304.907 190.642L305.675 189.736C305.762 189.631 305.854 189.531 305.951 189.437C305.951 189.437 305.875 189.552 305.706 189.759L304.938 190.696L302.059 194.266L299.971 196.838C299.203 197.774 298.435 198.849 297.583 199.97L294.857 203.586C294.381 204.231 293.867 204.876 293.376 205.567L291.886 207.701L288.692 212.308L287.848 213.521L287.042 214.78L285.376 217.375L283.648 220.062C283.065 220.968 282.458 221.89 281.913 222.857L278.427 228.784C273.394 237.662 268.902 246.835 264.976 256.255C261.163 265.707 257.94 275.386 255.325 285.237C254.757 287.541 254.212 289.744 253.675 291.909C253.391 292.984 253.176 294.059 252.968 295.126C252.761 296.193 252.538 297.222 252.331 298.251C252.124 299.28 251.924 300.286 251.717 301.268C251.617 301.767 251.517 302.259 251.425 302.742C251.333 303.226 251.264 303.71 251.187 304.193C250.88 306.113 250.581 307.948 250.304 309.706C250.158 310.589 250.02 311.441 249.89 312.278C249.759 313.115 249.682 313.936 249.583 314.735C249.398 316.324 249.214 317.806 249.053 319.226C248.892 320.646 248.7 321.936 248.608 323.142C248.515 324.347 248.423 325.445 248.347 326.443C248.178 328.416 248.055 329.952 247.97 331.011C247.917 331.526 247.886 331.917 247.855 332.201C247.824 332.485 247.809 332.608 247.809 332.608Z" fill="#40924A"/>
<path d="M343.887 184.83L320.854 184.508L314.658 169.345L311.963 150.266C311.802 149.122 311.671 147.847 312.355 146.918C313.038 145.989 314.612 145.705 315.848 146.012C318.673 146.696 320.677 149.36 321.43 152.154C322.182 154.949 321.898 157.928 321.622 160.822C322.522 157.879 323.423 154.941 324.324 152.009C324.387 151.622 324.532 151.254 324.749 150.928C324.966 150.602 325.251 150.326 325.583 150.12C325.93 150.026 326.293 150.003 326.65 150.054C327.006 150.104 327.348 150.226 327.656 150.412C329.192 151.097 330.676 151.842 332.109 152.646C333.261 153.178 334.247 154.011 334.965 155.057C335.304 155.727 335.49 156.465 335.51 157.216C335.53 157.968 335.383 158.714 335.08 159.402C334.678 160.363 334.146 161.265 333.499 162.082C334.934 160.892 337.399 160.938 339.05 162.028C341.1 163.379 342.19 165.759 343.196 168.001C343.595 168.884 343.963 169.905 343.626 170.796C343.148 171.598 342.377 172.185 341.476 172.431L334.113 175.502C335.902 175.502 337.66 175.087 339.441 174.957C341.222 174.826 343.157 175.057 344.501 176.231C345.844 177.406 346.313 179.218 346.735 180.93C347.011 182.059 347.234 183.425 346.397 184.231C346.038 184.491 345.632 184.678 345.201 184.781C344.771 184.883 344.324 184.9 343.887 184.83Z" fill="#40924A"/>
<path d="M308.155 176.539C313.767 171.825 313.859 171.387 314.181 168.093C314.243 167.487 313.859 166.911 314.373 166.558C315.087 166.112 318.02 167.587 318.727 168.093C319.763 168.817 320.526 169.869 320.894 171.079C321.261 172.288 321.212 173.587 320.753 174.765C321.584 174.532 322.45 174.446 323.31 174.512C323.742 174.547 324.157 174.691 324.518 174.93C324.879 175.169 325.174 175.495 325.375 175.878C325.463 176.072 325.511 176.282 325.516 176.495C325.521 176.708 325.483 176.92 325.404 177.118C325.326 177.316 325.208 177.496 325.057 177.647C324.907 177.798 324.728 177.917 324.531 177.997C327.299 179.579 329.442 182.061 330.604 185.03C327.587 184.592 324.623 186.02 322.089 187.702C319.556 189.383 317.176 191.402 314.304 192.408C312.454 193.042 310.481 193.234 308.544 192.967C306.607 192.7 304.759 191.983 303.149 190.873C302.658 188.254 302.861 185.553 303.74 183.038C304.618 180.523 306.14 178.282 308.155 176.539Z" fill="#40924A"/>
<path d="M233.304 332.371C233.304 332.371 233.304 332.186 233.304 331.826C233.304 331.465 233.304 330.912 233.304 330.213C233.343 328.801 233.304 326.712 233.45 324.033C233.627 318.659 234.149 310.896 235.239 301.353C235.776 296.578 236.506 291.372 237.35 285.783C238.195 280.194 239.231 274.267 240.421 268.009C242.725 255.526 245.696 241.906 248.698 227.533C251.7 213.161 254.387 199.487 256.314 186.934C258.09 175.832 259.297 164.647 259.93 153.421C260.414 143.832 260.329 136.055 260.061 130.696C260.061 129.352 259.953 128.162 259.884 127.133C259.815 126.105 259.761 125.229 259.715 124.523L259.615 122.918C259.615 122.558 259.615 122.366 259.615 122.366C259.615 122.366 259.615 122.55 259.669 122.911C259.723 123.272 259.746 123.824 259.807 124.515C259.869 125.206 259.93 126.097 260.015 127.126C260.099 128.155 260.191 129.345 260.237 130.688C260.624 138.266 260.624 145.859 260.237 153.437C259.65 164.676 258.481 175.877 256.736 186.996C254.824 199.556 252.13 213.268 249.143 227.618C246.156 241.967 243.185 255.603 240.836 268.079C239.631 274.313 238.632 280.263 237.765 285.829C236.897 291.395 236.16 296.616 235.607 301.384C234.479 310.92 233.918 318.674 233.688 324.041C233.535 326.72 233.535 328.801 233.465 330.183C233.465 330.881 233.427 331.419 233.412 331.795C233.396 332.171 233.304 332.371 233.304 332.371Z" fill="#40924A"/>
<path d="M241.22 94.0199C240.635 93.2467 239.874 92.6231 239.001 92.2003C236.859 91.3404 234.333 93.0449 233.627 95.2714C233.312 96.2771 233.197 97.4902 232.314 98.066C231.831 98.306 231.313 98.4692 230.779 98.5497C228.184 99.2407 226.717 102.281 227.086 104.945C227.454 107.609 229.259 109.882 231.316 111.617C233.374 113.352 235.738 114.688 237.819 116.408C241.09 119.087 243.585 122.611 246.779 125.383C249.973 128.154 256.483 130.826 260.537 129.606C252.007 120.653 249.259 103.417 241.22 94.0199Z" fill="#40924A"/>
<path d="M279.232 94.6188C279.049 92.9664 278.573 91.3598 277.827 89.874C277.447 89.1358 276.882 88.5082 276.188 88.0522C275.494 87.5962 274.694 87.3272 273.865 87.2713C272.66 87.2713 271.493 87.9009 270.295 87.7704C268.046 87.5247 266.564 84.7915 264.307 84.8375C262.771 84.8375 261.573 86.2041 260.076 86.5496C257.635 87.1178 255.163 84.9527 252.729 85.5669C252.006 85.8015 251.355 86.2154 250.835 86.7698C250.315 87.3243 249.945 88.0013 249.758 88.7377C249.399 90.215 249.324 91.7468 249.535 93.2522C250.472 104.492 253.719 118.772 258.525 128.968L262.518 130.128C266.003 123.057 275.393 116.431 279.017 109.245C281.243 104.83 280.076 99.4864 279.232 94.6188Z" fill="#40924A"/>
<path d="M300.415 114.181C300.484 112.838 300.185 111.256 298.979 110.665C298.411 110.396 297.743 110.396 297.198 110.089C296.3 109.59 296.016 108.438 295.993 107.417C296.085 106.397 295.983 105.368 295.693 104.385C295.01 102.795 292.976 102.166 291.287 102.519C289.625 103.009 288.098 103.87 286.818 105.037C278.204 111.801 266.212 121.805 260.952 129.744C268.411 131.712 276.246 131.768 283.732 129.905C287.747 129.031 291.513 127.262 294.749 124.73C297.889 122.066 300.193 118.266 300.415 114.181Z" fill="#40924A"/>
<path d="M260.56 129.583C258.256 126.358 257.45 122.327 256.721 118.443C256.637 118.109 256.613 117.763 256.652 117.421C256.675 117.249 256.746 117.086 256.855 116.951C256.965 116.815 257.11 116.713 257.274 116.654C257.796 116.515 258.264 117.015 258.586 117.421L261.151 120.922C261.985 119.602 262.827 118.281 263.677 116.961C263.961 116.515 264.444 116.001 264.928 116.193C265.412 116.385 265.335 117.061 265.212 117.544C264.943 118.65 264.667 119.755 264.391 120.869C266.082 119.636 268.104 118.941 270.195 118.873C267.608 123.072 264.421 124.408 260.583 129.506" fill="#40924A"/>
<path d="M280.108 110.45C279.876 110.729 279.619 110.986 279.34 111.218L277.121 113.145C275.263 114.78 272.737 117.091 270.05 119.755C267.363 122.419 264.991 124.891 263.248 126.665C262.38 127.548 261.674 128.262 261.175 128.746C260.94 129.008 260.683 129.249 260.407 129.467C260.608 129.168 260.84 128.89 261.098 128.638L263.086 126.473C264.776 124.653 267.117 122.151 269.812 119.479C272.507 116.807 275.064 114.527 276.975 112.937C277.935 112.17 278.718 111.517 279.279 111.103C279.532 110.857 279.809 110.638 280.108 110.45Z" fill="#40924A"/>
<path d="M272.329 98.6264C272.32 98.946 272.271 99.2631 272.183 99.5707C272.06 100.17 271.861 101.037 271.584 102.097C270.853 104.862 269.953 107.58 268.89 110.235C267.83 112.893 266.612 115.485 265.243 117.997C264.713 118.957 264.268 119.724 263.938 120.239C263.784 120.512 263.604 120.769 263.4 121.007C263.503 120.704 263.637 120.414 263.799 120.139L264.997 117.836C265.988 115.893 267.3 113.16 268.521 110.066C269.742 106.972 270.694 104.093 271.308 101.997C271.6 101.006 271.838 100.177 272.03 99.5093C272.1 99.2058 272.2 98.9101 272.329 98.6264Z" fill="#40924A"/>
<path d="M259.593 102.465C259.72 103.361 259.797 104.263 259.823 105.168C259.938 106.842 260.123 109.145 260.407 111.678C260.691 114.212 261.051 116.5 261.32 118.158C261.508 119.044 261.636 119.942 261.704 120.845C261.6 120.623 261.525 120.388 261.481 120.147C261.359 119.694 261.213 119.026 261.036 118.204C260.698 116.561 260.307 114.273 260.015 111.725C259.723 109.176 259.585 106.865 259.539 105.183C259.539 104.346 259.539 103.648 259.539 103.195C259.517 102.95 259.535 102.704 259.593 102.465Z" fill="#40924A"/>
<path d="M259.27 128.976C258.295 127.682 257.428 126.311 256.675 124.877C255.807 123.51 255.052 122.075 254.418 120.585C255.392 121.878 256.263 123.246 257.02 124.677C257.889 126.045 258.642 127.483 259.27 128.976Z" fill="#40924A"/>
<path d="M309.343 165.422C307.04 164.792 304.192 163.64 300.675 163.233C304.33 161.422 309.889 157.736 312.514 154.604C308.115 156.078 301.221 159.663 297.259 162.067C297.259 159.51 299.424 155.318 298.434 152.969C297.29 157.805 292.837 162.704 288.737 165.521C288.652 163.264 290.019 160.485 289.934 158.228C287.677 162.297 285.466 165.537 282.203 168.477C282.817 166.082 282.817 163.571 282.203 161.176C280.165 166.168 277.311 170.786 273.758 174.842C275.11 172.071 275.792 169.02 275.746 165.936C271.186 174.965 263.355 181.084 255.071 189.314C263.339 185.713 279.954 178.497 288.944 179.241C285.428 178.343 280.606 178.028 277.558 176.063C282.986 175.203 289.927 173.598 295.416 173.552C293.113 172.746 288.675 172.454 283.969 172.531C288.691 171.763 298.725 168.692 303.485 169.007C301.558 167.863 294.602 169.138 292.675 167.994C296.721 166.358 305.528 164.838 309.343 165.422Z" fill="#40924A"/>
<path d="M297.382 164.285C297.239 164.376 297.087 164.45 296.929 164.508L295.601 165.068C294.441 165.537 292.783 166.243 290.741 167.149C285.445 169.519 280.285 172.182 275.286 175.126C270.269 178.089 265.424 181.334 260.775 184.846C258.994 186.189 257.573 187.303 256.598 188.093L255.47 188.984C255.342 189.096 255.203 189.194 255.055 189.276C255.159 189.143 255.281 189.024 255.416 188.922L256.499 187.97C257.443 187.149 258.84 185.997 260.598 184.615C265.2 181.035 270.023 177.751 275.04 174.78C280.065 171.819 285.276 169.185 290.641 166.896C292.698 166.02 294.38 165.36 295.562 164.922L296.913 164.431C297.065 164.369 297.222 164.32 297.382 164.285Z" fill="#40924A"/>
<path d="M58.9564 171.564C61.2597 170.942 64.1157 169.79 67.6244 169.376C63.9698 167.572 58.4113 163.886 55.7932 160.746C60.1848 162.22 67.0793 165.806 71.0486 168.209C71.0486 165.652 68.8758 161.468 69.8662 159.111C71.0179 163.948 75.4632 168.846 79.563 171.664C79.6475 169.406 78.2885 166.627 78.3653 164.37C80.6225 168.447 82.8414 171.679 86.1043 174.62C85.4901 172.227 85.4901 169.718 86.1043 167.326C88.1494 172.314 91.0028 176.932 94.5497 180.992C93.1919 178.214 92.5105 175.154 92.5612 172.063C97.114 181.092 104.945 187.211 113.229 195.441C104.984 191.84 88.3615 184.616 79.3788 185.384C82.8951 184.485 87.7089 184.178 90.7569 182.205C85.3366 181.353 78.396 179.741 72.8989 179.694C75.2022 178.927 79.6398 178.597 84.3462 178.673C79.6321 177.906 69.5975 174.835 64.8297 175.149C66.7568 174.005 73.7127 175.28 75.6398 174.136C71.5783 172.524 62.7721 171.011 58.9564 171.564Z" fill="#40924A"/>
<path d="M70.925 170.458C71.0917 170.483 71.2543 170.529 71.4087 170.596L72.76 171.088C73.9347 171.518 75.6161 172.186 77.6736 173.061C88.4072 177.634 98.5008 183.583 107.701 190.758C109.467 192.132 110.864 193.284 111.801 194.105L112.883 195.057C113.016 195.161 113.137 195.279 113.244 195.41C113.097 195.326 112.958 195.228 112.829 195.119L111.701 194.228C110.733 193.46 109.313 192.332 107.532 190.98C102.893 187.473 98.0614 184.228 93.0595 181.26C88.0493 178.314 82.8766 175.654 77.5662 173.291C75.5239 172.378 73.8579 171.671 72.7062 171.203L71.378 170.642C71.2224 170.593 71.0709 170.531 70.925 170.458Z" fill="#40924A"/>
<path d="M144.476 332.471C144.476 332.471 144.377 332.325 144.215 332.025L143.486 330.689C143.171 330.091 142.78 329.361 142.319 328.509L141.551 327.112C141.313 326.605 141.068 326.06 140.783 325.484L139.002 321.645L137.106 316.985C136.4 315.327 135.816 313.484 135.11 311.565C134.403 309.645 133.766 307.572 133.083 305.422C130 295.25 127.514 284.906 125.636 274.443C123.394 262.643 121.505 249.576 119.609 235.856C117.712 222.136 115.77 209.076 113.113 197.36C110.9 186.968 107.818 176.78 103.9 166.903C101.213 160.249 97.9454 153.844 94.1344 147.763L93.1978 146.228L92.3072 144.922L90.9099 142.888L90.0576 141.621C89.8657 141.337 89.7812 141.183 89.7812 141.183L90.0883 141.598L90.979 142.834L92.407 144.853L93.3129 146.143L94.265 147.679C98.1264 153.731 101.429 160.122 104.131 166.773C108.103 176.652 111.229 186.852 113.474 197.261C116.115 208.984 118.127 222.044 120 235.771C121.874 249.499 123.778 262.558 125.996 274.351C127.87 284.812 130.339 295.158 133.39 305.338C134.066 307.503 134.68 309.576 135.386 311.48C136.092 313.384 136.653 315.242 137.359 316.908C138.066 318.574 138.649 320.133 139.217 321.568L140.96 325.407L141.728 327.043C141.989 327.542 142.235 328.01 142.457 328.448C142.902 329.307 143.279 330.044 143.593 330.643L144.277 331.995L144.476 332.471Z" fill="#40924A"/>
<path d="M82.7024 128.032C78.5335 128.976 74.1342 127.924 70.2801 126.082C66.4259 124.239 62.9863 121.652 59.4163 119.302C56.8903 117.644 54.1034 116.047 50.9709 116.646C50.2829 116.768 49.6293 117.038 49.0544 117.435C48.4794 117.832 47.9967 118.349 47.6388 118.949C45.8807 121.982 48.7291 124.439 48.8058 127.295C48.8519 128.953 47.9613 130.519 47.9843 132.178C47.9843 134.174 49.3356 135.886 50.6024 137.429C52.1379 139.295 53.8654 141.268 56.2454 141.636C58.3798 141.951 62.0497 142.911 64.0842 142.189C67.7311 140.907 70.7407 140.853 73.9115 138.65C78.3031 135.579 83.1861 129.475 83.0709 129.59L82.7024 128.032Z" fill="#40924A"/>
<path d="M103.493 139.924C102.726 138.389 101.305 137.529 99.8925 136.731L85.3051 128.431L80.8751 128.892C79.8002 133.867 79.3396 137.245 71.9 141.475C70.5031 142.308 68.9188 142.776 67.2935 142.834C65.0362 142.834 62.303 144.631 63.4086 147.349C63.817 148.286 64.5505 149.044 65.4739 149.483C67.8127 150.648 70.3657 151.322 72.975 151.462C75.5843 151.602 78.1947 151.205 80.6448 150.297C82.5181 149.598 84.3377 148.585 86.3339 148.447C88.8291 148.285 91.6621 149.422 93.6429 147.901C94.4107 147.326 94.856 146.45 95.593 145.852C96.7524 144.907 98.357 144.815 99.8311 144.577C101.597 144.301 103.593 143.556 103.77 141.506C103.819 140.964 103.724 140.418 103.493 139.924Z" fill="#40924A"/>
<path d="M103.493 139.924C103.669 140.223 103.781 140.555 103.823 140.899C103.884 141.316 103.852 141.74 103.731 142.143C103.568 142.703 103.232 143.198 102.771 143.556C102.196 143.992 101.538 144.306 100.836 144.477C100.069 144.684 99.2318 144.761 98.3489 144.922C97.4015 145.031 96.4976 145.38 95.7232 145.936C94.9554 146.542 94.4641 147.602 93.4199 148.239C92.3228 148.802 91.076 149.003 89.8575 148.815C88.5861 148.638 87.3008 148.582 86.0187 148.646C84.6671 148.881 83.3546 149.302 82.1185 149.898C80.7688 150.506 79.3585 150.969 77.9112 151.28C74.7779 151.924 71.534 151.784 68.4677 150.873C67.6659 150.637 66.8809 150.347 66.1184 150.005C65.307 149.694 64.5734 149.209 63.9687 148.585C63.3455 147.917 62.9925 147.041 62.9783 146.128C62.9882 145.665 63.1024 145.211 63.3125 144.799C63.5225 144.387 63.8229 144.028 64.1913 143.748C65.0946 143.043 66.2016 142.65 67.3468 142.627C68.4021 142.601 69.4434 142.38 70.4179 141.974C71.3745 141.562 72.2941 141.069 73.1664 140.5C74.0322 139.959 74.863 139.364 75.654 138.719C77.2 137.519 78.4284 135.958 79.2317 134.174C79.9011 132.455 80.395 130.672 80.7058 128.853V128.73H80.8287L85.2586 128.277H85.3124H85.3584L99.0169 136.132C99.8307 136.608 100.552 137.022 101.182 137.429C101.708 137.765 102.19 138.165 102.618 138.619C102.983 138.989 103.268 139.431 103.455 139.917C103.201 139.474 102.897 139.062 102.549 138.688C102.115 138.252 101.631 137.871 101.105 137.552C100.491 137.16 99.7462 136.784 98.9247 136.301L85.2356 128.569H85.3354L80.9054 129.038L81.059 128.899C80.7432 130.735 80.2469 132.535 79.5772 134.274C78.7543 136.113 77.4945 137.723 75.9073 138.965C75.1014 139.648 74.2526 140.279 73.366 140.853C72.4763 141.447 71.536 141.961 70.556 142.389C69.5393 142.809 68.4543 143.041 67.3545 143.072C66.2988 143.092 65.2779 143.452 64.4447 144.101C64.1203 144.344 63.8556 144.657 63.6706 145.018C63.4857 145.378 63.3854 145.776 63.3775 146.182C63.3948 146.992 63.709 147.768 64.2604 148.362C64.8311 148.947 65.5229 149.401 66.2873 149.69C67.0346 150.029 67.8041 150.316 68.5906 150.55C71.597 151.441 74.7757 151.583 77.8498 150.965C79.2744 150.661 80.6637 150.211 81.9957 149.621C83.2605 149.016 84.6046 148.592 85.988 148.362C87.2887 148.304 88.5919 148.368 89.8805 148.554C91.0377 148.741 92.2243 148.561 93.274 148.04C94.226 147.487 94.7174 146.435 95.5773 145.782C96.3863 145.206 97.3305 144.849 98.3182 144.746C99.2165 144.6 100.053 144.531 100.798 144.339C101.476 144.181 102.116 143.889 102.679 143.479C103.063 143.189 103.365 142.803 103.553 142.359C103.742 141.916 103.811 141.431 103.754 140.953C103.708 140.601 103.62 140.256 103.493 139.924Z" fill="#40924A"/>
<path d="M111.57 124.339C115.295 118.958 116.975 112.423 116.307 105.913C116.015 103.195 115.201 100.293 111.593 99.5247C110.267 99.2646 108.892 99.4257 107.662 99.9854C105.359 100.999 102.011 101.567 100.844 103.824C99.6772 106.081 98.8403 109.966 97.9114 112.354C95.2933 119.018 88.3451 125.406 81.988 128.677L83.6618 130.089C85.1973 131.164 92.1685 131.625 95.324 133.252C96.9977 134.112 99.8615 135.279 101.512 136.193C103.163 137.107 105.558 135.986 107.401 135.632C108.351 135.468 109.23 135.025 109.927 134.358C112.614 131.694 109.927 129.59 110.149 127.225C110.367 126.157 110.856 125.163 111.57 124.339Z" fill="#40924A"/>
<path d="M79.4311 128.569C72.2525 127.034 66.5711 121.751 61.2889 116.669C60.0145 115.44 58.6939 114.128 58.2179 112.423C57.7419 110.719 58.3254 108.769 58.9012 107.049C59.7534 104.462 60.644 101.805 62.3715 99.6937C63.9454 97.7877 66.1044 96.4545 68.5136 95.901C70.003 95.5632 71.5846 95.5248 72.9282 94.8108C74.4637 93.9893 75.4387 92.4077 76.8744 91.4403C77.7322 90.9052 78.6924 90.5557 79.6934 90.4142C80.6944 90.2727 81.714 90.3424 82.6864 90.6188C84.6277 91.1899 86.3993 92.2286 87.8457 93.6438C89.197 94.8952 90.4715 96.4 92.2603 96.8146C93.2277 97.045 94.2719 96.9144 95.2162 97.2215C97.5195 97.9893 98.3487 100.769 98.4101 103.172C98.5406 108.492 96.5444 113.713 93.5502 118.12C90.5559 122.527 86.6403 126.204 82.5252 129.636" fill="#40924A"/>
<path d="M103.654 114.081C103.536 114.376 103.382 114.655 103.193 114.91C102.87 115.432 102.371 116.162 101.703 117.037C99.9678 119.306 97.9764 121.367 95.7686 123.179C93.5558 124.982 91.1448 126.528 88.5824 127.786C87.5997 128.262 86.7859 128.615 86.21 128.822C85.9231 128.956 85.6217 129.057 85.3118 129.122C85.3118 129.06 86.5325 128.546 88.4596 127.532C90.9598 126.204 93.3231 124.633 95.5153 122.841C97.6989 121.041 99.6973 119.027 101.481 116.83C102.855 115.171 103.6 114.043 103.654 114.081Z" fill="#40924A"/>
<path d="M86.6175 102.112C86.6749 102.47 86.7006 102.832 86.6942 103.195C86.6942 103.893 86.6942 104.899 86.6942 106.143C86.6942 108.63 86.4946 112.07 86.0877 115.847C85.6808 119.625 85.105 123.018 84.5983 125.452C84.3526 126.673 84.1299 127.655 83.9533 128.331C83.8897 128.687 83.7867 129.034 83.6462 129.367C83.6666 129.005 83.7179 128.646 83.7998 128.293C83.938 127.525 84.1146 126.565 84.3219 125.398C84.7518 122.957 85.2816 119.571 85.6962 115.801C86.1107 112.031 86.3104 108.615 86.4102 106.135C86.4562 104.953 86.4946 103.962 86.5177 103.195C86.5156 102.831 86.549 102.469 86.6175 102.112Z" fill="#40924A"/>
<path d="M73.635 111.31C73.8339 111.471 74.0119 111.657 74.1647 111.862C74.4795 112.231 74.9325 112.776 75.4469 113.475C76.8128 115.287 78.0616 117.185 79.1859 119.156C80.3164 121.125 81.3216 123.164 82.1955 125.26C82.5256 126.066 82.779 126.719 82.9633 127.179C83.07 127.41 83.14 127.656 83.1705 127.909C82.7266 127.082 82.3243 126.234 81.9652 125.367C81.2435 123.793 80.184 121.651 78.8941 119.356C77.6043 117.06 76.2607 115.064 75.2703 113.636C74.2799 112.208 73.5889 111.348 73.635 111.31Z" fill="#40924A"/>
<path d="M59.7698 132.239C59.7698 132.17 61.0289 132.424 63.0635 132.616C65.7111 132.859 68.3768 132.825 71.0174 132.516C73.6579 132.194 76.2571 131.594 78.7718 130.727C80.6989 130.059 81.8428 129.522 81.8428 129.583C81.6022 129.754 81.345 129.901 81.0751 130.021C80.3477 130.384 79.602 130.71 78.8409 130.996C73.798 132.912 68.3625 133.563 63.0097 132.892C62.2018 132.797 61.3996 132.659 60.6066 132.477C60.3183 132.436 60.0369 132.356 59.7698 132.239Z" fill="#40924A"/>
<path d="M83.3479 146.381C83.4185 145.624 83.539 144.872 83.7087 144.131C84.33 140.53 84.4977 136.865 84.2078 133.221C84.108 132.458 84.0567 131.688 84.0542 130.918C84.2829 131.647 84.4297 132.399 84.4919 133.16C84.7184 134.991 84.7877 136.838 84.6992 138.68C84.6153 140.522 84.3765 142.353 83.9851 144.154C83.8606 144.919 83.6467 145.666 83.3479 146.381Z" fill="#40924A"/>
<g opacity="0.3">
<path d="M91.7926 124.17C89.2359 124.485 87.0709 126.151 85.0516 127.756C86.2132 124.682 86.3929 121.323 85.566 118.143C84.568 118.573 84.2916 119.84 84.1457 120.923L83.2935 127.479C82.7832 124.691 81.4858 122.107 79.5545 120.032C79.1783 119.633 78.5487 119.264 78.1265 119.594C77.827 119.855 77.8885 120.362 77.9806 120.723C78.5411 123.157 79.2013 125.568 79.946 127.948L72.0074 131.426C71.7629 131.501 71.5481 131.652 71.3932 131.855C71.3156 132.017 71.2908 132.199 71.3225 132.375C71.3542 132.552 71.4408 132.714 71.5698 132.838C71.8924 133.108 72.2878 133.277 72.7061 133.322C73.267 133.433 73.8409 133.464 74.4105 133.414C76.7675 133.176 78.6946 131.955 80.5526 130.719L78.2493 137.383C80.4912 136.193 81.6812 133.683 82.4797 131.241C83.2954 133.656 84.2833 136.008 85.4355 138.282C85.8182 136.05 85.5517 133.756 84.6678 131.671C85.8643 131.775 87.0667 131.554 88.1479 131.031C89.2291 130.508 90.1488 129.703 90.8098 128.7L86.2877 130.235C88.726 128.857 90.656 126.73 91.7926 124.17Z" fill="#40924A"/>
</g>
<path d="M80.5828 129.099C80.1135 126.949 80.384 124.704 81.3506 122.727C82.4429 124.182 83.1958 125.864 83.554 127.648C84.8833 126.795 86.0875 125.762 87.1318 124.577C87.0709 126.16 86.4908 127.679 85.4811 128.9L89.6577 127.226C89.299 128.182 88.6752 129.017 87.8594 129.631C87.0435 130.246 86.0694 130.615 85.0512 130.696C85.7678 132.122 86.1087 133.708 86.0416 135.303C84.6658 134.177 83.5345 132.782 82.7172 131.203C81.5813 133.095 80.237 134.854 78.7095 136.447L79.5387 131.157L76.5291 131.303C77.8602 130.148 79.3525 129.194 80.959 128.47" fill="#40924A"/>
<path d="M233.061 120.384C230.842 121.306 227.894 122.119 224.861 123.939C226.657 120.277 228.823 113.958 228.976 109.881C226.389 113.72 223.118 120.776 221.437 125.098C219.901 123.056 219.041 118.427 216.83 117.167C218.872 121.705 218.327 128.3 216.83 133.029C215.387 131.294 214.773 128.262 213.329 126.519C214.028 131.125 214.243 135.041 213.452 139.356C212.471 137.089 210.934 135.106 208.984 133.59C210.407 138.789 210.962 144.187 210.627 149.567C210.013 146.545 208.698 143.71 206.788 141.29C208.677 151.225 205.936 159.855 204.385 171.433C208.746 163.532 217.782 148.676 225.36 143.793C222.028 145.229 218.02 147.916 214.404 148.216C218.181 144.231 222.696 138.726 227.026 135.34C224.684 136.108 221.014 138.58 217.329 141.482C220.615 138.027 226.68 129.444 230.65 126.787C228.423 127.064 223.686 132.308 221.437 132.584C223.648 128.853 229.705 122.281 233.061 120.384Z" fill="#40924A"/>
<path d="M222.912 126.811C222.856 126.97 222.781 127.122 222.69 127.264L221.968 128.531C221.338 129.613 220.432 131.202 219.373 133.175C216.593 138.328 214.102 143.631 211.91 149.06C209.737 154.497 207.871 160.052 206.321 165.698C205.722 167.863 205.269 169.629 204.977 170.849L204.655 172.254C204.62 172.42 204.572 172.581 204.509 172.738C204.511 172.57 204.534 172.402 204.578 172.239C204.647 171.871 204.747 171.402 204.862 170.819C205.108 169.583 205.515 167.809 206.075 165.629C209.017 154.252 213.403 143.299 219.127 133.037C220.233 131.08 221.162 129.513 221.837 128.431C222.16 127.932 222.413 127.525 222.605 127.21C222.694 127.067 222.797 126.934 222.912 126.811Z" fill="#40924A"/>
<path d="M189.429 332.608C189.429 332.608 189.429 332.378 189.429 331.925C189.429 331.472 189.429 330.796 189.391 329.929C189.391 328.171 189.391 325.583 189.537 322.251C189.644 315.549 191.556 306.052 193.33 294.266C194.213 288.37 195.249 281.921 196.193 274.973C196.662 271.502 197.215 267.917 197.675 264.224C198.136 260.531 198.627 256.708 199.126 252.8C200.977 237.145 202.65 219.878 203.518 201.713C203.61 199.41 203.702 197.176 203.794 194.934C203.886 192.692 204.001 190.458 203.994 188.247C204.04 183.817 204.086 179.448 204.132 175.195C204.04 170.9 203.95 166.691 203.863 162.565C203.863 160.5 203.702 158.465 203.595 156.423C203.487 154.381 203.364 152.415 203.249 150.45C203.134 148.484 203.057 146.534 202.896 144.623C202.735 142.711 202.527 140.822 202.351 138.964C202.174 137.106 201.998 135.279 201.821 133.475C201.737 132.576 201.652 131.678 201.568 130.795C201.483 129.912 201.33 129.029 201.215 128.162C200.739 124.692 200.27 121.336 199.825 118.12C199.71 117.313 199.602 116.515 199.495 115.724C199.387 114.933 199.211 114.189 199.072 113.421C198.786 111.885 198.509 110.386 198.243 108.922C197.696 105.989 197.184 103.202 196.708 100.561C196.094 97.9429 195.51 95.4784 194.973 93.1751C194.435 90.8718 193.929 88.7221 193.437 86.749C192.946 84.7758 192.385 83.0177 191.94 81.3747L189.829 73.9965C189.591 73.1596 189.414 72.5147 189.291 72.0694C189.168 71.6241 189.122 71.4091 189.122 71.4091C189.122 71.4091 189.199 71.6318 189.33 72.0617L189.905 73.9735L192.086 81.3363C192.547 82.9409 193.122 84.7067 193.621 86.6722C194.12 88.6376 194.604 90.7874 195.157 93.0906C195.71 95.3939 196.301 97.8661 196.923 100.476C197.435 103.118 197.962 105.905 198.504 108.837C198.781 110.304 199.065 111.809 199.349 113.336C199.487 114.104 199.648 114.872 199.779 115.64C199.909 116.407 200.001 117.229 200.117 118.035C200.572 121.26 201.043 124.61 201.529 128.085C201.644 128.953 201.79 129.828 201.882 130.711C201.975 131.594 202.059 132.5 202.144 133.398C202.32 135.202 202.504 137.037 202.681 138.895C202.858 140.753 203.049 142.642 203.234 144.554C203.418 146.465 203.479 148.392 203.602 150.388C203.725 152.385 203.833 154.35 203.955 156.362C204.078 158.373 204.216 160.423 204.232 162.504C204.324 166.629 204.416 170.839 204.508 175.133C204.462 179.428 204.419 183.794 204.378 188.231C204.378 190.45 204.263 192.677 204.178 194.926C204.094 197.176 203.994 199.433 203.902 201.705C203.034 219.894 201.345 237.161 199.472 252.815C198.96 256.731 198.471 260.541 198.005 264.247C197.545 267.955 196.984 271.541 196.47 274.996C195.51 281.944 194.466 288.393 193.568 294.29C191.748 306.075 189.798 315.556 189.652 322.236C189.475 325.568 189.437 328.155 189.429 329.914C189.429 330.781 189.429 331.449 189.429 331.91C189.429 332.37 189.429 332.608 189.429 332.608Z" fill="#40924A"/>
<path d="M142.219 47.0328C142.219 47.0328 140.76 42.8024 146.311 38.3187C147.061 37.7226 147.991 37.3982 148.948 37.3982C149.906 37.3982 150.836 37.7226 151.586 38.3187C153.128 39.4621 154.546 40.7642 155.816 42.2036C155.816 42.2036 153.436 34.4876 156.584 32.2227C159.732 29.9578 164.768 33.4127 164.768 33.4127C164.768 33.4127 163.709 29.0519 166.749 27.071C169.789 25.0902 172.684 22.8484 175.064 24.1689C176.31 24.8488 177.508 25.6132 178.649 26.4568C178.649 26.4568 177.198 21.3129 178.649 19.8618C180.1 18.4107 189.214 12.8598 193.697 15.5009C198.181 18.142 203.333 25.9348 203.333 25.9348C203.333 25.9348 199.64 18.7792 202.281 17.8579C204.922 16.9366 206.242 16.5374 207.824 19.1785C209.406 21.8196 213.628 22.7409 213.866 34.1344C214.104 45.528 201.72 67.6624 201.72 67.6624L177.92 74.5262L142.219 47.0328Z" fill="#40924A"/>
<g opacity="0.3">
<path d="M212.93 28.0691C210.44 30.2602 208.518 33.0227 207.329 36.1196C206.14 39.2165 205.72 42.5555 206.105 45.8504L205.713 52.6527C208.301 49.0135 210.903 45.3129 212.508 41.1363C214.113 36.9597 214.635 32.2073 212.93 28.0691Z" fill="#40924A"/>
</g>
<g opacity="0.3">
<path d="M175.226 63.6703C174.527 61.9812 173.138 60.6837 171.794 59.4476C169.491 57.3593 167.188 55.2633 164.823 53.3055C161.684 50.62 158.207 48.3564 154.481 46.5723C150.74 44.7816 146.608 43.9605 142.466 44.1846L150.09 47.6548C158.596 54.5647 166.727 60.7682 174.266 68.6761C175.725 67.5705 175.932 65.3593 175.226 63.6703Z" fill="#40924A"/>
</g>
<path d="M171.448 65.4439C171.448 65.4439 150.465 44.7912 142.366 44.2154C135.057 43.6933 134.089 52.0696 138.473 57.6051C141.782 61.7817 152.984 75.0486 166.112 79.7933C169.003 80.8197 172.069 81.2593 175.131 81.0866C178.194 80.9139 181.191 80.1324 183.947 78.7876C186.926 77.3596 190.573 75.7165 192.393 75.3634C195.855 74.6724 202.312 78.3576 214.074 64.9833C225.836 51.6089 224.447 49.298 224.915 44.6837C225.383 40.0695 226.067 33.843 227.679 30.6184C229.291 27.3938 230.681 23.9312 227.679 22.0809C224.677 20.2306 220.531 21.6203 215.917 28.0771C211.303 34.534 206.458 46.9947 206.458 46.9947C206.458 46.9947 206.458 28.3074 200.462 27.8468C194.466 27.3861 193.775 29.4668 193.775 29.4668C193.775 29.4668 188.47 24.8602 185.245 26.9255C182.02 28.9907 179.94 33.8353 179.94 33.8353C179.94 33.8353 172.324 29.6894 168.423 34.7643C164.523 39.8392 163.118 39.8315 164.27 45.8277C165.421 51.8239 171.448 65.4439 171.448 65.4439Z" fill="#40924A"/>
<path d="M171.448 65.4441C171.448 65.4441 169.583 61.5055 166.773 54.0889C166.082 52.231 165.337 50.1503 164.684 47.8164C164.337 46.601 164.08 45.3615 163.917 44.1081C163.653 42.7391 163.791 41.323 164.316 40.0313C165.054 38.7576 165.93 37.5682 166.926 36.4842C167.402 35.9007 167.878 35.3019 168.362 34.6877C168.631 34.3959 168.892 34.0965 169.176 33.8048C169.489 33.5453 169.817 33.3043 170.158 33.0831C171.64 32.2615 173.349 31.9461 175.026 32.1848C176.777 32.3989 178.476 32.9186 180.047 33.7203L179.855 33.7894C180.444 32.482 181.159 31.2349 181.99 30.0658C182.841 28.8113 183.909 27.7192 185.145 26.8412C185.835 26.4152 186.638 26.209 187.448 26.25C188.241 26.3004 189.02 26.4847 189.752 26.7951C191.258 27.4273 192.659 28.2869 193.905 29.3441L193.644 29.4132C193.934 28.8963 194.396 28.497 194.949 28.2846C195.463 28.0519 196.005 27.8892 196.562 27.8009C197.684 27.6253 198.822 27.5764 199.955 27.655C200.549 27.6461 201.137 27.7721 201.675 28.0235C202.2 28.3222 202.664 28.7183 203.042 29.1905C203.749 30.1545 204.298 31.2248 204.669 32.3614C205.423 34.6846 205.933 37.0802 206.189 39.5092C206.486 42.0042 206.65 44.5132 206.681 47.0256L206.328 46.9565C208.225 42.1167 210.404 37.3921 212.854 32.8067C214.113 30.4018 215.613 28.1305 217.33 26.0274C218.215 24.9531 219.211 23.9751 220.301 23.1099C221.402 22.2049 222.702 21.5735 224.094 21.2672C224.813 21.1274 225.554 21.1421 226.267 21.3102C226.981 21.4783 227.65 21.796 228.232 22.2423C228.834 22.6933 229.279 23.3216 229.506 24.0389C229.703 24.7572 229.731 25.5111 229.591 26.2423C229.283 27.6546 228.785 29.0184 228.109 30.2961C227.47 31.5788 226.99 32.9351 226.681 34.3345C226.052 37.1852 225.604 40.0725 225.337 42.9795C225.261 43.7088 225.176 44.4459 225.122 45.1753C225.069 45.9046 225.023 46.657 224.969 47.4018C224.869 48.9121 224.505 50.3933 223.894 51.778C222.714 54.2685 221.248 56.6132 219.525 58.7646C217.875 60.9297 216.117 62.9873 214.358 65.0141C212.605 67.0302 210.692 68.9019 208.639 70.6111C206.616 72.3154 204.326 73.6723 201.859 74.6265C200.622 75.0728 199.331 75.3566 198.02 75.471C196.742 75.5548 195.46 75.5548 194.182 75.471C193.575 75.4373 192.966 75.4785 192.37 75.5939C191.762 75.7346 191.164 75.9167 190.581 76.139C189.406 76.5689 188.278 77.0603 187.111 77.567C184.807 78.5574 182.658 79.7935 180.254 80.4154C177.912 81.0842 175.48 81.3821 173.045 81.2983C171.849 81.2547 170.659 81.1213 169.483 80.8991C168.328 80.6691 167.191 80.356 166.082 79.9624C163.925 79.1545 161.84 78.1684 159.847 77.0142C156.045 74.8057 152.488 72.1985 149.237 69.2368C146.183 66.5008 143.316 63.564 140.653 60.446C139.341 59.0287 138.171 57.4857 137.16 55.8394C136.251 54.193 135.768 52.3456 135.755 50.4651C135.713 49.5653 135.858 48.6665 136.182 47.8258C136.506 46.9852 137.001 46.2211 137.636 45.5822C138.275 44.9912 139.047 44.562 139.886 44.3307C140.3 44.2463 140.723 44.1772 141.137 44.1234H142.381C143.964 44.3567 145.491 44.877 146.888 45.6589C148.209 46.3545 149.491 47.1234 150.726 47.9622C154.772 50.7335 158.642 53.7541 162.312 57.0064C165.383 59.6552 167.686 61.7972 169.222 63.256L170.872 64.8452C171.264 65.2291 171.448 65.4364 171.448 65.4364L170.849 64.876L169.084 63.2253C167.548 61.7819 165.245 59.6629 162.174 57.0295C158.489 53.806 154.613 50.8088 150.565 48.0544C149.325 47.2419 148.044 46.4937 146.726 45.8125C145.358 45.0534 143.861 44.5512 142.312 44.3307H141.099C140.7 44.3921 140.3 44.4612 139.901 44.538C139.104 44.7608 138.372 45.1716 137.767 45.7357C137.157 46.3473 136.684 47.0805 136.377 47.8875C136.07 48.6945 135.937 49.5571 135.986 50.4191C136.003 52.2498 136.478 54.0472 137.367 55.6475C138.371 57.2924 139.534 58.8353 140.838 60.254C143.494 63.3562 146.356 66.2752 149.406 68.9911C152.641 71.9321 156.18 74.5212 159.963 76.7148C161.942 77.8559 164.011 78.8317 166.151 79.6323C167.243 80.0182 168.362 80.3261 169.498 80.5536C170.654 80.7665 171.824 80.8948 172.999 80.9375C175.393 81.01 177.784 80.7095 180.086 80.0469C182.435 79.4327 184.592 78.2119 186.888 77.2062C188.032 76.6994 189.191 76.2004 190.381 75.7704C190.981 75.5454 191.594 75.3557 192.216 75.2023C192.857 75.0853 193.509 75.044 194.159 75.0795C195.437 75.165 196.719 75.165 197.997 75.0795C199.269 74.9661 200.52 74.69 201.721 74.258C204.146 73.3184 206.398 71.9822 208.385 70.304C210.419 68.6081 212.314 66.7519 214.051 64.7531C215.809 62.7339 217.56 60.6763 219.203 58.5266C220.899 56.3946 222.347 54.0764 223.518 51.6168C224.113 50.2685 224.466 48.8263 224.562 47.3557C224.616 46.5879 224.662 45.8739 224.715 45.1369C224.769 44.3998 224.854 43.6628 224.93 42.9257C225.204 40.0034 225.657 37.1009 226.289 34.2347C226.604 32.8057 227.094 31.421 227.748 30.1118C228.422 28.8637 228.918 27.5277 229.222 26.1425C229.354 25.473 229.33 24.7823 229.153 24.1233C228.952 23.4823 228.555 22.9208 228.017 22.5187C227.476 22.1069 226.855 21.8141 226.193 21.6593C225.532 21.5045 224.845 21.4912 224.178 21.6204C222.845 21.9149 221.601 22.52 220.546 23.3863C219.483 24.2351 218.51 25.1923 217.644 26.2423C215.94 28.326 214.451 30.5768 213.199 32.9602C210.756 37.5291 208.579 42.2356 206.681 47.0563L206.343 47.9085V46.9949C206.315 44.4979 206.154 42.0042 205.859 39.5246C205.611 37.1284 205.117 34.7641 204.385 32.4689C204.028 31.3678 203.496 30.331 202.811 29.3978C202.468 28.962 202.043 28.5969 201.56 28.323C201.062 28.093 200.519 27.9776 199.971 27.9851C198.866 27.9073 197.756 27.9536 196.661 28.1233C196.133 28.2106 195.617 28.3627 195.126 28.5763C194.648 28.7594 194.244 29.0937 193.974 29.5283L193.875 29.7356L193.713 29.5974C192.498 28.5628 191.131 27.7213 189.66 27.1022C188.952 26.7964 188.195 26.6171 187.425 26.5725C186.683 26.5338 185.947 26.7212 185.314 27.1099C184.111 27.9649 183.071 29.0284 182.243 30.25C181.411 31.3981 180.689 32.6216 180.086 33.9046L180.024 34.0351L179.894 33.966C178.357 33.166 176.691 32.6461 174.972 32.4305C173.353 32.195 171.702 32.4914 170.266 33.275C168.869 34.0428 168.093 35.4938 167.08 36.6071C166.095 37.6763 165.229 38.8503 164.5 40.1081C163.984 41.3562 163.845 42.7282 164.101 44.0543C164.265 45.3025 164.522 46.5369 164.869 47.7473C165.506 50.0505 166.251 52.1542 166.926 54.0122C168.293 57.7358 169.46 60.5688 170.251 62.4575C170.642 63.4095 170.949 64.1389 171.157 64.6379L171.387 65.1907L171.448 65.4441Z" fill="#40924A"/>
<path d="M196.685 75.34C196.83 74.9682 197.004 74.6087 197.207 74.2651C197.576 73.5818 198.075 72.5914 198.674 71.3553C200.231 68.1257 201.56 64.7905 202.651 61.3745C203.725 57.9742 204.619 54.5196 205.33 51.0251C205.591 49.7353 205.806 48.6604 205.967 47.8312C206.021 47.4348 206.111 47.0442 206.236 46.6642C206.23 47.0659 206.191 47.4664 206.121 47.8619C206.021 48.6297 205.852 49.7276 205.606 51.0788C204.977 54.6167 204.118 58.1097 203.034 61.5357C201.94 64.9691 200.566 68.3071 198.927 71.5166C198.297 72.7373 197.752 73.7124 197.345 74.3649C197.155 74.709 196.934 75.0353 196.685 75.34Z" fill="#40924A"/>
<path d="M186.627 43.4859C186.764 43.8772 186.874 44.2774 186.957 44.6836C187.149 45.4513 187.402 46.5799 187.686 47.9696C188.27 50.7566 188.976 54.6261 189.575 58.9255C190.174 63.225 190.543 67.1405 190.742 69.9812C190.842 71.4016 190.911 72.5456 190.934 73.344C190.966 73.7554 190.966 74.1687 190.934 74.5801C190.844 74.1763 190.79 73.7652 190.773 73.3517C190.688 72.4918 190.589 71.3632 190.458 70.0043C190.182 67.1789 189.767 63.271 189.168 58.9792C188.569 54.6875 187.917 50.818 187.402 48.0233C187.157 46.6798 186.949 45.5665 186.796 44.7143C186.703 44.3106 186.647 43.8995 186.627 43.4859Z" fill="#40924A"/>
<path d="M181.021 31.5012C180.415 30.6356 179.886 29.7184 179.44 28.7603C178.873 27.8801 178.382 26.9528 177.973 25.9887C178.724 26.7375 179.339 27.6102 179.793 28.5684C180.363 29.4706 180.778 30.4619 181.021 31.5012Z" fill="#40924A"/>
<path d="M176.101 78.4879C175.861 78.4093 175.634 78.2982 175.425 78.1578C175.003 77.9275 174.404 77.5666 173.675 77.106C171.779 75.8935 169.982 74.5329 168.3 73.0369C166.616 71.5275 165.093 69.8473 163.755 68.0234C163.256 67.317 162.872 66.7336 162.626 66.3113C162.484 66.1041 162.368 65.8796 162.281 65.6433C162.342 65.6433 162.926 66.4955 163.985 67.8545C165.377 69.612 166.918 71.2458 168.592 72.7374C170.272 74.218 172.038 75.5973 173.882 76.868C174.65 77.3679 175.391 77.9087 176.101 78.4879Z" fill="#40924A"/>
<path d="M252.547 61.3441C252.547 61.3441 252.501 61.4669 252.386 61.6973L251.879 62.6953L249.891 66.5341C248.14 69.8662 245.622 74.6724 242.52 80.5995L231.526 101.452C227.403 109.291 222.812 117.913 219.134 127.456C215.457 136.999 213.537 146.611 212.225 155.364C210.912 164.116 210.059 172.078 208.962 178.704C208.164 183.944 207.038 189.129 205.591 194.228C205.107 196.047 204.601 197.414 204.294 198.351C204.13 198.806 204.007 199.159 203.925 199.41C203.841 199.648 203.787 199.771 203.787 199.771C203.812 199.646 203.846 199.523 203.887 199.402C203.963 199.141 204.071 198.788 204.217 198.328C204.501 197.383 204.985 196.024 205.445 194.189C206.828 189.08 207.91 183.894 208.685 178.658C209.745 172.04 210.605 164.07 211.856 155.31C213.107 146.55 214.988 136.884 218.766 127.31C222.543 117.736 227.073 109.114 231.211 101.275L242.267 80.469L249.753 66.4574C250.643 64.822 251.334 63.5399 251.81 62.657L252.355 61.6742C252.478 61.4516 252.547 61.3441 252.547 61.3441Z" fill="#40924A"/>
<path d="M288.739 46.2879L266.474 52.3532L256.332 39.5086C253.712 33.6429 251.091 27.7798 248.471 21.9192C247.995 20.8674 247.518 19.6774 247.925 18.5949C248.332 17.5123 249.753 16.806 250.996 16.7522C253.899 16.6294 256.563 18.6409 258.06 21.1285C259.557 23.616 260.11 26.5488 260.64 29.4126L260.801 20.1995C260.754 19.8101 260.791 19.4153 260.911 19.0417C261.03 18.6681 261.228 18.3246 261.492 18.0344C261.8 17.8491 262.142 17.7278 262.499 17.6777C262.855 17.6276 263.217 17.6497 263.565 17.7426C265.208 17.9806 266.843 18.2801 268.455 18.6639C269.712 18.8579 270.893 19.3885 271.872 20.1995C272.384 20.7504 272.767 21.408 272.994 22.1249C273.221 22.8418 273.286 23.6002 273.185 24.3454C273.067 25.3788 272.809 26.3914 272.417 27.355C273.461 25.8195 275.841 25.1745 277.73 25.7734C280.079 26.5412 281.776 28.4913 283.373 30.3799C283.995 31.1477 284.67 31.9846 284.555 32.9519C284.314 33.8306 283.745 34.5834 282.966 35.0556L276.724 40.0076C278.451 39.547 280.018 38.6334 281.699 38.0115C283.381 37.3896 285.292 37.0825 286.912 37.8426C288.532 38.6026 289.477 40.2073 290.359 41.7351C290.935 42.7409 291.526 43.9923 290.943 45.0058C290.405 45.7051 289.613 46.1655 288.739 46.2879Z" fill="#40924A"/>
<path d="M268.247 45.075C268.419 44.943 268.562 44.7769 268.668 44.5871C268.773 44.3973 268.838 44.1879 268.859 43.9718C268.88 43.7557 268.856 43.5377 268.789 43.3312C268.722 43.1248 268.613 42.9343 268.469 42.7717C268.173 42.4556 267.801 42.2194 267.389 42.0852C266.977 41.9509 266.538 41.923 266.112 42.004C265.266 42.1841 264.456 42.5059 263.717 42.956C263.822 41.7062 263.507 40.457 262.821 39.4068C262.135 38.3567 261.118 37.5657 259.932 37.1594C259.126 36.9061 255.901 36.2918 255.325 36.9214C254.918 37.3744 255.448 37.8274 255.556 38.4569C256.154 41.7045 256.185 42.1575 252.101 48.2382C250.648 50.4643 249.805 53.0322 249.654 55.6859C249.503 58.3397 250.05 60.9866 251.241 63.363C253.091 63.9953 255.064 64.1857 257.001 63.9191C258.938 63.6524 260.786 62.9361 262.396 61.8275C264.876 60.0693 266.611 57.4743 268.538 55.148C270.466 52.8217 272.961 50.6413 275.978 50.2267C274.064 47.6775 271.336 45.8596 268.247 45.075Z" fill="#40924A"/>
<path d="M241.437 241.744C239.333 240.577 236.83 238.773 233.552 237.529C237.537 236.654 243.832 234.419 247.118 232.001C242.512 232.377 234.942 234.197 230.512 235.571C231.141 233.099 234.243 229.552 233.844 227.026C231.54 231.448 226.074 235.126 221.414 236.876C221.874 234.665 223.87 232.27 224.331 230.089C221.16 233.498 218.235 236.101 214.35 238.174C215.512 235.991 216.106 233.552 216.078 231.08C212.916 235.428 209.055 239.224 204.653 242.312C206.633 239.945 208.029 237.147 208.73 234.143C202.128 241.821 193.659 245.037 183.64 251.034C192.531 249.498 209.79 247.356 218.327 250.266C215.133 248.554 210.534 247.087 208.047 244.446C213.521 244.922 220.646 245.03 225.989 246.312C223.917 244.968 219.709 243.617 215.126 242.558C219.878 242.98 230.366 242.389 234.911 243.832C233.322 242.297 226.258 241.821 224.669 240.254C228.953 239.648 237.867 240.3 241.437 241.744Z" fill="#40924A"/>
<path d="M230.089 237.798C229.926 237.849 229.759 237.885 229.59 237.905L228.162 238.128C226.918 238.304 225.091 238.596 222.903 238.988C211.353 241.027 200.077 244.392 189.298 249.015C187.225 249.898 185.567 250.642 184.43 251.172L183.11 251.771C182.958 251.849 182.799 251.911 182.634 251.955C182.769 251.854 182.916 251.769 183.071 251.702L184.361 251.034C185.482 250.458 187.125 249.675 189.183 248.731C199.92 243.954 211.227 240.579 222.826 238.688C225.052 238.327 226.857 238.082 228.108 237.921L229.552 237.767C229.731 237.754 229.912 237.765 230.089 237.798Z" fill="#40924A"/>
<path d="M229.106 207.333L228.937 207.494L228.423 207.94L226.419 209.621C225.544 210.351 224.477 211.233 223.256 212.293C222.035 213.352 220.623 214.519 219.102 215.871C216.031 218.535 212.446 221.775 208.53 225.445C204.615 229.115 200.4 233.253 196.077 237.729C191.755 242.205 187.762 246.504 184.208 250.527C180.653 254.55 177.536 258.205 174.995 261.391C173.697 262.927 172.561 264.401 171.547 265.652C170.534 266.904 169.674 268.002 168.975 268.9C168.277 269.798 167.747 270.435 167.355 270.95L166.926 271.479C166.826 271.595 166.78 271.656 166.772 271.648C166.806 271.58 166.848 271.516 166.895 271.456L167.294 270.904L168.83 268.8C169.513 267.894 170.365 266.781 171.348 265.514C172.331 264.247 173.467 262.788 174.757 261.215C177.298 258.044 180.407 254.305 183.97 250.282C187.532 246.259 191.517 241.882 195.832 237.422C200.146 232.961 204.392 228.853 208.315 225.176C212.239 221.498 215.862 218.266 218.957 215.656C220.492 214.32 221.912 213.153 223.148 212.124C224.385 211.095 225.452 210.205 226.358 209.498L228.408 207.878C228.63 207.702 228.807 207.564 228.953 207.464C229.099 207.364 229.099 207.326 229.106 207.333Z" fill="#40924A"/>
<path d="M262.626 183.525C261.543 179.502 257.52 181.513 257.52 181.513C258.157 180.577 258.627 179.538 258.91 178.442C259.063 177.206 255.071 173.183 255.071 173.183L251.67 175.816C251.67 175.816 251.977 172.262 252.438 169.782C252.898 167.302 247.462 166.227 242.664 164.062C237.866 161.897 236.99 169.882 236.99 170.496L235.178 175.333L233.059 181.206L239.532 203.632C239.532 203.632 255.946 197.129 256.868 196.723C257.789 196.316 265.843 191.548 265.843 190.934C265.843 190.319 263.708 187.548 262.626 183.525Z" fill="#40924A"/>
<g opacity="0.3">
<path d="M265.122 190.105C264.992 189.841 264.805 189.609 264.576 189.425C264.346 189.241 264.08 189.109 263.794 189.038C261.142 188.011 258.302 187.561 255.462 187.717C252.623 187.873 249.849 188.632 247.326 189.944C245.667 181.582 242.766 173.516 238.719 166.013L238.504 168.784C239.891 180.101 241.278 191.423 242.665 202.75C250.559 201.023 257.911 197.391 264.078 192.17C264.7 191.641 265.383 190.888 265.122 190.105Z" fill="#40924A"/>
</g>
<path d="M279.263 198.128L272.499 200.431L274.802 195.057C272.738 192.941 270.223 191.318 267.445 190.308C264.667 189.298 261.697 188.926 258.756 189.222C252.898 189.859 244.069 195.494 234.572 199.655L223.754 209.736C227.695 213.637 232.678 216.318 238.105 217.458C243.532 218.598 249.172 218.148 254.349 216.162C259.685 214.012 264.33 210.235 269.896 208.723C271.9 208.185 273.981 207.955 275.946 207.279C277.912 206.604 279.785 205.406 280.706 203.533C281.628 201.659 281.106 199.08 279.263 198.128Z" fill="#40924A"/>
<path d="M228.944 211.325C223.838 211.909 218.748 208.853 215.992 204.507C213.236 200.162 212.575 194.757 213.128 189.636C213.681 184.515 215.378 179.609 217.059 174.749C218.943 169.293 220.826 163.839 222.71 158.388C223.316 156.615 224.33 154.549 226.203 154.442C228.414 154.334 229.52 157.037 229.973 159.21C230.426 157.213 233.359 156.791 234.994 158.012C236.629 159.233 237.297 161.352 237.804 163.317L241.95 178.511C243.178 183.01 244.414 187.548 244.637 192.208C244.86 196.868 243.961 201.705 241.282 205.513C238.602 209.321 233.888 211.886 229.282 211.218" fill="#40924A"/>
<path d="M229.283 211.218C229.283 211.218 229.766 211.287 230.68 211.272C232.023 211.263 233.353 211.019 234.611 210.55C236.604 209.807 238.398 208.614 239.855 207.064C241.765 204.983 243.113 202.449 243.77 199.701C244.573 196.371 244.732 192.918 244.239 189.529C243.639 185.633 242.764 181.784 241.621 178.012L238.15 165.337C237.843 164.246 237.559 163.118 237.214 162.028C236.905 160.914 236.383 159.872 235.678 158.957C235.323 158.516 234.882 158.152 234.381 157.889C233.868 157.645 233.305 157.524 232.738 157.536C232.17 157.541 231.613 157.689 231.118 157.966C230.88 158.107 230.673 158.293 230.508 158.515C230.343 158.736 230.224 158.988 230.158 159.256L229.951 160.108L229.766 159.256C229.576 158.297 229.253 157.369 228.807 156.5C228.538 155.963 228.156 155.491 227.686 155.118C227.227 154.763 226.65 154.598 226.073 154.657C225.487 154.724 224.943 154.996 224.538 155.425C224.126 155.85 223.784 156.337 223.525 156.868C223.03 157.968 222.602 159.096 222.242 160.246C221.853 161.393 221.462 162.521 221.068 163.632C219.532 168.116 217.997 172.431 216.607 176.546C215.186 180.408 214.132 184.394 213.459 188.454C212.896 191.978 213.034 195.578 213.866 199.049C214.545 201.925 215.943 204.583 217.928 206.773C219.453 208.401 221.32 209.673 223.394 210.496C224.705 211.009 226.094 211.295 227.502 211.341C228.469 211.379 228.976 211.287 228.976 211.341L228.607 211.387C228.24 211.43 227.871 211.448 227.502 211.44C226.078 211.429 224.667 211.169 223.333 210.673C221.223 209.865 219.321 208.596 217.766 206.957C215.734 204.751 214.296 202.064 213.59 199.149C212.736 195.63 212.59 191.976 213.16 188.4C213.838 184.32 214.897 180.313 216.323 176.431C217.743 172.316 219.225 167.985 220.768 163.517C221.16 162.396 221.536 161.267 221.935 160.123C222.302 158.957 222.737 157.814 223.24 156.699C223.518 156.132 223.887 155.613 224.331 155.164C224.797 154.683 225.416 154.379 226.081 154.304C226.757 154.228 227.435 154.421 227.97 154.841C228.491 155.255 228.913 155.78 229.206 156.377C229.668 157.281 230.004 158.245 230.204 159.241H229.812C229.891 158.921 230.033 158.621 230.229 158.357C230.426 158.093 230.673 157.872 230.956 157.705C231.511 157.39 232.138 157.22 232.776 157.214C233.408 157.199 234.035 157.336 234.603 157.613C235.153 157.902 235.639 158.299 236.031 158.78C236.758 159.735 237.297 160.818 237.621 161.974C237.974 163.095 238.25 164.208 238.557 165.306L242.004 177.982C243.146 181.778 244.011 185.653 244.592 189.575C245.08 193.006 244.903 196.499 244.07 199.863C243.381 202.644 241.997 205.204 240.047 207.302C238.548 208.861 236.708 210.052 234.672 210.78C233.395 211.239 232.045 211.462 230.688 211.44C230.338 211.434 229.99 211.405 229.644 211.356L229.283 211.218Z" fill="#40924A"/>
<path d="M244.408 195.218C244.486 195.134 244.574 195.059 244.669 194.995C244.846 194.857 245.114 194.665 245.437 194.427C246.143 193.951 247.172 193.275 248.508 192.538C250.065 191.68 251.669 190.911 253.314 190.235C255.324 189.343 257.466 188.786 259.656 188.584C260.8 188.617 261.938 188.774 263.049 189.053C264.116 189.291 265.137 189.575 266.12 189.889C267.824 190.426 269.472 191.126 271.042 191.978C272.106 192.546 273.092 193.251 273.974 194.074C274.214 194.298 274.435 194.542 274.635 194.803C274.713 194.886 274.78 194.979 274.834 195.079C274.834 195.079 274.496 194.749 273.867 194.189C272.958 193.424 271.964 192.767 270.903 192.231C269.336 191.421 267.699 190.753 266.013 190.235C265.061 189.936 264.047 189.659 262.995 189.429C261.918 189.168 260.817 189.019 259.709 188.983C257.562 189.179 255.46 189.719 253.483 190.58C251.844 191.237 250.24 191.978 248.677 192.799C247.341 193.506 246.289 194.135 245.56 194.573C245.19 194.812 244.805 195.028 244.408 195.218Z" fill="#40924A"/>
<path d="M168.622 293.882C165.051 285.555 163.593 276.475 164.376 267.448C163.463 270.965 163.125 275.779 161.144 278.819C160.315 273.391 158.741 266.443 158.718 260.946C157.904 263.249 157.589 267.686 157.643 272.385C156.929 267.671 153.873 257.613 154.211 252.853C153.06 254.78 154.296 261.736 153.144 263.663C151.608 259.594 150.073 250.78 150.656 246.965C150.019 249.268 148.852 252.109 148.43 255.625C146.633 251.955 142.979 246.366 139.854 243.748C141.305 248.147 144.86 255.057 147.24 259.034C144.683 259.034 140.507 256.838 138.15 257.813C142.987 258.988 147.862 263.456 150.656 267.571C148.399 267.648 145.628 266.266 143.37 266.343C147.432 268.646 150.656 270.85 153.582 274.128C151.187 273.514 148.675 273.514 146.28 274.128C151.26 276.191 155.865 279.062 159.908 282.627C157.14 281.262 154.089 280.567 151.002 280.6C160.015 285.207 166.357 291.303 170.81 300.401L168.622 293.882Z" fill="#40924A"/>
<path d="M176.338 333C176.338 333 176.3 332.854 176.238 332.554C176.177 332.255 176.085 331.787 175.969 331.241C175.747 330.067 175.417 328.362 174.994 326.167C174.572 323.971 174.065 321.276 173.536 318.136C173.006 314.996 172.353 311.433 171.762 307.464C171.45 305.483 171.127 303.413 170.795 301.253C170.457 299.088 170.165 296.83 169.835 294.496C169.152 289.836 168.56 284.838 167.908 279.579C166.695 269.045 165.605 257.452 164.714 245.252C163.823 233.053 163.44 221.398 163.179 210.803C163.109 205.498 163.01 200.461 163.056 195.755C163.056 193.398 163.056 191.148 163.056 188.93C163.056 186.711 163.132 184.646 163.171 182.642C163.217 178.634 163.378 175.01 163.478 171.832C163.578 168.653 163.708 165.912 163.831 163.67C163.954 161.429 164.046 159.716 164.108 158.519C164.108 157.943 164.169 157.498 164.192 157.183C164.215 156.868 164.23 156.722 164.23 156.722C164.23 156.722 164.23 156.883 164.23 157.183C164.23 157.482 164.23 157.951 164.184 158.526C164.138 159.716 164.069 161.452 163.985 163.678C163.9 165.905 163.777 168.661 163.701 171.839C163.624 175.018 163.478 178.642 163.447 182.649C163.447 184.656 163.419 186.752 163.363 188.937C163.363 191.125 163.363 193.398 163.363 195.755C163.363 200.461 163.44 205.498 163.524 210.795C163.777 221.383 164.246 233.022 165.06 245.222C165.873 257.421 167.033 269.022 168.223 279.533C168.86 284.792 169.443 289.79 170.111 294.45C170.434 296.754 170.718 299.057 171.04 301.207C171.363 303.356 171.685 305.445 171.985 307.426C172.561 311.387 173.19 314.957 173.704 318.097C174.219 321.238 174.687 323.94 175.094 326.143C175.501 328.347 175.785 330.044 176 331.226C176.092 331.794 176.169 332.232 176.223 332.547C176.276 332.861 176.338 333 176.338 333Z" fill="#40924A"/>
<path d="M193.574 191.126C191.347 192.047 188.399 192.861 185.366 194.68C187.163 191.018 189.336 184.7 189.481 180.623C186.902 184.462 183.623 191.517 181.942 195.84C180.407 193.797 179.554 189.168 177.335 187.909C179.378 192.446 178.871 199.041 177.335 203.771C175.892 202.036 175.286 199.003 173.842 197.26C174.533 201.867 174.748 205.782 173.957 210.097C172.976 207.83 171.439 205.847 169.489 204.331C170.912 209.53 171.467 214.928 171.132 220.308C170.522 217.286 169.207 214.45 167.293 212.032C169.19 221.967 166.441 230.596 164.89 242.174C169.251 234.274 178.288 219.418 185.865 214.535C182.533 215.97 178.526 218.665 174.909 218.957C178.687 214.972 183.209 209.467 187.531 206.082C185.228 206.849 181.52 209.322 177.835 212.224C181.121 208.769 187.186 200.185 191.155 197.529C188.929 197.805 184.192 203.049 181.942 203.325C184.161 199.594 190.219 193.06 193.574 191.126Z" fill="#40924A"/>
<path d="M183.417 197.552C183.365 197.713 183.29 197.865 183.195 198.005L182.481 199.272C181.844 200.354 180.945 201.944 179.886 203.917C174.305 214.222 169.926 225.135 166.834 236.439C166.243 238.604 165.79 240.37 165.498 241.591C165.352 242.167 165.229 242.635 165.137 242.996C165.107 243.162 165.058 243.324 164.991 243.479C164.993 243.311 165.017 243.143 165.06 242.98C165.137 242.612 165.229 242.144 165.344 241.56C165.59 240.324 166.005 238.55 166.565 236.37C168.036 230.687 169.87 225.104 172.055 219.656C174.245 214.22 176.776 208.927 179.632 203.809C180.738 201.852 181.667 200.285 182.343 199.203L183.11 197.982C183.201 197.831 183.304 197.687 183.417 197.552Z" fill="#40924A"/>
<path d="M182.503 106.235C182.119 104.231 180.453 103.632 178.587 102.818C176.722 102.004 174.687 101.283 173.843 103.164C173.152 104.699 173.144 107.056 171.493 107.148C170.296 107.21 169.605 105.743 169.605 104.538C169.605 103.333 169.912 102.043 169.328 100.983C168.56 99.6473 166.779 99.3786 165.259 99.5552C163.739 99.7318 162.188 100.2 160.722 99.7548C159.255 99.3095 158.05 97.9429 156.491 97.82C154.933 97.6972 153.674 98.8028 152.299 99.4707C147.869 101.636 141.866 99.5398 138.073 102.703C136.199 104.238 135.378 106.81 135.363 109.252C135.347 111.693 138.434 132.484 146.249 140.6L161.605 143.839C168.154 138.089 179.662 128.845 182.211 112.292C182.511 110.281 182.887 108.231 182.503 106.235Z" fill="#40924A"/>
<path d="M208.53 129.843C207.709 127.831 206.857 125.766 205.359 124.192C203.862 122.618 201.521 121.628 199.471 122.311C201.897 119.501 200.062 114.634 196.638 113.198C193.213 111.762 189.137 113.198 186.35 115.609C183.563 118.02 181.743 121.413 179.939 124.645C178.135 127.878 169.275 133.498 166.265 135.632L167.432 149.229C171.409 151.225 184.661 153.536 189.052 152.776C193.42 151.892 197.636 150.376 201.567 148.277C205.229 146.465 209.106 144.07 210.25 140.146C211.225 136.737 209.866 133.175 208.53 129.843Z" fill="#40924A"/>
<g opacity="0.3">
<path d="M196.976 142.626C195.963 141.452 194.074 141.544 192.646 142.173C191.218 142.803 190.005 143.855 188.538 144.377C187.072 144.899 185.122 144.661 184.408 143.279C183.87 142.25 184.124 140.791 183.21 140.077C182.296 139.363 180.738 140.077 179.502 139.801C178.028 139.471 177.36 137.82 176.592 136.515C175.94 135.407 175.074 134.44 174.044 133.671C173.014 132.901 171.841 132.345 170.594 132.034C169.347 131.723 168.05 131.664 166.78 131.86C165.509 132.056 164.29 132.503 163.195 133.175C163.207 131.679 163.023 130.187 162.65 128.738C162.26 127.277 161.315 126.026 160.016 125.252C158.381 124.384 156.339 124.653 154.642 123.916C152.008 122.78 150.803 119.594 148.362 118.142C146.481 117.045 144.177 117.114 142.005 116.983C139.832 116.853 137.398 116.369 136.162 114.603L139.394 127.801C143.732 133.835 148.454 139.67 154.189 144.4C159.924 149.129 166.742 152.738 174.097 153.813C181.452 154.887 189.36 153.237 195.103 148.515C196.028 147.828 196.78 146.934 197.299 145.905C197.552 145.382 197.656 144.799 197.599 144.22C197.542 143.642 197.327 143.09 196.976 142.626Z" fill="#40924A"/>
</g>
<path d="M196.707 125.498C196.544 125.773 196.354 126.03 196.138 126.265C195.762 126.749 195.179 127.417 194.434 128.216C192.478 130.293 190.34 132.192 188.046 133.889C185.748 135.583 183.304 137.07 180.745 138.335C179.762 138.811 178.956 139.171 178.388 139.394C178.099 139.527 177.798 139.633 177.49 139.709C177.751 139.527 178.031 139.375 178.326 139.256C178.871 138.987 179.662 138.588 180.63 138.081C185.651 135.435 190.24 132.041 194.242 128.016C195.01 127.248 195.616 126.611 196.031 126.166C196.233 125.921 196.459 125.697 196.707 125.498Z" fill="#40924A"/>
<path d="M177.205 126.872C175.842 129.736 173.854 132.257 171.386 134.25C171.301 134.158 172.798 132.676 174.395 130.641C175.992 128.607 177.098 126.81 177.205 126.872Z" fill="#40924A"/>
<path d="M161.083 107.432C161.115 107.792 161.115 108.154 161.083 108.515C161.037 109.206 160.975 110.204 160.921 111.44C160.76 114.652 160.76 117.87 160.921 121.083C161.099 124.297 161.44 127.5 161.943 130.68C162.127 131.908 162.296 132.891 162.419 133.574C162.496 133.925 162.545 134.282 162.564 134.641C162.429 134.307 162.329 133.96 162.265 133.605C162.096 132.929 161.889 131.947 161.658 130.734C161.079 127.551 160.699 124.336 160.522 121.106C160.345 117.877 160.376 114.641 160.614 111.417C160.706 110.181 160.806 109.183 160.906 108.499C160.928 108.138 160.988 107.781 161.083 107.432Z" fill="#40924A"/>
<path d="M155.677 126.595C153.765 125.06 151.009 124.921 149.243 123.255C148.268 122.342 147.708 121.044 146.617 120.238C144.314 118.534 140.89 119.731 138.395 118.372C136.514 117.344 135.654 115.163 134.372 113.443C133.09 111.724 130.533 110.372 128.898 111.754C127.477 112.921 127.815 115.148 128.314 116.914C130.364 124.154 133.151 131.332 137.873 137.198C142.594 143.064 149.481 147.501 156.998 147.908C155.508 144.645 157.213 140.108 157.865 136.584C158.518 133.06 158.495 128.822 155.677 126.595Z" fill="#40924A"/>
<path d="M155.724 126.511C154.666 125.798 153.513 125.237 152.299 124.845C150.756 124.342 149.396 123.394 148.391 122.119C147.771 121.1 146.895 120.261 145.85 119.686C144.764 119.274 143.611 119.065 142.449 119.071C141.006 118.987 139.462 118.941 138.203 118.15C136.944 117.359 136.123 115.954 135.324 114.687C134.211 112.929 132.391 110.718 130.019 111.14C127.647 111.563 127.601 114.211 127.992 116.023C128.702 119.033 129.655 121.981 130.841 124.837C133.052 130.48 136.077 135.916 140.445 140.192C144.814 144.469 150.695 147.64 156.998 148.024C157.075 148.024 157.106 147.947 157.075 147.885C155.409 143.954 157.597 139.494 158.134 135.54C158.564 132.4 158.372 128.722 155.747 126.549C155.654 126.473 155.516 126.611 155.608 126.688C158.342 128.945 158.38 132.83 157.866 136.046C157.351 139.263 156.046 142.434 156.33 145.72C156.355 146.017 156.396 146.311 156.453 146.603C156.593 146.956 156.701 147.321 156.775 147.693C156.568 148.062 154.71 147.594 154.326 147.524C152.575 147.205 150.865 146.69 149.228 145.989C146.098 144.608 143.239 142.682 140.783 140.3C135.309 135.056 131.946 128.016 129.604 120.922C128.837 118.687 125.881 111.401 130.503 111.34C134.219 111.302 135.163 115.947 137.52 117.95C140.307 120.254 144.614 118.211 147.163 120.937C148.391 122.242 149.113 123.64 150.787 124.469C152.461 125.298 154.165 125.643 155.616 126.734C155.731 126.757 155.823 126.588 155.724 126.511Z" fill="#40924A"/>
<path d="M203.117 139.832C202.249 137.007 198.51 135.993 195.723 136.96C192.936 137.928 190.925 140.362 189.082 142.673C187.24 144.984 185.243 147.402 182.526 148.5C179.808 149.598 176.015 148.753 174.955 145.997C174.502 144.807 174.395 143.21 173.197 142.795C172.522 142.557 171.785 142.849 171.071 142.795C168.698 142.696 168 139.617 166.779 137.582C166.032 136.342 164.914 135.367 163.583 134.797C162.252 134.226 160.775 134.088 159.362 134.402C157.948 134.716 156.669 135.466 155.704 136.546C154.74 137.627 154.14 138.983 153.988 140.423C153.627 138.289 150.794 137.237 148.859 138.204C146.925 139.172 145.996 141.536 146.157 143.694C146.455 145.848 147.286 147.893 148.575 149.644C152.637 155.84 159.009 161.46 165.965 162.534H165.811C172.176 164.485 179.24 161.936 185.159 158.895C191.078 155.855 195.393 152.131 199.969 147.294C201.919 145.229 203.954 142.542 203.117 139.832Z" fill="#40924A"/>
<path d="M203.118 139.832C203.149 139.903 203.172 139.978 203.187 140.054C203.254 140.269 203.297 140.49 203.317 140.714C203.396 141.591 203.251 142.474 202.895 143.279C202.323 144.557 201.545 145.732 200.592 146.757C199.486 147.977 198.173 149.329 196.661 150.787C194.985 152.387 193.211 153.879 191.348 155.256C189.153 156.852 186.826 158.257 184.392 159.455C181.663 160.858 178.787 161.952 175.816 162.718C172.528 163.61 169.062 163.61 165.774 162.718L165.866 162.365H166.02L165.95 162.726C161.344 161.958 157.029 159.363 153.467 155.878C151.647 154.117 150.018 152.169 148.607 150.066C147.859 148.994 147.221 147.849 146.703 146.649C146.159 145.416 145.912 144.072 145.981 142.726C146.052 141.68 146.379 140.668 146.933 139.778C147.483 138.878 148.331 138.199 149.329 137.858C150.332 137.563 151.41 137.659 152.346 138.127C152.814 138.337 153.226 138.656 153.548 139.056C153.87 139.457 154.092 139.927 154.196 140.43H153.805C153.947 139.256 154.37 138.134 155.038 137.158C155.706 136.183 156.6 135.383 157.643 134.826C158.658 134.302 159.786 134.035 160.928 134.05C162.07 134.065 163.191 134.36 164.192 134.91C165.169 135.429 166.015 136.164 166.665 137.06C167.22 137.961 167.713 138.9 168.139 139.87C168.511 140.797 169.113 141.613 169.889 142.242C170.283 142.503 170.745 142.641 171.217 142.642C171.686 142.642 172.177 142.511 172.707 142.526C172.978 142.53 173.244 142.597 173.485 142.721C173.726 142.844 173.935 143.022 174.096 143.24C174.386 143.654 174.596 144.117 174.718 144.607C174.864 145.075 174.972 145.536 175.141 145.958C175.307 146.377 175.543 146.764 175.839 147.102C176.457 147.729 177.209 148.206 178.04 148.496C178.871 148.786 179.757 148.882 180.63 148.776C182.275 148.588 183.823 147.903 185.068 146.81C186.237 145.819 187.305 144.713 188.254 143.509C190.081 141.206 191.77 139.118 193.766 137.843C194.672 137.235 195.69 136.815 196.761 136.607C197.661 136.461 198.582 136.492 199.471 136.699C200.701 136.955 201.794 137.654 202.542 138.665C202.735 138.927 202.888 139.217 202.995 139.524C203.035 139.624 203.069 139.727 203.095 139.832C202.935 139.436 202.732 139.06 202.488 138.711C201.726 137.734 200.634 137.068 199.417 136.837C198.546 136.646 197.647 136.625 196.768 136.776C195.723 136.993 194.731 137.416 193.851 138.02C191.908 139.279 190.25 141.375 188.43 143.67C187.48 144.896 186.407 146.023 185.229 147.033C183.938 148.17 182.331 148.885 180.622 149.083C179.701 149.197 178.765 149.098 177.888 148.793C177.011 148.488 176.215 147.986 175.563 147.325C175.239 146.956 174.98 146.536 174.795 146.081C174.618 145.628 174.503 145.16 174.365 144.707C174.247 144.258 174.055 143.833 173.797 143.448C173.665 143.271 173.494 143.127 173.296 143.029C173.099 142.93 172.881 142.879 172.661 142.88C172.2 142.88 171.716 142.987 171.187 142.995C170.641 142.999 170.107 142.841 169.651 142.542C168.816 141.885 168.165 141.022 167.762 140.039C167.345 139.084 166.86 138.161 166.311 137.275C165.708 136.432 164.92 135.739 164.008 135.248C163.062 134.727 162.003 134.448 160.924 134.435C159.844 134.421 158.778 134.674 157.82 135.171C156.832 135.695 155.987 136.451 155.356 137.374C154.724 138.296 154.327 139.358 154.196 140.469L154.043 141.92L153.805 140.476C153.707 140.035 153.508 139.622 153.223 139.272C152.938 138.921 152.574 138.642 152.162 138.457C151.318 138.038 150.347 137.953 149.444 138.219C148.534 138.529 147.762 139.149 147.263 139.97C146.742 140.803 146.436 141.753 146.373 142.734C146.309 144.017 146.546 145.297 147.064 146.473C147.573 147.648 148.198 148.769 148.929 149.82C150.324 151.915 151.935 153.858 153.735 155.617C157.252 159.056 161.513 161.651 166.02 162.381L165.95 162.741H165.797L165.889 162.381C169.117 163.256 172.519 163.256 175.747 162.381C178.695 161.633 181.551 160.559 184.262 159.179C186.677 157.996 188.989 156.612 191.171 155.041C193.034 153.68 194.811 152.206 196.492 150.626C199.502 147.724 201.92 145.352 202.788 143.233C203.15 142.445 203.311 141.58 203.256 140.714C203.217 140.131 203.118 139.839 203.118 139.832Z" fill="#40924A"/>
<path d="M104.521 232.577C104.577 232.646 104.626 232.721 104.667 232.8C104.767 232.969 104.898 233.184 105.059 233.468C105.412 234.074 105.903 234.942 106.541 236.047L107.593 237.913C107.999 238.589 108.437 239.326 108.913 240.109C109.865 241.644 110.902 243.487 112.176 245.414L114.126 248.485C114.809 249.545 115.57 250.612 116.322 251.733C117.857 253.998 119.547 256.339 121.335 258.796C124.99 263.687 129.174 268.923 133.842 274.197C138.51 279.472 143.263 284.178 147.662 288.401C149.911 290.466 152.023 292.447 154.096 294.197C155.132 295.08 156.1 295.956 157.075 296.754L159.877 299.057C161.65 300.539 163.324 301.783 164.768 302.896L166.794 304.432L168.53 305.699C169.551 306.466 170.357 307.042 170.917 307.464L171.539 307.933C171.677 308.04 171.746 308.094 171.739 308.102C171.66 308.064 171.585 308.018 171.516 307.963L170.871 307.526L168.437 305.829L166.679 304.585L164.637 303.05C163.178 301.937 161.481 300.746 159.7 299.211L156.875 296.908C155.9 296.14 154.917 295.242 153.881 294.366C151.8 292.624 149.673 290.643 147.408 288.585C142.955 284.401 138.195 279.633 133.512 274.374C128.829 269.115 124.652 263.84 121.005 258.934C119.224 256.454 117.504 254.113 116.023 251.84C115.255 250.704 114.487 249.629 113.834 248.57L111.9 245.499C110.648 243.564 109.596 241.737 108.683 240.163L107.401 237.951L106.379 236.124L104.967 233.506C104.821 233.214 104.698 232.992 104.614 232.815C104.572 232.74 104.541 232.66 104.521 232.577Z" fill="#40924A"/>
<path d="M87.339 219.402C87.339 219.402 65.4119 205.92 56.9665 207.54C48.5212 209.16 50.1335 212.208 49.9569 217.061C49.7803 221.913 49.7803 226.588 54.4483 227.848C56.9539 228.593 59.5699 228.897 62.1796 228.746C62.1796 228.746 53.55 229.652 54.4483 234.412C55.3465 239.172 56.9665 241.322 60.1988 240.247C63.431 239.172 65.9493 238.266 65.9493 238.266C65.9493 238.266 60.9205 240.608 63.646 243.479C66.3716 246.351 73.7113 247.61 84.3141 246.358C94.9168 245.107 102.464 242.404 106.579 238.811C110.694 235.218 106.118 229.168 104.276 227.126C102.433 225.084 87.339 219.402 87.339 219.402Z" fill="#40924A"/>
<path d="M86.3567 218.581C86.3567 218.581 75.109 207.832 70.8633 202.458C66.6176 197.083 62.8019 194.104 63.7923 191.563C64.7827 189.022 70.5869 186.189 71.7155 186.749C72.5555 187.21 73.3301 187.78 74.0188 188.446C74.0188 188.446 73.5965 183.356 76.1378 182.504C78.6791 181.651 88.8749 178.542 90.8558 181.513C92.8366 184.484 100.422 196.653 101.443 206.419C102.464 216.185 99.232 227.771 99.232 227.771L86.3567 218.581Z" fill="#40924A"/>
<path d="M141.383 198.941C141.935 197.352 142.15 195.103 140.339 193.521C138.527 191.939 134.45 186.204 132.415 185.513C132.016 185.375 127.463 188.001 127.463 188.001C127.463 188.001 129.766 184.884 128.599 183.325C127.924 182.396 126.135 181.475 124.807 180.884C124.599 180.789 124.374 180.736 124.145 180.728C123.917 180.72 123.689 180.758 123.475 180.838C123.261 180.919 123.065 181.041 122.898 181.198C122.731 181.355 122.597 181.543 122.503 181.751L121.92 183.049C121.92 183.049 123.194 180.646 121.068 179.371C119.67 178.534 116.745 178.058 114.926 177.836C114.467 177.781 114.003 177.882 113.609 178.123C113.215 178.364 112.913 178.731 112.753 179.164L111.617 182.235C111.617 182.235 112.177 178.396 109.92 177.713C107.663 177.03 95.9083 177.713 94.0734 179.41C92.2384 181.106 93.2212 183.026 92.7989 184.684C92.3766 186.342 96.6377 222.304 99.7087 225.813C102.78 229.322 120.223 218.135 125.459 215.41C130.695 212.684 140.016 202.811 141.383 198.941Z" fill="#40924A"/>
<g opacity="0.3">
<path d="M100.637 228.7L93.3967 220.254L95.3852 224.093C93.8119 224.609 92.3374 225.388 91.0243 226.397C90.5867 226.734 90.1184 227.226 90.2566 227.771C90.4255 228.454 91.3391 228.539 92.0455 228.539L94.8631 228.377C95.0845 228.337 95.3117 228.34 95.5317 228.388C95.7517 228.435 95.9602 228.526 96.1453 228.654C96.3786 228.916 96.5283 229.242 96.5752 229.59C96.9747 231.103 97.629 232.536 98.51 233.828C98.8862 234.381 99.5388 234.972 100.138 234.665C100.326 234.523 100.478 234.337 100.578 234.123C100.678 233.908 100.725 233.673 100.713 233.437C100.872 231.86 100.846 230.27 100.637 228.7Z" fill="#40924A"/>
</g>
<path d="M96.3986 224.761C94.1416 225.21 92.1143 226.439 90.6711 228.231C91.6385 228.684 92.7594 228.354 93.7806 228.062C94.8017 227.77 95.9764 227.525 96.8516 228.101C97.2608 228.41 97.6029 228.799 97.8574 229.245C98.3638 230.086 98.8176 230.958 99.2163 231.855C99.3164 232.073 99.4813 232.255 99.6887 232.377C99.8961 232.498 100.136 232.552 100.375 232.532C100.614 232.511 100.842 232.418 101.026 232.264C101.21 232.11 101.342 231.903 101.404 231.671C102.31 228.231 102.725 223.993 103.554 221.083C103.642 220.888 103.682 220.675 103.671 220.462C103.661 220.248 103.599 220.04 103.493 219.855C103.109 219.41 102.364 219.671 101.957 220.078C101.32 220.684 100.79 221.613 99.915 221.613C99.3209 221.523 98.7774 221.226 98.3794 220.776C97.0237 219.625 95.3999 218.832 93.6577 218.473C93.2124 218.381 92.6366 218.381 92.4293 218.78C92.222 219.179 92.5598 219.64 92.8669 219.962L96.2835 223.594" fill="#40924A"/>
<g opacity="0.3">
<path d="M140.046 197.421C139.374 197.077 138.595 197.008 137.873 197.229C135.083 197.781 132.489 199.064 130.357 200.945C128.76 202.35 127.286 204.162 125.213 204.6C122.525 205.168 119.946 203.218 117.205 203.018C114.349 202.803 111.631 204.554 109.919 206.857C108.207 209.16 107.308 211.947 106.449 214.68L101.949 228.945L124.66 218.788C131.855 214.982 137.442 208.714 140.399 201.129C140.929 199.893 141.174 198.174 140.046 197.421Z" fill="#40924A"/>
</g>
<path d="M101.404 227.955C101.558 227.341 103.861 210.296 110.779 207.655C117.696 205.014 122.003 208.116 126.771 207.041C131.539 205.966 130.149 204.124 132.614 203.356C133.956 202.873 135.425 202.873 136.767 203.356L141.374 198.941C141.374 198.941 139.216 205.659 132.606 214.112C125.996 222.565 119.078 230.235 110.157 233.306C101.235 236.377 101.404 227.955 101.404 227.955Z" fill="#40924A"/>
<path d="M101.404 227.955V228.255C101.404 228.454 101.458 228.746 101.519 229.13C101.693 230.245 102.139 231.299 102.817 232.201C103.399 232.872 104.151 233.374 104.994 233.655C105.837 233.936 106.739 233.985 107.608 233.798C109.94 233.357 112.182 232.529 114.241 231.349C118.917 228.869 123.646 224.569 128.161 219.241C129.305 217.913 130.464 216.523 131.569 215.087C132.675 213.652 133.834 212.162 134.917 210.596C137.159 207.378 139.066 203.938 140.606 200.331C140.813 199.847 140.998 199.348 141.166 198.865L141.497 199.072L136.89 203.479L136.806 203.571L136.675 203.517C135.866 203.232 135.002 203.132 134.149 203.226C133.725 203.263 133.306 203.342 132.898 203.464C132.494 203.553 132.113 203.723 131.777 203.963C131.132 204.416 130.771 205.299 130.049 205.844C129.364 206.369 128.581 206.752 127.746 206.972C126.147 207.439 124.468 207.567 122.817 207.348C121.212 207.187 119.677 206.903 118.21 206.796C115.371 206.516 112.51 207.026 109.942 208.27C108.87 208.96 107.953 209.865 107.247 210.926C106.569 211.895 105.981 212.922 105.489 213.997C104.641 215.842 103.935 217.749 103.377 219.702C102.871 221.414 102.517 222.911 102.249 224.139C101.98 225.368 101.796 226.312 101.673 226.957C101.612 227.264 101.565 227.51 101.527 227.725C101.513 227.808 101.492 227.89 101.466 227.97C101.456 227.886 101.456 227.801 101.466 227.717C101.466 227.533 101.527 227.287 101.573 226.949C101.673 226.297 101.834 225.337 102.08 224.109C102.326 222.88 102.663 221.375 103.155 219.64C103.697 217.673 104.39 215.75 105.228 213.89C105.717 212.794 106.306 211.746 106.986 210.757C107.71 209.658 108.654 208.719 109.757 208.001C112.376 206.716 115.3 206.185 118.203 206.466C119.738 206.565 121.274 206.842 122.863 207.003C124.466 207.207 126.095 207.079 127.646 206.627C128.443 206.423 129.19 206.06 129.842 205.56C130.157 205.295 130.436 204.991 130.671 204.654C130.919 204.276 131.228 203.941 131.585 203.663C131.958 203.394 132.381 203.201 132.829 203.095C133.262 202.97 133.707 202.888 134.157 202.849C135.075 202.747 136.005 202.858 136.875 203.172L136.66 203.21L141.266 198.803L141.85 198.235L141.589 199.003C141.42 199.51 141.228 200.001 141.028 200.492C139.474 204.127 137.549 207.593 135.285 210.834C134.195 212.37 133.067 213.905 131.915 215.341C130.763 216.777 129.612 218.166 128.491 219.494C123.946 224.83 119.155 229.145 114.418 231.617C112.322 232.796 110.044 233.614 107.677 234.036C106.775 234.219 105.84 234.155 104.971 233.851C104.102 233.547 103.331 233.014 102.74 232.308C102.051 231.381 101.612 230.291 101.466 229.145C101.425 228.85 101.399 228.552 101.389 228.255C101.382 228.154 101.387 228.054 101.404 227.955Z" fill="#40924A"/>
<path d="M97.9338 219.164C97.8733 219.053 97.8293 218.935 97.8033 218.811C97.7265 218.535 97.6267 218.197 97.5116 217.79C97.2659 216.892 96.9357 215.594 96.5595 213.951C95.7918 210.719 94.9165 206.22 94.2179 201.199C93.5192 196.178 93.166 191.609 93.0202 188.293C92.9434 186.634 92.905 185.291 92.8973 184.362C92.8973 183.939 92.8973 183.594 92.8973 183.295C92.8825 183.172 92.8825 183.048 92.8973 182.926C92.938 183.044 92.9562 183.169 92.9511 183.295C92.9511 183.586 92.9971 183.932 93.0278 184.362C93.0893 185.344 93.166 186.665 93.2658 188.277C93.4885 191.579 93.8954 196.139 94.5864 201.145C95.2774 206.151 96.1219 210.65 96.8052 213.89C97.143 215.464 97.4271 216.761 97.6344 217.728C97.7189 218.143 97.7956 218.496 97.8494 218.773C97.897 218.898 97.9255 219.03 97.9338 219.164Z" fill="#40924A"/>
<path d="M96.8282 225.905C96.1605 225.678 95.5216 225.374 94.9241 224.999C93.4386 224.171 92.0054 223.253 90.6324 222.25C89.2607 221.247 87.9505 220.163 86.7091 219.003C86.1714 218.545 85.6848 218.03 85.2581 217.467C85.8376 217.866 86.3845 218.31 86.8934 218.795C87.8838 219.632 89.2734 220.768 90.8704 221.935C92.4673 223.102 93.9414 224.078 95.07 224.761C95.6846 225.096 96.2724 225.479 96.8282 225.905Z" fill="#40924A"/>
<path d="M88.9821 233.974C88.6604 234.033 88.3342 234.064 88.0071 234.066L85.3737 234.212C83.1472 234.358 80.0761 234.658 76.721 235.218C73.3659 235.779 70.3717 236.523 68.222 237.122L65.6807 237.844C65.3744 237.954 65.0581 238.034 64.7363 238.082C65.0227 237.925 65.3235 237.797 65.6346 237.698C66.2181 237.475 67.078 237.184 68.1452 236.846C73.732 235.131 79.5183 234.15 85.3583 233.928C86.4792 233.928 87.3852 233.89 88.0071 233.928C88.3328 233.905 88.6601 233.92 88.9821 233.974Z" fill="#40924A"/>
<path d="M95.1705 228.316C94.8747 228.375 94.5739 228.406 94.2722 228.408C93.6964 228.408 92.8518 228.47 91.8154 228.493C89.7424 228.539 86.8787 228.531 83.7078 228.416C80.537 228.301 77.6886 228.086 75.6233 227.878C74.5869 227.779 73.75 227.686 73.1819 227.61C72.8794 227.594 72.5801 227.539 72.2913 227.448C72.5898 227.417 72.891 227.417 73.1895 227.448L75.6694 227.61C77.7423 227.74 80.5984 227.901 83.7539 228.024C86.9094 228.147 89.7731 228.193 91.8461 228.216L94.3029 228.255C94.5935 228.239 94.8849 228.26 95.1705 228.316Z" fill="#40924A"/>
</g>
</svg>
