<svg width="227" height="333" viewBox="0 0 227 333" fill="none" xmlns="http://www.w3.org/2000/svg">
<path d="M97.3291 332.37C97.3291 332.37 98.1813 328.862 100.3 322.681C102.419 316.501 105.797 307.671 110.343 296.915C114.888 286.159 120.523 273.46 126.865 259.387C133.206 245.314 140.254 229.882 147.241 213.506C150.719 205.306 154.005 197.26 156.838 189.36C158.235 185.398 159.51 181.483 160.523 177.575C161.537 173.667 161.951 169.744 162.558 165.928C164.807 150.657 167.61 136.991 171.203 125.858C173.925 117.037 177.645 108.555 182.289 100.576L184.593 96.8909C185.268 95.8314 185.921 94.9868 186.404 94.2805C186.888 93.5742 187.28 93.0521 187.541 92.6836C187.802 92.315 187.932 92.1538 187.932 92.1538C187.932 92.1538 187.817 92.3457 187.571 92.7143L186.474 94.3266C185.998 95.0406 185.36 95.8621 184.692 96.96C184.024 98.0579 183.28 99.2632 182.389 100.653C177.805 108.663 174.133 117.161 171.441 125.989C167.886 137.106 165.122 150.757 162.888 166.02C162.289 169.82 161.928 173.79 160.861 177.713C159.794 181.636 158.558 185.559 157.176 189.529C154.351 197.444 151.034 205.498 147.579 213.705C140.585 230.089 133.514 245.514 127.172 259.579C120.83 273.644 115.126 286.32 110.573 297.069C106.02 307.817 102.565 316.608 100.415 322.766C99.8627 324.301 99.4097 325.683 99.0258 326.873C98.642 328.063 98.3041 329.076 98.0661 329.906L97.498 331.779L97.3291 332.37Z" fill="#F3F4F6"/>
<path d="M194.204 80.4992C197.897 81.3361 201.805 80.3994 205.222 78.7641C208.638 77.1288 211.694 74.8332 214.857 72.7526C217.091 71.2785 219.563 69.8658 222.343 70.3955C222.951 70.5028 223.531 70.7383 224.041 71.0864C224.552 71.4345 224.983 71.8873 225.306 72.4147C226.842 75.1096 224.339 77.2823 224.27 79.8236C224.224 81.29 225.037 82.6797 224.999 84.1461C224.999 85.9196 223.794 87.4398 222.696 88.8141C221.344 90.4648 219.801 92.2383 217.69 92.5454C215.794 92.8218 212.531 93.674 210.726 93.0367C207.502 91.8928 204.83 91.8467 202.02 89.8889C198.12 87.1711 193.79 81.7584 193.889 81.8582L194.204 80.4992Z" fill="#EBEBEB"/>
<path d="M175.763 91.0408C176.408 89.6665 177.706 88.9218 178.957 88.2078L191.886 80.845L195.809 81.2519C196.761 85.6665 197.145 88.6608 203.771 92.4228C205.006 93.1552 206.405 93.567 207.84 93.6205C209.844 93.6205 212.27 95.2174 211.287 97.6282C210.927 98.4602 210.278 99.1338 209.46 99.5245C207.385 100.556 205.12 101.152 202.805 101.276C200.491 101.4 198.175 101.05 196.001 100.246C194.335 99.6244 192.723 98.7107 190.95 98.6032C188.746 98.4574 186.228 99.4708 184.477 98.1195C183.809 97.6051 183.395 96.8297 182.742 96.3C181.713 95.4631 180.293 95.3786 178.988 95.1714C177.414 94.9257 175.648 94.2654 175.495 92.4535C175.456 91.967 175.549 91.4792 175.763 91.0408Z" fill="#EBEBEB"/>
<path d="M168.6 77.2211C165.291 72.4466 163.802 66.6455 164.4 60.8678C164.653 58.4494 165.375 55.8774 168.577 55.1941C169.753 54.9627 170.971 55.105 172.062 55.601C174.128 56.4993 177.076 57.006 178.112 59.0022C179.149 60.9983 179.893 64.484 180.707 66.5723C183.011 72.484 189.199 78.1347 194.834 81.0522L193.352 82.296C192.024 83.2557 185.805 83.6626 183.003 85.106C181.521 85.8737 178.98 86.9025 177.521 87.7087C176.062 88.5148 173.928 87.5321 172.3 87.2096C171.459 87.0652 170.679 86.6752 170.058 86.0887C167.671 83.7163 170.058 81.8583 169.859 79.7547C169.658 78.818 169.225 77.9468 168.6 77.2211Z" fill="#EBEBEB"/>
<path d="M215.287 61.8509C214.519 59.5476 213.751 57.1983 212.216 55.325C210.814 53.6328 208.892 52.4507 206.749 51.9622C205.436 51.6628 204.032 51.632 202.841 50.9948C201.483 50.2654 200.615 48.8681 199.34 48.0005C198.58 47.5269 197.728 47.218 196.841 47.0937C195.954 46.9694 195.05 47.0325 194.189 47.2789C192.455 47.7769 190.872 48.6976 189.582 49.9583C188.392 51.0639 187.279 52.3998 185.667 52.7683C184.807 52.9756 183.886 52.8605 183.041 53.1292C181.014 53.7818 180.269 56.277 180.216 58.4037C180.1 63.1254 181.874 67.7627 184.523 71.6705C187.172 75.5784 190.665 78.8414 194.304 81.8587L197.091 80.9604C203.456 79.6245 208.492 74.9182 213.214 70.4038C214.343 69.3212 215.517 68.1542 215.909 66.6417C216.3 65.1292 215.794 63.4018 215.287 61.8509Z" fill="#EBEBEB"/>
<path d="M175.618 68.1231C175.672 68.0847 176.34 69.0828 177.553 70.5722C179.142 72.5153 180.916 74.2997 182.85 75.9005C184.795 77.4889 186.891 78.8826 189.107 80.0617C190.812 80.9677 191.917 81.4283 191.887 81.4898C191.623 81.4326 191.365 81.3476 191.119 81.2364C190.605 81.0521 189.883 80.7373 189.008 80.3151C184.437 78.0739 180.452 74.7985 177.368 70.7488C176.896 70.1439 176.458 69.5134 176.056 68.8601C175.879 68.6338 175.732 68.3862 175.618 68.1231Z" fill="#F3F4F6"/>
<path d="M190.735 57.5052C190.792 57.8218 190.817 58.1432 190.811 58.4649C190.811 59.1635 190.873 60.0004 190.919 61.0676C191.011 63.271 191.195 66.3037 191.556 69.6434C191.917 72.9832 192.393 75.9851 192.769 78.1579C192.946 79.179 193.099 80.0389 193.222 80.7299C193.296 81.0422 193.34 81.3611 193.353 81.6819C193.222 81.3871 193.127 81.0778 193.069 80.7606C192.915 80.1617 192.715 79.2942 192.493 78.2116C192.04 76.0465 191.525 73.0369 191.165 69.6895C190.804 66.3421 190.658 63.2864 190.635 61.0752C190.635 59.9773 190.635 59.0791 190.635 58.4649C190.631 58.1422 190.664 57.8201 190.735 57.5052Z" fill="#F3F4F6"/>
<path d="M202.243 65.6668C201.824 66.3858 201.359 67.0781 200.854 67.7397C199.979 68.9989 198.812 70.7724 197.645 72.8069C196.478 74.8415 195.541 76.7455 194.896 78.1429C194.582 78.912 194.221 79.6608 193.813 80.3847C193.841 80.1623 193.9 79.945 193.99 79.7398C194.121 79.3252 194.343 78.7417 194.635 78.0277C195.412 76.1686 196.302 74.3584 197.299 72.6073C198.301 70.8607 199.411 69.1785 200.623 67.5708C201.092 66.9566 201.483 66.4729 201.767 66.1428C202.052 65.8127 202.22 65.613 202.243 65.6668Z" fill="#F3F4F6"/>
<path d="M214.542 84.2232C214.299 84.3345 214.04 84.4095 213.774 84.4459C213.07 84.6104 212.358 84.736 211.64 84.8221C206.889 85.4238 202.063 84.8436 197.59 83.133C196.915 82.8794 196.254 82.5898 195.609 82.2655C195.362 82.169 195.131 82.0343 194.926 81.8662C194.926 81.8048 195.978 82.2808 197.69 82.872C202.157 84.4163 206.903 84.9869 211.609 84.5457C213.421 84.3768 214.527 84.1618 214.542 84.2232Z" fill="#F3F4F6"/>
<path d="M193.675 96.7682C193.403 96.1465 193.207 95.4943 193.092 94.8258C192.739 93.2273 192.526 91.6012 192.454 89.9659C192.373 88.3306 192.438 86.6914 192.646 85.0676C192.696 84.3907 192.83 83.7226 193.046 83.0791C193.054 83.7542 193.013 84.4292 192.923 85.0983C192.679 88.3293 192.831 91.578 193.376 94.772C193.524 95.4292 193.625 96.0964 193.675 96.7682Z" fill="#F3F4F6"/>
<path d="M196.078 81.4359C196.502 79.5311 196.267 77.5386 195.41 75.7852C194.446 77.08 193.78 78.5717 193.46 80.1538C192.282 79.4016 191.215 78.4895 190.289 77.4436C190.338 78.8492 190.851 80.1991 191.748 81.2824L188.047 79.8006C188.37 80.6464 188.926 81.3836 189.65 81.927C190.374 82.4704 191.237 82.7979 192.139 82.8716C191.507 84.129 191.206 85.5269 191.264 86.9331C192.482 85.9362 193.483 84.7003 194.204 83.3016C195.216 84.9773 196.408 86.5374 197.759 87.9542L197.03 83.2555L199.702 83.386C198.518 82.3659 197.194 81.5205 195.771 80.8755" fill="#F3F4F6"/>
<path d="M38.4105 332.371C38.4105 332.371 38.3644 332.11 38.303 331.603C38.2416 331.096 38.1571 330.321 38.0496 329.3C37.827 327.296 37.5045 324.355 37.0823 320.563C36.8775 318.664 36.6446 316.563 36.3836 314.259C36.0995 311.956 35.7924 309.453 35.4546 306.758C34.7943 301.384 34.0573 295.242 33.1513 288.501C29.5198 261.461 23.8768 224.194 16.6445 183.195C13.0821 162.681 9.37384 143.195 5.96499 125.483C4.17611 116.646 2.5715 108.224 0.897791 100.377C0.0737295 96.4564 -0.717059 92.6688 -1.47458 89.0143C-2.24234 85.3828 -3.0101 81.8895 -3.77786 78.5574C-5.19821 71.8856 -6.66463 65.897 -7.88537 60.6149C-8.47655 57.9738 -9.12147 55.5323 -9.68961 53.2828C-10.2578 51.0332 -10.7798 48.9833 -11.2251 47.1407C-12.1771 43.4478 -13.0524 40.6147 -13.5745 38.6953C-13.8432 37.7357 -14.0428 36.9986 -14.181 36.4919C-14.3192 35.9852 -14.3806 35.7241 -14.3806 35.7241C-14.3806 35.7241 -14.2962 35.9775 -14.1426 36.4919C-13.989 37.0063 -13.7818 37.728 -13.4977 38.68C-12.9449 40.6147 -12.0543 43.4401 -11.0793 47.1253C-10.6032 48.9756 -10.0658 51.0256 -9.48998 53.2674C-8.91417 55.5093 -8.25389 57.9507 -7.65504 60.5918C-6.41127 65.874 -4.9295 71.8625 -3.48612 78.5267C-2.74907 81.8588 -1.98131 85.3444 -1.18284 88.9836L1.21257 100.339C2.90164 108.185 4.52161 116.6 6.31816 125.444C9.75005 143.157 13.4737 162.642 17.0284 183.157C24.2607 224.155 29.8577 261.468 33.4201 288.493C36.9825 315.518 38.4105 332.371 38.4105 332.371Z" fill="#F3F4F6"/>
<path d="M1.08266 5.45894C1.46712 4.44406 2.08522 3.534 2.8869 2.8025C4.92146 1.19788 8.17676 2.23436 9.61246 4.38408C10.2651 5.36681 10.7718 6.64129 11.9157 6.9791C12.5136 7.07142 13.1221 7.07142 13.72 6.9791C16.7373 6.90233 19.2785 9.70465 19.7162 12.6912C20.1538 15.6778 18.9484 18.6874 17.2824 21.2057C15.6163 23.7239 13.4973 25.912 11.8006 28.4072C9.12878 32.3305 7.56255 36.9063 4.99824 40.8987C2.43392 44.891 -3.71582 49.82 -8.46057 49.7816C-2.10353 37.5129 -4.59107 18.1039 1.08266 5.45894Z" fill="#EBEBEB"/>
<path d="M32.3387 141.759C30.5241 142.523 28.7754 143.434 27.1103 144.485C28.1161 141.989 29.2447 137.728 29.1525 135.034C27.43 138.36 26.0091 141.834 24.9068 145.414C23.7936 144.147 23.0181 141.137 21.4903 140.408C23.0258 143.302 23.0258 147.671 22.2581 150.857C21.2293 149.782 20.6842 147.786 19.6477 146.734C20.3647 149.488 20.5959 152.346 20.331 155.18C19.5707 153.732 18.456 152.501 17.0911 151.602C18.2746 154.957 18.8946 158.485 18.926 162.043C18.3746 160.082 17.37 158.278 15.9932 156.776C17.7129 163.233 16.5383 169.69 16.0623 177.383C18.5575 172.009 23.5863 161.122 28.3464 157.544C26.2197 158.65 23.7015 160.615 21.3368 160.976C23.64 158.174 26.3502 154.335 29.0143 151.901C27.4788 152.523 25.1756 154.32 22.9183 156.423C24.9222 153.982 28.5076 148.047 30.9952 146.112C29.5441 146.396 26.6727 150.082 25.2216 150.358C26.5422 147.763 30.2197 143.156 32.3387 141.759Z" fill="#EBEBEB"/>
<path d="M25.9587 146.473C25.8184 146.877 25.6464 147.27 25.4443 147.648C25.0911 148.415 24.592 149.475 23.9855 150.818C20.8333 157.823 18.4818 165.16 16.9759 172.692C16.6841 174.135 16.4615 175.302 16.3233 176.116C16.2701 176.543 16.1802 176.964 16.0546 177.375C16.0609 176.946 16.0994 176.517 16.1697 176.093C16.2619 175.272 16.4461 174.089 16.6995 172.638C18.0607 165.047 20.4257 157.671 23.7322 150.703C24.3694 149.367 24.9068 148.3 25.2677 147.579C25.4688 147.193 25.6998 146.823 25.9587 146.473Z" fill="#F3F4F6"/>
<path d="M127.809 332.608C127.802 332.473 127.802 332.337 127.809 332.201C127.809 331.917 127.809 331.518 127.878 331.011C127.947 329.944 128.047 328.409 128.178 326.405C128.247 325.407 128.323 324.301 128.408 323.096C128.492 321.89 128.677 320.577 128.823 319.172C128.968 317.767 129.145 316.263 129.322 314.666C129.421 313.898 129.49 313.046 129.613 312.209C129.736 311.372 129.882 310.512 130.013 309.637C130.289 307.871 130.576 306.028 130.872 304.109L131.103 302.658C131.203 302.167 131.302 301.675 131.395 301.184L132.001 298.151C132.208 297.13 132.416 296.078 132.623 295.019C132.83 293.959 133.045 292.877 133.329 291.802C133.841 289.626 134.384 287.397 134.957 285.115C137.565 275.23 140.79 265.52 144.615 256.04C148.547 246.605 153.055 237.421 158.113 228.538L161.621 222.611C162.174 221.644 162.773 220.723 163.364 219.817L165.099 217.137L166.804 214.558L167.617 213.298L168.462 212.093L171.686 207.525L173.222 205.391C173.713 204.707 174.228 204.062 174.711 203.417L177.468 199.817C178.32 198.719 179.088 197.667 179.855 196.723L181.967 194.166L184.907 190.642L185.675 189.736C185.762 189.631 185.854 189.531 185.951 189.437C185.951 189.437 185.875 189.552 185.706 189.759L184.938 190.696L182.059 194.266L179.971 196.838C179.203 197.774 178.435 198.849 177.583 199.97L174.857 203.586C174.381 204.231 173.867 204.876 173.376 205.567L171.886 207.702L168.692 212.308L167.848 213.521L167.042 214.78L165.376 217.375L163.648 220.062C163.065 220.968 162.458 221.89 161.913 222.857L158.427 228.784C153.394 237.662 148.902 246.835 144.976 256.255C141.163 265.707 137.94 275.386 135.325 285.237C134.757 287.541 134.212 289.744 133.675 291.909C133.391 292.984 133.176 294.059 132.968 295.126C132.761 296.193 132.538 297.222 132.331 298.251C132.124 299.28 131.924 300.286 131.717 301.268C131.617 301.767 131.517 302.259 131.425 302.742C131.333 303.226 131.264 303.71 131.187 304.193C130.88 306.113 130.581 307.948 130.304 309.706C130.158 310.589 130.02 311.441 129.89 312.278C129.759 313.115 129.682 313.936 129.583 314.735C129.398 316.324 129.214 317.806 129.053 319.226C128.892 320.646 128.7 321.936 128.608 323.142C128.515 324.347 128.423 325.445 128.347 326.443C128.178 328.416 128.055 329.952 127.97 331.011C127.917 331.526 127.886 331.917 127.855 332.201C127.824 332.485 127.809 332.608 127.809 332.608Z" fill="#F3F4F6"/>
<path d="M162.258 275.871C160.38 275.689 158.49 275.666 156.608 275.802C158.588 274.151 161.475 271.065 162.611 268.754C159.653 270.779 156.883 273.066 154.335 275.587C153.967 274.013 154.673 271.126 153.721 269.821C153.721 272.969 151.717 276.631 149.606 278.965C149.222 277.591 149.652 275.687 149.276 274.305C148.632 276.954 147.533 279.471 146.028 281.745C146.047 280.182 145.672 278.64 144.938 277.261C144.422 280.629 143.35 283.887 141.767 286.904C142.189 284.999 142.158 283.021 141.675 281.13C140.208 287.349 136.3 292.263 132.416 298.535C136.968 295.111 146.112 288.232 151.748 287.365C149.444 287.365 146.442 287.848 144.285 287.088C147.494 285.768 151.517 283.756 154.888 282.919C153.352 282.766 150.581 283.234 147.702 283.979C150.489 282.827 156.201 279.449 159.172 278.935C157.821 278.52 153.736 280.324 152.385 279.91C154.642 278.328 159.832 276.102 162.258 275.871Z" fill="#EBEBEB"/>
<path d="M154.742 276.961C154.444 277.243 154.123 277.5 153.782 277.729C153.145 278.198 152.247 278.881 151.118 279.748C145.295 284.224 139.997 289.345 135.325 295.011C134.427 296.094 133.705 296.985 133.222 297.606C132.993 297.938 132.736 298.248 132.454 298.535C132.649 298.174 132.875 297.829 133.13 297.507C133.575 296.862 134.258 295.971 135.133 294.827C139.716 289.041 145.047 283.891 150.988 279.51C152.124 278.674 153.068 278.021 153.729 277.599C154.046 277.355 154.385 277.142 154.742 276.961Z" fill="#F3F4F6"/>
<path d="M83.5786 265.184C85.4289 266.074 87.8934 266.911 90.3886 268.608C89.0374 265.399 87.5018 259.917 87.5709 256.439C89.5825 259.84 92.024 265.998 93.2447 269.76C94.6574 268.101 95.6094 264.201 97.5595 263.234C95.6017 266.996 95.7399 272.639 96.7917 276.738C98.1046 275.326 98.7726 272.777 100.085 271.364C99.2134 274.934 98.9692 278.628 99.3637 282.282C100.307 280.398 101.713 278.784 103.448 277.591C101.979 281.944 101.24 286.509 101.26 291.103C101.934 288.559 103.199 286.21 104.953 284.247C102.849 292.608 104.485 300.923 105.237 310.842C101.92 303.932 95.2562 289.998 89.022 285.468C91.786 286.85 95.0719 289.307 98.1276 289.767C95.1103 286.19 91.5326 281.284 88.0163 278.19C89.9664 278.957 92.976 281.261 95.9702 283.917C93.3445 280.808 88.5998 273.214 85.3521 270.758C87.2331 271.095 91.0105 275.794 92.8838 276.132C91.1794 272.846 86.3425 266.957 83.5786 265.184Z" fill="#EBEBEB"/>
<path d="M91.9083 271.149C91.9995 271.259 92.0769 271.38 92.1386 271.51L92.7452 272.577C93.2673 273.506 93.9813 274.88 94.8258 276.585C99.2007 285.523 102.386 294.996 104.3 304.761C104.661 306.627 104.914 308.155 105.068 309.207C105.139 309.719 105.193 310.125 105.229 310.427C105.251 310.567 105.251 310.71 105.229 310.85C105.181 310.715 105.145 310.576 105.121 310.435C105.06 310.12 104.983 309.721 104.883 309.23C104.692 308.186 104.392 306.673 104.001 304.815C102.959 299.971 101.649 295.188 100.077 290.489C98.4931 285.795 96.6476 281.195 94.5494 276.707C93.7356 274.98 93.0676 273.598 92.5839 272.646L92.0465 271.548C91.9792 271.423 91.9325 271.289 91.9083 271.149Z" fill="#F3F4F6"/>
<path d="M223.886 184.83L200.854 184.508L194.658 169.345L191.963 150.266C191.802 149.122 191.671 147.847 192.355 146.918C193.038 145.989 194.612 145.705 195.848 146.012C198.673 146.696 200.677 149.36 201.429 152.154C202.182 154.949 201.898 157.928 201.621 160.822C202.522 157.879 203.423 154.941 204.324 152.009C204.387 151.622 204.532 151.254 204.749 150.928C204.966 150.602 205.25 150.326 205.583 150.12C205.93 150.026 206.293 150.003 206.649 150.054C207.006 150.104 207.348 150.226 207.656 150.412C209.192 151.097 210.676 151.842 212.109 152.646C213.26 153.178 214.247 154.011 214.965 155.057C215.304 155.727 215.49 156.465 215.51 157.216C215.53 157.968 215.383 158.714 215.08 159.402C214.678 160.363 214.146 161.265 213.499 162.082C214.934 160.892 217.399 160.938 219.05 162.028C221.099 163.379 222.19 165.759 223.195 168.001C223.595 168.884 223.963 169.905 223.625 170.796C223.148 171.598 222.377 172.185 221.476 172.431L214.113 175.502C215.902 175.502 217.66 175.087 219.441 174.957C221.222 174.826 223.157 175.057 224.501 176.231C225.844 177.406 226.313 179.218 226.735 180.93C227.011 182.059 227.234 183.425 226.397 184.231C226.038 184.491 225.632 184.678 225.201 184.781C224.771 184.883 224.324 184.9 223.886 184.83Z" fill="#EBEBEB"/>
<path d="M188.155 176.539C193.767 171.825 193.859 171.387 194.181 168.093C194.243 167.487 193.859 166.911 194.373 166.558C195.087 166.112 198.02 167.587 198.727 168.093C199.763 168.817 200.526 169.869 200.894 171.079C201.261 172.288 201.212 173.587 200.753 174.765C201.584 174.532 202.45 174.446 203.31 174.512C203.742 174.547 204.157 174.691 204.518 174.93C204.879 175.169 205.174 175.495 205.375 175.878C205.463 176.072 205.511 176.282 205.516 176.495C205.521 176.708 205.483 176.92 205.404 177.118C205.326 177.316 205.208 177.496 205.057 177.647C204.907 177.798 204.728 177.917 204.531 177.997C207.299 179.579 209.442 182.061 210.604 185.03C207.587 184.592 204.623 186.02 202.089 187.702C199.556 189.383 197.176 191.402 194.304 192.408C192.454 193.042 190.481 193.234 188.544 192.967C186.607 192.7 184.759 191.983 183.149 190.873C182.658 188.254 182.861 185.553 183.74 183.038C184.618 180.523 186.14 178.282 188.155 176.539Z" fill="#F3F4F6"/>
<path d="M225.421 332.608C225.421 332.716 150.702 332.808 58.5559 332.808C-33.5905 332.808 -108.324 332.716 -108.324 332.608C-108.324 332.501 -33.5828 332.409 58.5483 332.409C150.679 332.409 225.421 332.493 225.421 332.608Z" fill="#F3F4F6"/>
<path d="M113.304 332.371C113.304 332.371 113.304 332.186 113.304 331.826C113.304 331.465 113.304 330.912 113.304 330.213C113.343 328.801 113.304 326.712 113.45 324.033C113.627 318.659 114.149 310.896 115.239 301.353C115.776 296.578 116.506 291.372 117.35 285.783C118.195 280.194 119.231 274.267 120.421 268.009C122.725 255.526 125.696 241.906 128.698 227.533C131.7 213.161 134.387 199.487 136.314 186.934C138.09 175.832 139.297 164.647 139.93 153.421C140.414 143.832 140.329 136.055 140.061 130.696C140.061 129.352 139.953 128.162 139.884 127.133C139.815 126.105 139.761 125.229 139.715 124.523L139.615 122.918C139.615 122.558 139.615 122.366 139.615 122.366C139.615 122.366 139.615 122.55 139.669 122.911C139.723 123.272 139.746 123.824 139.807 124.515C139.869 125.206 139.93 126.097 140.015 127.126C140.099 128.155 140.191 129.345 140.237 130.688C140.624 138.266 140.624 145.859 140.237 153.437C139.65 164.676 138.481 175.877 136.736 186.996C134.824 199.556 132.13 213.268 129.143 227.618C126.156 241.967 123.185 255.602 120.836 268.079C119.631 274.313 118.632 280.263 117.765 285.829C116.897 291.395 116.16 296.616 115.607 301.384C114.479 310.92 113.918 318.674 113.688 324.041C113.535 326.72 113.535 328.801 113.465 330.183C113.465 330.881 113.427 331.419 113.412 331.795C113.396 332.171 113.304 332.371 113.304 332.371Z" fill="#F3F4F6"/>
<path d="M121.22 94.0199C120.635 93.2467 119.874 92.6231 119.001 92.2003C116.859 91.3404 114.333 93.0448 113.627 95.2713C113.312 96.2771 113.197 97.4902 112.314 98.066C111.831 98.306 111.313 98.4692 110.779 98.5497C108.184 99.2406 106.717 102.281 107.086 104.945C107.454 107.609 109.259 109.882 111.316 111.617C113.374 113.352 115.738 114.688 117.819 116.408C121.09 119.087 123.585 122.611 126.779 125.383C129.973 128.154 136.483 130.826 140.537 129.606C132.007 120.653 129.259 103.417 121.22 94.0199Z" fill="#F3F4F6"/>
<path d="M159.232 94.6187C159.049 92.9664 158.573 91.3598 157.827 89.874C157.447 89.1357 156.882 88.5082 156.188 88.0522C155.494 87.5962 154.694 87.3272 153.865 87.2713C152.66 87.2713 151.493 87.9009 150.295 87.7703C148.046 87.5247 146.564 84.7914 144.307 84.8375C142.771 84.8375 141.573 86.2041 140.076 86.5496C137.635 87.1177 135.163 84.9527 132.729 85.5669C132.006 85.8015 131.355 86.2153 130.835 86.7698C130.316 87.3243 129.945 88.0013 129.758 88.7377C129.399 90.215 129.324 91.7468 129.535 93.2521C130.472 104.492 133.719 118.772 138.525 128.968L142.518 130.128C146.003 123.057 155.393 116.431 159.017 109.245C161.243 104.83 160.076 99.4863 159.232 94.6187Z" fill="#F3F4F6"/>
<path d="M180.415 114.181C180.484 112.838 180.185 111.256 178.979 110.665C178.411 110.396 177.743 110.396 177.198 110.089C176.3 109.59 176.016 108.438 175.993 107.417C176.085 106.397 175.983 105.368 175.693 104.385C175.01 102.795 172.975 102.166 171.286 102.519C169.625 103.009 168.097 103.87 166.818 105.037C158.204 111.801 146.211 121.805 140.952 129.744C148.411 131.712 156.246 131.768 163.732 129.905C167.747 129.031 171.513 127.262 174.749 124.73C177.889 122.066 180.192 118.266 180.415 114.181Z" fill="#F3F4F6"/>
<path d="M140.56 129.583C138.256 126.358 137.45 122.327 136.721 118.443C136.637 118.109 136.613 117.763 136.652 117.421C136.675 117.249 136.746 117.086 136.855 116.951C136.965 116.815 137.11 116.712 137.274 116.654C137.796 116.515 138.264 117.015 138.586 117.421L141.151 120.922C141.985 119.602 142.827 118.281 143.677 116.961C143.961 116.515 144.444 116.001 144.928 116.193C145.412 116.385 145.335 117.061 145.212 117.544C144.943 118.65 144.667 119.755 144.391 120.869C146.082 119.636 148.104 118.941 150.195 118.872C147.608 123.072 144.421 124.408 140.583 129.506" fill="#F3F4F6"/>
<path d="M160.108 110.45C159.876 110.729 159.619 110.986 159.34 111.218L157.121 113.145C155.263 114.78 152.737 117.091 150.05 119.755C147.363 122.419 144.99 124.891 143.248 126.665C142.38 127.548 141.674 128.262 141.175 128.746C140.94 129.008 140.683 129.249 140.407 129.467C140.608 129.168 140.84 128.89 141.098 128.638L143.086 126.473C144.775 124.653 147.117 122.151 149.812 119.479C152.507 116.807 155.063 114.527 156.975 112.937C157.935 112.17 158.718 111.517 159.278 111.102C159.531 110.857 159.809 110.638 160.108 110.45Z" fill="#F3F4F6"/>
<path d="M152.329 98.6264C152.32 98.946 152.271 99.2631 152.183 99.5707C152.06 100.17 151.861 101.037 151.584 102.097C150.853 104.862 149.953 107.58 148.89 110.235C147.83 112.893 146.612 115.485 145.243 117.997C144.713 118.957 144.268 119.724 143.938 120.239C143.784 120.512 143.604 120.769 143.4 121.007C143.503 120.704 143.637 120.414 143.799 120.139L144.997 117.836C145.988 115.893 147.3 113.16 148.521 110.066C149.742 106.972 150.694 104.093 151.308 101.997C151.6 101.006 151.838 100.177 152.03 99.5093C152.1 99.2058 152.2 98.9101 152.329 98.6264Z" fill="#F3F4F6"/>
<path d="M139.593 102.465C139.72 103.361 139.797 104.263 139.823 105.168C139.938 106.842 140.123 109.145 140.407 111.678C140.691 114.212 141.051 116.5 141.32 118.158C141.508 119.044 141.636 119.942 141.704 120.845C141.6 120.623 141.525 120.388 141.481 120.147C141.359 119.694 141.213 119.026 141.036 118.204C140.698 116.561 140.307 114.273 140.015 111.725C139.723 109.176 139.585 106.865 139.539 105.183C139.539 104.346 139.539 103.648 139.539 103.195C139.517 102.95 139.535 102.704 139.593 102.465Z" fill="#F3F4F6"/>
<path d="M139.27 128.976C138.295 127.682 137.427 126.311 136.675 124.876C135.806 123.51 135.051 122.075 134.418 120.585C135.392 121.878 136.262 123.246 137.02 124.677C137.889 126.045 138.642 127.483 139.27 128.976Z" fill="#F3F4F6"/>
<path d="M189.343 165.422C187.04 164.792 184.192 163.64 180.675 163.233C184.33 161.422 189.889 157.736 192.514 154.604C188.115 156.078 181.221 159.663 177.259 162.066C177.259 159.51 179.424 155.318 178.434 152.969C177.29 157.805 172.837 162.704 168.737 165.521C168.652 163.264 170.019 160.485 169.934 158.228C167.677 162.297 165.466 165.537 162.203 168.477C162.817 166.082 162.817 163.571 162.203 161.176C160.165 166.168 157.311 170.786 153.758 174.842C155.11 172.071 155.792 169.02 155.746 165.936C151.186 174.965 143.355 181.084 135.071 189.314C143.339 185.713 159.954 178.497 168.944 179.241C165.428 178.343 160.606 178.028 157.558 176.063C162.986 175.203 169.927 173.598 175.416 173.552C173.113 172.746 168.675 172.454 163.969 172.531C168.691 171.763 178.725 168.692 183.485 169.007C181.558 167.863 174.602 169.138 172.675 167.994C176.721 166.358 185.528 164.838 189.343 165.422Z" fill="#F3F4F6"/>
<path d="M177.382 164.285C177.239 164.376 177.087 164.45 176.929 164.508L175.601 165.068C174.441 165.537 172.783 166.243 170.741 167.149C165.445 169.519 160.285 172.182 155.286 175.126C150.269 178.089 145.424 181.334 140.775 184.846C138.994 186.189 137.573 187.303 136.598 188.093L135.47 188.984C135.342 189.096 135.203 189.193 135.055 189.276C135.159 189.142 135.281 189.024 135.416 188.922L136.499 187.97C137.443 187.149 138.84 185.997 140.598 184.615C145.2 181.035 150.023 177.751 155.04 174.78C160.065 171.819 165.276 169.185 170.641 166.895C172.698 166.02 174.38 165.36 175.562 164.922L176.913 164.431C177.065 164.369 177.222 164.32 177.382 164.285Z" fill="#F3F4F6"/>
<path d="M24.4764 332.471C24.4764 332.471 24.3766 332.325 24.2153 332.025L23.486 330.689C23.1712 330.091 22.7796 329.361 22.319 328.509L21.5512 327.112C21.3132 326.605 21.0675 326.06 20.7835 325.484L19.0023 321.645L17.1059 316.985C16.3996 315.327 15.8161 313.484 15.1097 311.564C14.4034 309.645 13.7661 307.572 13.0828 305.422C10.0004 295.25 7.51371 284.906 5.63558 274.443C3.39372 262.643 1.50503 249.576 -0.391333 235.856C-2.2877 222.136 -4.23012 209.076 -6.88656 197.36C-9.09976 186.968 -12.1816 176.78 -16.0997 166.903C-18.7867 160.249 -22.0546 153.844 -25.8656 147.763L-26.8022 146.228L-27.6928 144.922L-29.0901 142.888L-29.9424 141.621C-30.1343 141.337 -30.2188 141.183 -30.2188 141.183L-29.9117 141.598L-29.021 142.834L-27.593 144.853L-26.6871 146.143L-25.735 147.679C-21.8736 153.731 -18.5714 160.122 -15.8693 166.773C-11.8965 176.652 -8.77073 186.852 -6.52572 197.261C-3.88463 208.984 -1.8731 222.044 0.000230789 235.771C1.87356 249.499 3.7776 262.558 5.99643 274.351C7.8701 284.812 10.3386 295.158 13.3899 305.338C14.0656 307.503 14.6798 309.576 15.3861 311.48C16.0924 313.384 16.6529 315.242 17.3593 316.908C18.0656 318.574 18.6491 320.133 19.2172 321.568L20.96 325.407L21.7278 327.043C21.9888 327.542 22.2345 328.01 22.4572 328.448C22.9025 329.307 23.2787 330.044 23.5935 330.643L24.2768 331.995L24.4764 332.471Z" fill="#F3F4F6"/>
<path d="M113.061 120.384C110.842 121.306 107.894 122.119 104.861 123.939C106.657 120.277 108.823 113.958 108.976 109.881C106.389 113.72 103.118 120.776 101.437 125.098C99.9012 123.056 99.0413 118.427 96.8301 117.167C98.8724 121.705 98.3273 128.3 96.8301 133.029C95.3867 131.294 94.7725 128.262 93.3291 126.519C94.0278 131.125 94.2428 135.041 93.452 139.356C92.4705 137.089 90.9338 135.106 88.9837 133.59C90.4068 138.789 90.9619 144.187 90.6266 149.567C90.0134 146.545 88.6984 143.71 86.7879 141.29C88.6765 151.225 85.9356 159.855 84.3848 171.433C88.7456 163.532 97.7822 148.676 105.36 143.793C102.028 145.229 98.0202 147.916 94.404 148.216C98.1814 144.231 102.696 138.726 107.026 135.34C104.684 136.108 101.014 138.58 97.3292 141.482C100.615 138.027 106.68 129.444 110.65 126.787C108.423 127.064 103.686 132.308 101.437 132.584C103.648 128.853 109.705 122.281 113.061 120.384Z" fill="#F3F4F6"/>
<path d="M102.912 126.811C102.856 126.97 102.781 127.122 102.69 127.264L101.968 128.531C101.338 129.613 100.432 131.202 99.3729 133.176C96.5933 138.328 94.1019 143.631 91.9102 149.06C89.7374 154.497 87.8714 160.052 86.321 165.698C85.7221 167.863 85.2691 169.629 84.9774 170.849L84.6549 172.254C84.6203 172.42 84.5715 172.581 84.509 172.738C84.5112 172.57 84.5344 172.402 84.5781 172.239C84.6472 171.871 84.747 171.402 84.8622 170.819C85.1079 169.583 85.5148 167.809 86.0753 165.629C89.0167 154.252 93.403 143.299 99.1272 133.037C100.233 131.08 101.162 129.513 101.837 128.431C102.16 127.932 102.413 127.525 102.605 127.21C102.694 127.067 102.797 126.934 102.912 126.811Z" fill="#F3F4F6"/>
<path d="M69.4294 332.608C69.4294 332.608 69.4294 332.378 69.4294 331.925C69.4294 331.472 69.4294 330.796 69.391 329.929C69.391 328.171 69.391 325.583 69.5369 322.251C69.6444 315.549 71.5561 306.052 73.3296 294.266C74.2126 288.37 75.249 281.921 76.1934 274.973C76.6617 271.502 77.2145 267.917 77.6752 264.224C78.1358 260.531 78.6272 256.708 79.1262 252.8C80.9765 237.145 82.6502 219.878 83.5178 201.713C83.6099 199.41 83.7021 197.176 83.7942 194.934C83.8863 192.692 84.0015 190.458 83.9938 188.247C84.0399 183.817 84.0859 179.448 84.132 175.195C84.0399 170.9 83.9503 166.691 83.8633 162.565C83.8633 160.5 83.7021 158.465 83.5946 156.423C83.4871 154.381 83.3643 152.415 83.2491 150.45C83.1339 148.484 83.0571 146.534 82.8959 144.623C82.7347 142.711 82.5274 140.822 82.3508 138.964C82.1742 137.106 81.9976 135.279 81.8211 133.475C81.7366 132.576 81.6522 131.678 81.5677 130.795C81.4832 129.912 81.3297 129.029 81.2145 128.162C80.7385 124.692 80.2702 121.336 79.8249 118.12C79.7097 117.313 79.6022 116.515 79.4947 115.724C79.3873 114.933 79.2107 114.189 79.0725 113.421C78.7859 111.885 78.5094 110.386 78.2433 108.922C77.6956 105.989 77.1838 103.202 76.7078 100.561C76.0936 97.9429 75.5101 95.4784 74.9727 93.1751C74.4352 90.8718 73.9285 88.7221 73.4371 86.749C72.9458 84.7758 72.3853 83.0177 71.94 81.3747L69.8287 73.9965C69.5907 73.1596 69.4141 72.5147 69.2912 72.0694C69.1684 71.6241 69.1223 71.4091 69.1223 71.4091C69.1223 71.4091 69.1991 71.6318 69.3296 72.0617L69.9054 73.9735L72.0859 81.3363C72.5465 82.9409 73.1223 84.7067 73.6214 86.6722C74.1204 88.6376 74.6041 90.7874 75.1569 93.0906C75.7097 95.3939 76.3009 97.8661 76.9227 100.476C77.4346 103.118 77.9618 105.905 78.5043 108.837C78.7807 110.304 79.0648 111.809 79.3489 113.336C79.4871 114.104 79.6483 114.872 79.7788 115.64C79.9093 116.407 80.0015 117.229 80.1166 118.035C80.5722 121.26 81.0431 124.61 81.5293 128.085C81.6445 128.953 81.7904 129.828 81.8825 130.711C81.9746 131.594 82.0591 132.5 82.1435 133.398C82.3201 135.202 82.5044 137.037 82.6809 138.895C82.8575 140.753 83.0495 142.642 83.2337 144.554C83.418 146.465 83.4794 148.392 83.6023 150.388C83.7251 152.385 83.8326 154.35 83.9554 156.362C84.0783 158.373 84.2165 160.423 84.2318 162.504C84.324 166.629 84.4161 170.839 84.5082 175.133C84.4621 179.428 84.4186 183.794 84.3777 188.231C84.3777 190.45 84.2625 192.677 84.1781 194.926C84.0936 197.176 83.9938 199.433 83.9017 201.705C83.0341 219.894 81.345 237.161 79.4717 252.815C78.9599 256.731 78.4711 260.541 78.0053 264.247C77.5446 267.955 76.9842 271.541 76.4698 274.996C75.5101 281.944 74.4659 288.393 73.5676 294.29C71.7481 306.075 69.7979 315.556 69.6521 322.236C69.4755 325.568 69.4371 328.155 69.4294 329.914C69.4294 330.781 69.4294 331.449 69.4294 331.91C69.4294 332.37 69.4294 332.608 69.4294 332.608Z" fill="#F3F4F6"/>
<path d="M22.219 47.0328C22.219 47.0328 20.7603 42.8024 26.3112 38.3187C27.061 37.7227 27.9906 37.3982 28.9485 37.3982C29.9063 37.3982 30.8359 37.7227 31.5857 38.3187C33.1279 39.4621 34.5458 40.7642 35.8161 42.2036C35.8161 42.2036 33.436 34.4876 36.5838 32.2227C39.7316 29.9578 44.7681 33.4127 44.7681 33.4127C44.7681 33.4127 43.7086 29.0519 46.7489 27.071C49.7893 25.0902 52.6837 22.8484 55.0638 24.1689C56.3098 24.8488 57.5077 25.6132 58.6492 26.4568C58.6492 26.4568 57.1981 21.3129 58.6492 19.8618C60.1003 18.4107 69.2136 12.8598 73.6973 15.5009C78.181 18.142 83.3326 25.9348 83.3326 25.9348C83.3326 25.9348 79.6397 18.7793 82.2808 17.8579C84.9219 16.9366 86.2424 16.5374 87.824 19.1785C89.4056 21.8196 93.6283 22.7409 93.8663 34.1344C94.1043 45.528 81.7203 67.6624 81.7203 67.6624L57.9198 74.5262L22.219 47.0328Z" fill="#F3F4F6"/>
<g opacity="0.3">
<path d="M92.9304 28.0691C90.4399 30.2602 88.5179 33.0227 87.3291 36.1196C86.1403 39.2165 85.7203 42.5555 86.1051 45.8504L85.7135 52.6527C88.3008 49.0135 90.9036 45.3129 92.5082 41.1363C94.1128 36.9597 94.6349 32.2073 92.9304 28.0691Z" fill="#F3F4F6"/>
</g>
<g opacity="0.3">
<path d="M55.2261 63.6703C54.5274 61.9812 53.1378 60.6837 51.7942 59.4476C49.4909 57.3593 47.1876 55.2633 44.823 53.3055C41.6839 50.62 38.2072 48.3564 34.4812 46.5723C30.7396 44.7816 26.6078 43.9605 22.4658 44.1846L30.0897 47.6548C38.5964 54.5647 46.727 60.7682 54.2664 68.6761C55.7251 67.5705 55.9324 65.3594 55.2261 63.6703Z" fill="#F3F4F6"/>
</g>
<path d="M51.4484 65.4439C51.4484 65.4439 30.4656 44.7912 22.3657 44.2154C15.0567 43.6933 14.0893 52.0696 18.4732 57.6051C21.7822 61.7817 32.9838 75.0486 46.1125 79.7933C49.0029 80.8197 52.069 81.2593 55.1313 81.0866C58.1937 80.9139 61.1909 80.1324 63.9476 78.7876C66.9265 77.3596 70.5733 75.7165 72.3929 75.3634C75.8555 74.6724 82.3123 78.3576 94.0744 64.9833C105.836 51.6089 104.447 49.298 104.915 44.6837C105.384 40.0695 106.067 33.843 107.679 30.6184C109.291 27.3938 110.681 23.9312 107.679 22.0809C104.677 20.2306 100.531 21.6203 95.917 28.0771C91.3028 34.534 86.4583 46.9947 86.4583 46.9947C86.4583 46.9947 86.4583 28.3074 80.4621 27.8468C74.4659 27.3861 73.7749 29.4668 73.7749 29.4668C73.7749 29.4668 68.4697 24.8602 65.2451 26.9255C62.0205 28.9907 59.9399 33.8353 59.9399 33.8353C59.9399 33.8353 52.3237 29.6894 48.4235 34.7643C44.5233 39.8392 43.1183 39.8315 44.2699 45.8277C45.4215 51.8239 51.4484 65.4439 51.4484 65.4439Z" fill="#F3F4F6"/>
<path d="M51.4483 65.4441C51.4483 65.4441 49.5826 61.5055 46.7726 54.0889C46.0817 52.231 45.3369 50.1503 44.6843 47.8163C44.3369 46.601 44.0803 45.3615 43.9166 44.1081C43.6527 42.7391 43.7913 41.323 44.3158 40.0313C45.0544 38.7576 45.9297 37.5682 46.9262 36.4842C47.4022 35.9007 47.8782 35.3019 48.3619 34.6877C48.6306 34.3959 48.8917 34.0965 49.1757 33.8047C49.489 33.5453 49.8171 33.3043 50.1585 33.0831C51.6399 32.2615 53.349 31.9461 55.0261 32.1848C56.7767 32.3989 58.4762 32.9186 60.0472 33.7203L59.8553 33.7894C60.4444 32.482 61.1592 31.2349 61.9896 30.0658C62.8407 28.8113 63.9094 27.7192 65.1451 26.8412C65.8352 26.4152 66.6385 26.209 67.4484 26.25C68.2414 26.3004 69.0202 26.4847 69.7517 26.7951C71.2584 27.4273 72.6593 28.2869 73.9052 29.3441L73.6442 29.4132C73.9343 28.8963 74.396 28.497 74.9494 28.2846C75.4627 28.0519 76.005 27.8892 76.5617 27.8009C77.6838 27.6253 78.8221 27.5764 79.9552 27.655C80.549 27.6461 81.137 27.7721 81.675 28.0235C82.2005 28.3222 82.6643 28.7183 83.0416 29.1905C83.7488 30.1545 84.2982 31.2248 84.6692 32.3614C85.4232 34.6846 85.9327 37.0802 86.1894 39.5092C86.4863 42.0042 86.6503 44.5132 86.6808 47.0256L86.3276 46.9565C88.2253 42.1167 90.4044 37.3921 92.8535 32.8067C94.1132 30.4018 95.6129 28.1305 97.3296 26.0274C98.2146 24.9531 99.2105 23.9751 100.301 23.1099C101.402 22.2049 102.702 21.5735 104.094 21.2672C104.813 21.1274 105.554 21.1421 106.267 21.3102C106.981 21.4782 107.65 21.796 108.232 22.2423C108.834 22.6933 109.279 23.3216 109.506 24.0389C109.703 24.7572 109.731 25.511 109.591 26.2423C109.283 27.6546 108.785 29.0183 108.109 30.2961C107.47 31.5788 106.99 32.9351 106.681 34.3345C106.052 37.1852 105.604 40.0725 105.337 42.9795C105.261 43.7088 105.176 44.4459 105.122 45.1753C105.069 45.9046 105.023 46.657 104.969 47.4018C104.869 48.9121 104.505 50.3933 103.894 51.778C102.714 54.2685 101.248 56.6132 99.5254 58.7646C97.8747 60.9297 96.1165 62.9873 94.3584 65.0141C92.6049 67.0302 90.6922 68.9019 88.6385 70.6111C86.6165 72.3154 84.3256 73.6723 81.8592 74.6265C80.6215 75.0728 79.3312 75.3566 78.0204 75.471C76.7422 75.5548 75.4599 75.5548 74.1816 75.471C73.5749 75.4373 72.9663 75.4785 72.3697 75.5939C71.7617 75.7346 71.164 75.9167 70.5809 76.139C69.4062 76.5689 68.2776 77.0603 67.1106 77.567C64.8073 78.5574 62.6576 79.7935 60.2545 80.4154C57.9122 81.0842 55.4797 81.3821 53.0452 81.2983C51.8494 81.2547 50.6586 81.1213 49.4828 80.8991C48.3281 80.6691 47.1914 80.356 46.0817 79.9624C43.9253 79.1545 41.84 78.1684 39.8475 77.0142C36.0446 74.8057 32.4878 72.1985 29.237 69.2368C26.1834 66.5008 23.3159 63.564 20.6535 60.446C19.3409 59.0287 18.1708 57.4857 17.1602 55.8394C16.2514 54.193 15.7685 52.3456 15.7552 50.4651C15.713 49.5653 15.8584 48.6665 16.1822 47.8258C16.506 46.9852 17.0012 46.2211 17.6362 45.5822C18.2752 44.9912 19.0466 44.562 19.8857 44.3307C20.3003 44.2463 20.7226 44.1772 21.1372 44.1234H22.3809C23.9641 44.3567 25.4914 44.877 26.8877 45.6589C28.2093 46.3545 29.4909 47.1234 30.7265 47.9622C34.7723 50.7335 38.6417 53.7541 42.312 57.0064C45.383 59.6552 47.6863 61.7972 49.2218 63.256L50.8725 64.8452C51.264 65.2291 51.4483 65.4364 51.4483 65.4364L50.8494 64.8759L49.0836 63.2253C47.5481 61.7819 45.2448 59.6629 42.1738 57.0295C38.4891 53.806 34.6125 50.8088 30.5653 48.0543C29.3248 47.2419 28.0435 46.4937 26.7265 45.8125C25.3576 45.0534 23.8615 44.5512 22.3119 44.3307H21.0988C20.6996 44.3921 20.3003 44.4612 19.9011 44.538C19.1041 44.7608 18.3722 45.1716 17.7667 45.7357C17.1573 46.3473 16.6837 47.0805 16.3768 47.8875C16.0699 48.6945 15.9366 49.5571 15.9855 50.419C16.003 52.2498 16.4781 54.0472 17.3675 55.6475C18.3714 57.2924 19.5337 58.8353 20.8378 60.254C23.4936 63.3562 26.3562 66.2752 29.4059 68.9911C32.6415 71.9321 36.1802 74.5212 39.9626 76.7148C41.9416 77.8559 44.0113 78.8317 46.1508 79.6323C47.2434 80.0182 48.362 80.3261 49.4982 80.5536C50.6543 80.7665 51.8244 80.8948 52.9992 80.9375C55.3932 81.01 57.7839 80.7095 60.0856 80.0469C62.4349 79.4327 64.5923 78.2119 66.8879 77.2062C68.0319 76.6994 69.1912 76.2004 70.3812 75.7704C70.9813 75.5454 71.5939 75.3557 72.2162 75.2023C72.8566 75.0852 73.5085 75.044 74.1586 75.0795C75.4368 75.165 76.7192 75.165 77.9974 75.0795C79.2686 74.9661 80.5201 74.69 81.721 74.258C84.1462 73.3184 86.3983 71.9822 88.3852 70.304C90.4192 68.6081 92.3139 66.7519 94.0512 64.7531C95.8094 62.7339 97.5599 60.6763 99.2029 58.5266C100.899 56.3946 102.347 54.0764 103.518 51.6168C104.113 50.2685 104.466 48.8263 104.562 47.3557C104.616 46.5879 104.662 45.8739 104.715 45.1369C104.769 44.3998 104.854 43.6628 104.93 42.9257C105.204 40.0034 105.657 37.1009 106.289 34.2347C106.604 32.8057 107.094 31.4209 107.748 30.1118C108.422 28.8637 108.918 27.5277 109.222 26.1425C109.354 25.473 109.33 24.7823 109.153 24.1233C108.952 23.4823 108.555 22.9208 108.017 22.5187C107.476 22.1069 106.855 21.8141 106.193 21.6593C105.532 21.5045 104.845 21.4912 104.178 21.6204C102.845 21.9149 101.601 22.52 100.546 23.3863C99.4827 24.2351 98.5101 25.1923 97.6444 26.2423C95.9399 28.326 94.4505 30.5768 93.199 32.9602C90.7558 37.5291 88.5794 42.2356 86.6808 47.0563L86.3429 47.9085V46.9948C86.315 44.4979 86.1536 42.0042 85.8593 39.5245C85.6107 37.1284 85.1167 34.7641 84.3851 32.4688C84.0276 31.3678 83.4963 30.331 82.8113 29.3978C82.4675 28.962 82.0425 28.5969 81.5598 28.323C81.0619 28.093 80.5189 27.9776 79.9705 27.9851C78.8658 27.9073 77.7559 27.9536 76.6615 28.1233C76.133 28.2106 75.6172 28.3627 75.126 28.5763C74.6484 28.7594 74.244 29.0937 73.9743 29.5283L73.8745 29.7356L73.7133 29.5974C72.4979 28.5628 71.1307 27.7213 69.6595 27.1022C68.9515 26.7963 68.1953 26.617 67.4254 26.5725C66.6834 26.5338 65.9472 26.7212 65.314 27.1099C64.1111 27.9649 63.071 29.0284 62.243 30.25C61.4112 31.3981 60.6889 32.6216 60.0856 33.9046L60.0242 34.0351L59.8936 33.966C58.3574 33.166 56.6909 32.6461 54.9723 32.4305C53.3535 32.195 51.7019 32.4914 50.266 33.275C48.8686 34.0428 48.0932 35.4938 47.0797 36.6071C46.0945 37.6763 45.2295 38.8503 44.5001 40.108C43.9842 41.3562 43.8454 42.7282 44.1008 44.0543C44.2654 45.3025 44.522 46.5369 44.8686 47.7473C45.5058 50.0505 46.2506 52.1542 46.9262 54.0122C48.2928 57.7358 49.4598 60.5688 50.2506 62.4575C50.6422 63.4095 50.9492 64.1389 51.1565 64.6379L51.3869 65.1907L51.4483 65.4441Z" fill="#F3F4F6"/>
<path d="M76.6851 75.34C76.8298 74.9682 77.0044 74.6087 77.2071 74.2651C77.5757 73.5818 78.0747 72.5914 78.6736 71.3553C80.2315 68.1257 81.5604 64.7905 82.6506 61.3745C83.7251 57.9742 84.6195 54.5196 85.33 51.0251C85.5911 49.7353 85.806 48.6604 85.9673 47.8312C86.021 47.4348 86.111 47.0442 86.236 46.6642C86.2296 47.0659 86.1911 47.4664 86.1208 47.8619C86.021 48.6297 85.8521 49.7276 85.6064 51.0788C84.9774 54.6167 84.1183 58.1097 83.0344 61.5357C81.9396 64.9691 80.5659 68.3071 78.9269 71.5166C78.2974 72.7373 77.7523 73.7124 77.3453 74.3649C77.1547 74.709 76.9337 75.0353 76.6851 75.34Z" fill="#F3F4F6"/>
<path d="M66.6271 43.4859C66.7639 43.8772 66.8743 44.2774 66.9572 44.6836C67.1492 45.4513 67.4025 46.58 67.6866 47.9696C68.2701 50.7566 68.9764 54.6261 69.5753 58.9255C70.1741 63.225 70.5427 67.1405 70.7423 69.9812C70.8421 71.4016 70.9112 72.5456 70.9342 73.344C70.9661 73.7554 70.9661 74.1687 70.9342 74.5801C70.8438 74.1763 70.7898 73.7652 70.773 73.3517C70.6885 72.4918 70.5887 71.3632 70.4582 70.0043C70.1818 67.1789 69.7672 63.271 69.1684 58.9793C68.5695 54.6875 67.9169 50.818 67.4025 48.0233C67.1568 46.6798 66.9495 45.5665 66.796 44.7143C66.7033 44.3106 66.6468 43.8996 66.6271 43.4859Z" fill="#F3F4F6"/>
<path d="M61.0215 31.5012C60.4152 30.6356 59.886 29.7184 59.4399 28.7603C58.8727 27.8801 58.3821 26.9528 57.9735 25.9887C58.7239 26.7375 59.3395 27.6102 59.7931 28.5684C60.3633 29.4706 60.7785 30.4619 61.0215 31.5012Z" fill="#F3F4F6"/>
<path d="M56.1007 78.488C55.8614 78.4093 55.6341 78.2982 55.425 78.1578C55.0028 77.9275 54.4039 77.5666 53.6745 77.106C51.7786 75.8935 49.9815 74.5329 48.3002 73.0369C46.6158 71.5275 45.0926 69.8473 43.7551 68.0234C43.2561 67.3171 42.8722 66.7336 42.6265 66.3113C42.4836 66.1041 42.3676 65.8797 42.281 65.6433C42.3424 65.6433 42.9259 66.4956 43.9854 67.8545C45.3772 69.612 46.9184 71.2458 48.592 72.7374C50.2718 74.218 52.0382 75.5973 53.8818 76.868C54.6499 77.3679 55.3905 77.9087 56.1007 78.488Z" fill="#F3F4F6"/>
<path d="M132.547 61.3441C132.547 61.3441 132.501 61.4669 132.386 61.6973L131.879 62.6953L129.891 66.5341C128.14 69.8662 125.622 74.6724 122.52 80.5995L111.526 101.452C107.403 109.291 102.812 117.913 99.1344 127.456C95.4568 136.999 93.5374 146.611 92.2245 155.364C90.9117 164.116 90.0594 172.078 88.9616 178.704C88.1636 183.944 87.0379 189.129 85.5911 194.228C85.1074 196.047 84.6007 197.414 84.2936 198.351C84.1298 198.806 84.007 199.159 83.9251 199.41C83.8406 199.648 83.7869 199.771 83.7869 199.771C83.8125 199.646 83.8458 199.523 83.8867 199.402C83.9635 199.141 84.0709 198.788 84.2168 198.328C84.5009 197.383 84.9846 196.024 85.4452 194.189C86.8281 189.08 87.91 183.894 88.6852 178.658C89.7447 172.04 90.6046 164.07 91.856 155.31C93.1075 146.55 94.9885 136.884 98.7658 127.31C102.543 117.736 107.073 109.114 111.211 101.275L122.267 80.469L129.753 66.4574C130.643 64.822 131.334 63.5399 131.81 62.657L132.355 61.6742C132.478 61.4516 132.547 61.3441 132.547 61.3441Z" fill="#F3F4F6"/>
<path d="M168.739 46.2879L146.474 52.3532L136.332 39.5086C133.712 33.6429 131.091 27.7798 128.471 21.9192C127.995 20.8674 127.518 19.6774 127.925 18.5949C128.332 17.5123 129.753 16.806 130.996 16.7522C133.899 16.6294 136.563 18.6409 138.06 21.1285C139.557 23.616 140.11 26.5488 140.64 29.4126L140.801 20.1995C140.754 19.8101 140.791 19.4153 140.911 19.0417C141.03 18.6681 141.228 18.3246 141.492 18.0344C141.8 17.8491 142.142 17.7278 142.499 17.6777C142.855 17.6276 143.217 17.6497 143.565 17.7426C145.208 17.9806 146.843 18.2801 148.455 18.6639C149.712 18.8579 150.893 19.3885 151.872 20.1995C152.384 20.7504 152.767 21.408 152.994 22.1249C153.221 22.8418 153.286 23.6002 153.185 24.3454C153.067 25.3788 152.809 26.3914 152.417 27.355C153.461 25.8195 155.841 25.1745 157.73 25.7734C160.079 26.5412 161.776 28.4913 163.373 30.3799C163.995 31.1477 164.67 31.9846 164.555 32.9519C164.314 33.8306 163.745 34.5834 162.966 35.0556L156.724 40.0076C158.451 39.547 160.018 38.6334 161.699 38.0115C163.381 37.3896 165.292 37.0825 166.912 37.8426C168.532 38.6026 169.477 40.2073 170.359 41.7351C170.935 42.7409 171.526 43.9923 170.943 45.0058C170.405 45.7051 169.613 46.1655 168.739 46.2879Z" fill="#F3F4F6"/>
<path d="M148.247 45.075C148.419 44.943 148.562 44.7769 148.668 44.5871C148.773 44.3973 148.838 44.1879 148.859 43.9718C148.88 43.7557 148.856 43.5377 148.789 43.3312C148.722 43.1248 148.613 42.9343 148.469 42.7717C148.173 42.4555 147.801 42.2194 147.389 42.0852C146.977 41.9509 146.538 41.923 146.112 42.004C145.266 42.184 144.456 42.5059 143.717 42.956C143.822 41.7062 143.507 40.457 142.821 39.4068C142.135 38.3567 141.118 37.5657 139.932 37.1594C139.126 36.9061 135.901 36.2918 135.325 36.9214C134.918 37.3744 135.448 37.8274 135.556 38.4569C136.154 41.7045 136.185 42.1575 132.101 48.2382C130.648 50.4643 129.805 53.0322 129.654 55.6859C129.503 58.3397 130.05 60.9866 131.241 63.363C133.091 63.9953 135.064 64.1857 137.001 63.9191C138.938 63.6524 140.786 62.9361 142.396 61.8275C144.876 60.0693 146.611 57.4743 148.538 55.148C150.466 52.8217 152.961 50.6413 155.978 50.2267C154.064 47.6774 151.336 45.8596 148.247 45.075Z" fill="#F3F4F6"/>
<path d="M121.437 241.744C119.333 240.577 116.83 238.773 113.552 237.529C117.537 236.654 123.832 234.419 127.118 232.001C122.512 232.377 114.942 234.197 110.512 235.571C111.141 233.099 114.243 229.552 113.844 227.026C111.54 231.448 106.074 235.126 101.414 236.876C101.874 234.665 103.871 232.27 104.331 230.089C101.16 233.498 98.2352 236.101 94.3504 238.174C95.5123 235.991 96.1063 233.552 96.0778 231.08C92.9156 235.428 89.0554 239.224 84.6536 242.312C86.6329 239.945 88.0293 237.147 88.7304 234.143C82.1276 241.821 73.6593 245.037 63.64 251.034C72.5307 249.498 89.7899 247.356 98.3273 250.266C95.1335 248.554 90.5346 247.087 88.0471 244.446C93.5212 244.922 100.646 245.03 105.99 246.312C103.917 244.968 99.7093 243.617 95.1258 242.558C99.8782 242.98 110.366 242.389 114.911 243.832C113.322 242.297 106.258 241.821 104.669 240.254C108.953 239.648 117.867 240.3 121.437 241.744Z" fill="#F3F4F6"/>
<path d="M110.089 237.798C109.926 237.849 109.759 237.885 109.59 237.905L108.162 238.128C106.918 238.304 105.091 238.596 102.903 238.988C91.3528 241.027 80.0767 244.392 69.2978 249.015C67.2249 249.898 65.5665 250.642 64.4302 251.172L63.1097 251.771C62.9581 251.849 62.7985 251.911 62.6337 251.955C62.7691 251.854 62.9159 251.769 63.0713 251.702L64.3611 251.034C65.4821 250.458 67.1251 249.675 69.1826 248.731C79.9199 243.954 91.2271 240.579 102.826 238.688C105.052 238.327 106.857 238.082 108.108 237.921L109.551 237.767C109.731 237.754 109.912 237.765 110.089 237.798Z" fill="#F3F4F6"/>
<path d="M109.106 207.333L108.938 207.494L108.423 207.94L106.419 209.621C105.544 210.351 104.477 211.233 103.256 212.293C102.035 213.352 100.623 214.519 99.1025 215.871C96.0315 218.535 92.446 221.775 88.5305 225.445C84.6149 229.115 80.3999 233.253 76.0774 237.729C71.7549 242.205 67.7626 246.504 64.2079 250.527C60.6532 254.55 57.5361 258.205 54.9948 261.391C53.6973 262.927 52.561 264.401 51.5476 265.652C50.5341 266.904 49.6742 268.002 48.9756 268.9C48.2769 269.798 47.7471 270.435 47.3556 270.95L46.9256 271.479C46.8258 271.595 46.7798 271.656 46.7721 271.648C46.8065 271.58 46.8477 271.516 46.8949 271.456L47.2942 270.904L48.8297 268.8C49.513 267.894 50.3652 266.781 51.3479 265.514C52.3307 264.247 53.4669 262.788 54.7568 261.215C57.2981 258.044 60.4075 254.305 63.9699 250.282C67.5323 246.259 71.517 241.882 75.8318 237.422C80.1466 232.961 84.3923 228.853 88.3155 225.176C92.2388 221.498 95.8626 218.266 98.9567 215.656C100.492 214.32 101.913 213.153 103.149 212.124C104.385 211.095 105.452 210.205 106.358 209.498L108.408 207.878C108.63 207.702 108.807 207.564 108.953 207.464C109.099 207.364 109.099 207.326 109.106 207.333Z" fill="#F3F4F6"/>
<path d="M142.626 183.525C141.543 179.502 137.52 181.513 137.52 181.513C138.157 180.577 138.627 179.538 138.91 178.442C139.063 177.206 135.071 173.183 135.071 173.183L131.67 175.816C131.67 175.816 131.977 172.262 132.438 169.782C132.898 167.302 127.463 166.227 122.664 164.062C117.866 161.897 116.99 169.882 116.99 170.496L115.178 175.333L113.059 181.206L119.532 203.632C119.532 203.632 135.946 197.129 136.868 196.723C137.789 196.316 145.843 191.548 145.843 190.934C145.843 190.319 143.708 187.548 142.626 183.525Z" fill="#F3F4F6"/>
<g opacity="0.3">
<path d="M145.122 190.105C144.992 189.841 144.805 189.609 144.576 189.425C144.347 189.241 144.08 189.109 143.794 189.038C141.142 188.011 138.302 187.561 135.462 187.717C132.623 187.873 129.849 188.632 127.326 189.944C125.667 181.582 122.766 173.516 118.719 166.013L118.504 168.784C119.891 180.101 121.278 191.423 122.666 202.75C130.559 201.023 137.911 197.391 144.078 192.17C144.7 191.641 145.384 190.888 145.122 190.105Z" fill="#F3F4F6"/>
</g>
<path d="M159.263 198.128L152.499 200.431L154.803 195.057C152.738 192.941 150.223 191.318 147.445 190.308C144.667 189.298 141.698 188.926 138.756 189.222C132.898 189.859 124.069 195.494 114.572 199.655L103.754 209.736C107.695 213.637 112.678 216.318 118.105 217.458C123.532 218.598 129.172 218.148 134.349 216.162C139.685 214.012 144.33 210.235 149.897 208.723C151.9 208.185 153.981 207.955 155.946 207.279C157.912 206.604 159.785 205.406 160.707 203.533C161.628 201.659 161.106 199.08 159.263 198.128Z" fill="#F3F4F6"/>
<path d="M108.944 211.325C103.838 211.909 98.7482 208.853 95.9919 204.507C93.2357 200.162 92.5754 194.757 93.1282 189.636C93.681 184.515 95.3777 179.609 97.0591 174.749C98.9427 169.293 100.826 163.839 102.71 158.388C103.316 156.615 104.33 154.549 106.203 154.442C108.414 154.334 109.52 157.037 109.973 159.21C110.426 157.213 113.359 156.791 114.994 158.012C116.629 159.233 117.297 161.352 117.804 163.317L121.95 178.511C123.178 183.01 124.414 187.548 124.637 192.208C124.86 196.868 123.961 201.705 121.282 205.513C118.602 209.321 113.888 211.886 109.282 211.218" fill="#F3F4F6"/>
<path d="M109.283 211.218C109.283 211.218 109.766 211.287 110.68 211.272C112.022 211.263 113.353 211.019 114.611 210.55C116.604 209.807 118.398 208.614 119.855 207.064C121.765 204.983 123.113 202.449 123.77 199.701C124.573 196.371 124.732 192.918 124.239 189.529C123.639 185.633 122.764 181.785 121.62 178.012L118.15 165.337C117.843 164.246 117.559 163.118 117.214 162.028C116.905 160.914 116.383 159.872 115.678 158.957C115.323 158.516 114.882 158.152 114.381 157.889C113.868 157.645 113.305 157.524 112.737 157.536C112.17 157.541 111.613 157.689 111.118 157.966C110.88 158.107 110.673 158.293 110.508 158.515C110.343 158.736 110.224 158.988 110.158 159.256L109.951 160.108L109.766 159.256C109.576 158.297 109.253 157.369 108.807 156.5C108.538 155.963 108.155 155.491 107.686 155.118C107.227 154.763 106.65 154.598 106.073 154.657C105.487 154.724 104.943 154.996 104.538 155.425C104.126 155.85 103.784 156.337 103.524 156.868C103.03 157.968 102.602 159.096 102.242 160.246C101.853 161.393 101.462 162.521 101.068 163.632C99.5321 168.116 97.9965 172.431 96.6069 176.546C95.1862 180.408 94.1322 184.394 93.4591 188.454C92.8958 191.978 93.0341 195.578 93.866 199.049C94.5451 201.925 95.9425 204.583 97.9274 206.773C99.4529 208.401 101.32 209.673 103.394 210.496C104.705 211.009 106.094 211.295 107.501 211.341C108.469 211.379 108.975 211.287 108.975 211.341L108.607 211.387C108.24 211.43 107.871 211.448 107.501 211.441C106.078 211.429 104.667 211.169 103.332 210.673C101.223 209.865 99.3209 208.596 97.7662 206.957C95.7334 204.751 94.2961 202.064 93.5896 199.149C92.7363 195.63 92.5901 191.976 93.1597 188.4C93.8382 184.32 94.8972 180.313 96.3228 176.431C97.7432 172.316 99.2249 167.985 100.768 163.517C101.16 162.396 101.536 161.267 101.935 160.124C102.302 158.957 102.737 157.814 103.24 156.699C103.518 156.132 103.887 155.613 104.331 155.164C104.797 154.683 105.415 154.379 106.081 154.304C106.757 154.228 107.435 154.421 107.97 154.841C108.491 155.255 108.913 155.78 109.206 156.377C109.668 157.281 110.004 158.245 110.204 159.241H109.812C109.891 158.921 110.033 158.621 110.229 158.357C110.426 158.093 110.673 157.872 110.956 157.705C111.511 157.39 112.138 157.22 112.776 157.214C113.408 157.199 114.035 157.336 114.603 157.613C115.153 157.902 115.639 158.299 116.031 158.78C116.758 159.735 117.297 160.818 117.62 161.974C117.974 163.095 118.25 164.208 118.557 165.306L122.004 177.982C123.146 181.778 124.011 185.653 124.592 189.575C125.08 193.006 124.902 196.499 124.07 199.863C123.381 202.644 121.997 205.204 120.047 207.302C118.548 208.861 116.708 210.052 114.672 210.78C113.395 211.239 112.045 211.462 110.688 211.441C110.338 211.434 109.989 211.405 109.643 211.356L109.283 211.218Z" fill="#F3F4F6"/>
<path d="M124.408 195.218C124.486 195.134 124.574 195.059 124.669 194.995C124.846 194.857 125.114 194.665 125.437 194.427C126.143 193.951 127.172 193.275 128.508 192.538C130.065 191.68 131.669 190.911 133.314 190.235C135.324 189.343 137.466 188.786 139.656 188.584C140.8 188.617 141.938 188.774 143.049 189.053C144.116 189.291 145.137 189.575 146.12 189.889C147.824 190.426 149.472 191.126 151.042 191.978C152.106 192.546 153.092 193.251 153.974 194.074C154.214 194.298 154.435 194.542 154.635 194.803C154.713 194.886 154.78 194.979 154.834 195.079C154.834 195.079 154.496 194.749 153.867 194.189C152.958 193.424 151.964 192.767 150.903 192.231C149.336 191.421 147.699 190.753 146.013 190.235C145.061 189.936 144.047 189.659 142.995 189.429C141.918 189.168 140.817 189.019 139.709 188.983C137.562 189.179 135.46 189.719 133.483 190.58C131.844 191.237 130.24 191.978 128.677 192.799C127.341 193.506 126.289 194.135 125.56 194.573C125.19 194.812 124.805 195.028 124.408 195.218Z" fill="#F3F4F6"/>
<path d="M48.6221 293.882C45.0513 285.555 43.5928 276.475 44.3764 267.448C43.4628 270.965 43.125 275.779 41.1442 278.819C40.315 273.391 38.7411 266.443 38.718 260.946C37.9042 263.249 37.5894 267.686 37.6432 272.385C36.9292 267.671 33.8735 257.613 34.2113 252.853C33.0597 254.78 34.2957 261.736 33.1441 263.663C31.6086 259.594 30.0731 250.78 30.6566 246.965C30.0193 249.268 28.8523 252.109 28.4301 255.625C26.6335 251.955 22.979 246.366 19.8542 243.748C21.3053 248.147 24.86 255.057 27.24 259.034C24.6834 259.034 20.5068 256.838 18.1498 257.813C22.9867 258.988 27.8619 263.456 30.6566 267.571C28.3994 267.648 25.6277 266.266 23.3705 266.343C27.432 268.646 30.6566 270.85 33.5817 274.128C31.1867 273.514 28.6754 273.514 26.2803 274.128C31.2602 276.191 35.8649 279.062 39.9081 282.627C37.1397 281.262 34.0887 280.567 31.0021 280.6C40.0155 285.207 46.3572 291.303 50.8102 300.401L48.6221 293.882Z" fill="#F3F4F6"/>
<path d="M50.8105 300.386C50.7157 300.255 50.6382 300.113 50.5802 299.963L50.0121 298.72C49.5284 297.645 48.8067 296.086 47.8854 294.174C46.0351 290.336 43.2788 285.184 40.0312 279.587C36.7836 273.99 33.6895 269.007 31.5091 265.368L28.9371 261.053C28.653 260.57 28.4304 260.178 28.2538 259.871C28.1642 259.737 28.0919 259.593 28.0388 259.441C28.1436 259.561 28.2386 259.69 28.3229 259.825L29.0907 260.969L31.7701 265.222C34.012 268.823 37.1444 273.79 40.3997 279.387C43.655 284.984 46.3806 290.19 48.1618 294.036C49.0524 295.963 49.7357 297.545 50.181 298.643L50.68 299.917C50.7384 300.069 50.7821 300.226 50.8105 300.386Z" fill="#F3F4F6"/>
<path d="M56.3379 333C56.3379 333 56.2995 332.854 56.2381 332.554C56.1767 332.255 56.0845 331.787 55.9694 331.241C55.7467 330.067 55.4166 328.362 54.9943 326.167C54.572 323.971 54.0653 321.276 53.5356 318.136C53.0058 314.996 52.3532 311.433 51.7621 307.464C51.4498 305.483 51.1274 303.413 50.7947 301.253C50.4569 299.088 50.1651 296.83 49.835 294.496C49.1517 289.836 48.5605 284.838 47.9079 279.579C46.6948 269.045 45.6046 257.452 44.714 245.252C43.8234 233.053 43.4395 221.398 43.1785 210.803C43.1094 205.498 43.0096 200.461 43.0557 195.755C43.0557 193.398 43.0557 191.148 43.0557 188.93C43.0557 186.711 43.1324 184.646 43.1708 182.642C43.2169 178.634 43.3781 175.01 43.4779 171.832C43.5777 168.653 43.7083 165.912 43.8311 163.67C43.9539 161.429 44.0461 159.716 44.1075 158.519C44.1075 157.943 44.1689 157.498 44.192 157.183C44.215 156.868 44.2303 156.722 44.2303 156.722C44.2303 156.722 44.2303 156.883 44.2303 157.183C44.2303 157.482 44.2303 157.951 44.1843 158.526C44.1382 159.716 44.0691 161.452 43.9847 163.678C43.9002 165.905 43.7774 168.661 43.7006 171.839C43.6238 175.018 43.4779 178.642 43.4472 182.649C43.4472 184.656 43.4191 186.752 43.3628 188.937C43.3628 191.125 43.3628 193.398 43.3628 195.755C43.3628 200.461 43.4395 205.498 43.524 210.795C43.7774 221.383 44.2457 233.022 45.0595 245.222C45.8733 257.421 47.0327 269.022 48.2227 279.533C48.8599 284.792 49.4434 289.79 50.1114 294.45C50.4338 296.754 50.7179 299.057 51.0404 301.207C51.3628 303.356 51.6853 305.445 51.9847 307.426C52.5605 311.387 53.1901 314.957 53.7045 318.097C54.2189 321.238 54.6872 323.94 55.0941 326.143C55.501 328.347 55.7851 330.044 56.0001 331.226C56.0922 331.794 56.169 332.232 56.2227 332.547C56.2765 332.861 56.3379 333 56.3379 333Z" fill="#F3F4F6"/>
<path d="M73.5736 191.126C71.3471 192.047 68.3989 192.861 65.3663 194.68C67.1628 191.018 69.3356 184.7 69.4814 180.623C66.9018 184.462 63.6234 191.517 61.9421 195.84C60.4065 193.797 59.5543 189.168 57.3355 187.909C59.3777 192.446 58.871 199.041 57.3355 203.771C55.8921 202.036 55.2856 199.003 53.8422 197.26C54.5332 201.867 54.7482 205.782 53.9574 210.097C52.9759 207.83 51.4392 205.847 49.489 204.331C50.9122 209.53 51.4673 214.928 51.132 220.308C50.522 217.286 49.2067 214.45 47.2932 212.032C49.1896 221.967 46.441 230.596 44.8901 242.174C49.251 234.274 58.2875 219.418 65.8653 214.535C62.5332 215.97 58.5255 218.665 54.9094 218.957C58.6868 214.972 63.2089 209.467 67.5313 206.082C65.2281 206.849 61.5198 209.322 57.8345 212.224C61.1206 208.769 67.1859 200.185 71.1552 197.529C68.9287 197.805 64.1916 203.049 61.9421 203.325C64.1609 199.594 70.2185 193.06 73.5736 191.126Z" fill="#F3F4F6"/>
<path d="M63.4174 197.552C63.365 197.713 63.29 197.865 63.1948 198.005L62.4808 199.272C61.8435 200.354 60.9452 201.944 59.8857 203.917C54.305 214.222 49.9257 225.135 46.8338 236.439C46.2427 238.604 45.7897 240.37 45.4979 241.591C45.3521 242.167 45.2292 242.635 45.1371 242.996C45.1072 243.162 45.0582 243.324 44.9912 243.479C44.9934 243.311 45.0166 243.143 45.0603 242.98C45.1371 242.612 45.2292 242.144 45.3444 241.56C45.5901 240.324 46.0047 238.55 46.5651 236.37C48.0361 230.687 49.8697 225.104 52.0546 219.656C54.2449 214.22 56.7759 208.927 59.6324 203.809C60.7379 201.852 61.6669 200.285 62.3426 199.203L63.1103 197.982C63.2014 197.831 63.3041 197.687 63.4174 197.552Z" fill="#F3F4F6"/>
<path d="M62.503 106.235C62.1191 104.231 60.4531 103.632 58.5874 102.818C56.7218 102.004 54.6872 101.283 53.8427 103.164C53.1517 104.699 53.144 107.056 51.4933 107.148C50.2956 107.21 49.6047 105.743 49.6047 104.538C49.6047 103.333 49.9118 102.043 49.3283 100.983C48.5605 99.6473 46.7793 99.3786 45.2591 99.5552C43.739 99.7318 42.1881 100.2 40.7217 99.7548C39.2553 99.3095 38.0499 97.9429 36.4913 97.82C34.9328 97.6972 33.6737 98.8028 32.2994 99.4707C27.8694 101.636 21.8655 99.5398 18.0728 102.703C16.1995 104.239 15.378 106.81 15.3626 109.252C15.3473 111.693 18.4336 132.484 26.2494 140.6L41.6046 143.84C48.1536 138.089 59.6623 128.845 62.2113 112.292C62.5107 110.281 62.8869 108.231 62.503 106.235Z" fill="#F3F4F6"/>
<path d="M88.5302 129.843C87.7087 127.831 86.8566 125.766 85.3594 124.192C83.8623 122.618 81.5206 121.628 79.4707 122.311C81.8968 119.501 80.0619 114.634 76.6377 113.198C73.2135 111.762 69.1367 113.198 66.3497 115.609C63.5627 118.02 61.7432 121.413 59.9389 124.645C58.1347 127.878 49.2748 133.498 46.2651 135.632L47.4321 149.229C51.4091 151.225 64.6606 153.536 69.0522 152.776C73.42 151.892 77.6357 150.376 81.5667 148.277C85.2289 146.465 89.1061 144.07 90.25 140.146C91.2251 136.737 89.8661 133.175 88.5302 129.843Z" fill="#F3F4F6"/>
<g opacity="0.3">
<path d="M76.976 142.626C75.9626 141.452 74.0739 141.544 72.6459 142.173C71.2178 142.803 70.0048 143.855 68.5384 144.377C67.072 144.899 65.1218 144.661 64.4078 143.279C63.8704 142.25 64.1238 140.791 63.2101 140.077C62.2965 139.363 60.7379 140.077 59.5019 139.801C58.0278 139.471 57.3598 137.82 56.592 136.515C55.9402 135.407 55.074 134.44 54.0442 133.671C53.0144 132.901 51.8415 132.345 50.5942 132.034C49.3468 131.723 48.05 131.664 46.7795 131.86C45.509 132.056 44.2903 132.503 43.1947 133.175C43.2066 131.679 43.0233 130.187 42.6495 128.738C42.2599 127.277 41.3149 126.026 40.0161 125.252C38.3808 124.384 36.3386 124.653 34.6418 123.916C32.0084 122.78 30.803 119.594 28.3616 118.142C26.4805 117.045 24.1773 117.114 22.0045 116.983C19.8318 116.853 17.398 116.369 16.1619 114.603L19.3941 127.801C23.732 133.835 28.4537 139.67 34.1888 144.4C39.924 149.129 46.7417 152.738 54.0968 153.813C61.452 154.887 69.3599 153.237 75.1027 148.515C76.0277 147.828 76.7796 146.934 77.2985 145.905C77.5519 145.382 77.6559 144.799 77.599 144.22C77.5421 143.642 77.3265 143.09 76.976 142.626Z" fill="#F3F4F6"/>
</g>
<path d="M76.7065 125.498C76.5442 125.773 76.3538 126.03 76.1384 126.265C75.7622 126.749 75.1787 127.417 74.4339 128.216C72.4775 130.293 70.3398 132.192 68.0462 133.889C65.7476 135.583 63.3044 137.07 60.7448 138.335C59.7621 138.811 58.9559 139.171 58.3878 139.394C58.099 139.527 57.7982 139.633 57.4895 139.709C57.7506 139.527 58.0314 139.375 58.3264 139.256C58.8715 138.987 59.6623 138.588 60.6296 138.081C65.6506 135.435 70.2404 132.041 74.242 128.016C75.0098 127.248 75.6163 126.611 76.0309 126.166C76.2329 125.921 76.4592 125.697 76.7065 125.498Z" fill="#F3F4F6"/>
<path d="M57.2055 126.872C55.8425 129.736 53.8537 132.257 51.3859 134.25C51.3014 134.158 52.7985 132.676 54.3955 130.641C55.9924 128.607 57.098 126.81 57.2055 126.872Z" fill="#F3F4F6"/>
<path d="M41.0828 107.432C41.1146 107.792 41.1146 108.154 41.0828 108.515C41.0367 109.206 40.9753 110.204 40.9216 111.44C40.7602 114.652 40.7602 117.87 40.9216 121.083C41.0991 124.297 41.4399 127.5 41.9427 130.68C42.1269 131.908 42.2958 132.891 42.4187 133.574C42.4964 133.925 42.5452 134.282 42.5646 134.641C42.4294 134.307 42.329 133.96 42.2651 133.605C42.0962 132.929 41.8889 131.947 41.6586 130.734C41.0788 127.551 40.6993 124.336 40.5223 121.106C40.3451 117.877 40.3759 114.641 40.6145 111.417C40.7066 110.181 40.8064 109.183 40.9062 108.499C40.9285 108.138 40.9877 107.781 41.0828 107.432Z" fill="#F3F4F6"/>
<path d="M35.677 126.595C33.7653 125.06 31.009 124.921 29.2432 123.255C28.2681 122.342 27.7077 121.044 26.6175 120.238C24.3142 118.534 20.89 119.731 18.3948 118.372C16.5137 117.344 15.6539 115.163 14.3717 113.443C13.0895 111.724 10.5329 110.372 8.89758 111.754C7.47723 112.921 7.81504 115.148 8.31409 116.914C10.364 124.154 13.151 131.332 17.8727 137.198C22.5944 143.064 29.4812 147.501 36.9975 147.908C35.5081 144.645 37.2125 140.108 37.8651 136.584C38.5177 133.06 38.4947 128.822 35.677 126.595Z" fill="#F3F4F6"/>
<path d="M35.7236 126.511C34.6659 125.798 33.5132 125.237 32.2994 124.845C30.7561 124.342 29.3963 123.394 28.3915 122.119C27.7711 121.1 26.895 120.261 25.8502 119.686C24.7638 119.274 23.6109 119.065 22.449 119.071C21.0056 118.987 19.4625 118.941 18.2033 118.15C16.9442 117.359 16.1227 115.954 15.3242 114.687C14.211 112.929 12.3914 110.718 10.019 111.14C7.64665 111.563 7.60058 114.211 7.99214 116.023C8.70208 119.033 9.65466 121.981 10.8405 124.837C13.0517 130.48 16.0766 135.916 20.4452 140.192C24.8137 144.469 30.6948 147.64 36.9981 148.024C37.0748 148.024 37.1056 147.947 37.0748 147.885C35.4088 143.954 37.5969 139.494 38.1344 135.54C38.5643 132.4 38.3724 128.722 35.7466 126.549C35.6545 126.473 35.5163 126.611 35.6084 126.688C38.3416 128.945 38.38 132.83 37.8656 136.047C37.3512 139.263 36.046 142.434 36.3301 145.72C36.3555 146.017 36.3965 146.311 36.453 146.603C36.5933 146.956 36.7012 147.321 36.7754 147.693C36.5681 148.062 34.7101 147.594 34.3263 147.525C32.5747 147.206 30.8647 146.69 29.2283 145.989C26.0982 144.608 23.2386 142.682 20.783 140.3C15.3089 135.056 11.9461 128.016 9.60444 120.922C8.83668 118.687 5.8808 111.401 10.5027 111.34C14.2187 111.302 15.163 115.947 17.52 117.95C20.307 120.254 24.6141 118.211 27.1631 120.937C28.3915 122.242 29.1132 123.64 30.7869 124.469C32.4606 125.298 34.165 125.643 35.6161 126.734C35.7313 126.757 35.8234 126.588 35.7236 126.511Z" fill="#F3F4F6"/>
<path d="M83.1169 139.832C82.2493 137.007 78.5103 135.993 75.7233 136.96C72.9364 137.928 70.9249 140.362 69.0822 142.673C67.2396 144.984 65.2434 147.402 62.5256 148.5C59.8077 149.598 56.015 148.753 54.9555 145.997C54.5025 144.807 54.395 143.21 53.1973 142.795C52.5217 142.557 51.7846 142.849 51.0706 142.795C48.6982 142.696 47.9996 139.617 46.7788 137.582C46.0317 136.342 44.9137 135.367 43.5828 134.797C42.2519 134.226 40.7753 134.088 39.3616 134.402C37.948 134.716 36.6687 135.466 35.7044 136.546C34.7402 137.627 34.1398 138.983 33.988 140.423C33.6271 138.289 30.7941 137.237 28.8593 138.204C26.9246 139.172 25.9956 141.536 26.1568 143.694C26.4548 145.848 27.2861 147.893 28.5753 149.644C32.6367 155.84 39.0091 161.46 45.965 162.535H45.8115C52.1762 164.485 59.2396 161.936 65.159 158.895C71.0784 155.855 75.3932 152.131 79.969 147.294C81.9192 145.229 83.9537 142.542 83.1169 139.832Z" fill="#F3F4F6"/>
<path d="M83.1178 139.832C83.1493 139.903 83.1725 139.978 83.1869 140.054C83.2537 140.269 83.2975 140.49 83.3174 140.714C83.3961 141.591 83.2508 142.474 82.8952 143.279C82.3234 144.557 81.5452 145.732 80.5919 146.757C79.4863 147.977 78.1734 149.329 76.661 150.787C74.9856 152.387 73.2111 153.879 71.3481 155.256C69.1535 156.852 66.8264 158.257 64.3922 159.455C61.6634 160.858 58.7871 161.952 55.8163 162.718C52.5282 163.61 49.0621 163.61 45.774 162.718L45.8662 162.365H46.0197L45.9506 162.726C41.3441 161.958 37.0293 159.363 33.4669 155.878C31.6468 154.117 30.0178 152.169 28.6069 150.066C27.8592 148.994 27.2213 147.849 26.7029 146.649C26.1592 145.416 25.9121 144.072 25.9812 142.726C26.0524 141.68 26.3794 140.668 26.9332 139.778C27.4835 138.878 28.3308 138.199 29.3286 137.858C30.3322 137.563 31.4103 137.659 32.3459 138.127C32.8145 138.337 33.2265 138.656 33.5482 139.056C33.8698 139.457 34.0919 139.927 34.1962 140.43H33.8047C33.9468 139.256 34.37 138.134 35.0382 137.158C35.7065 136.183 36.6002 135.383 37.6435 134.826C38.6583 134.302 39.7864 134.035 40.9285 134.05C42.0706 134.065 43.1915 134.36 44.1924 134.91C45.1695 135.429 46.015 136.164 46.6646 137.06C47.2202 137.961 47.7128 138.9 48.1387 139.87C48.511 140.797 49.1135 141.613 49.8892 142.242C50.2833 142.503 50.7451 142.641 51.2174 142.642C51.6858 142.642 52.1771 142.511 52.7069 142.526C52.9779 142.53 53.2443 142.597 53.4854 142.721C53.7264 142.844 53.9356 143.022 54.0965 143.24C54.3857 143.654 54.5965 144.117 54.7184 144.607C54.8643 145.075 54.9718 145.536 55.1407 145.958C55.3066 146.377 55.5429 146.763 55.8393 147.102C56.4567 147.729 57.2096 148.206 58.0401 148.496C58.8707 148.786 59.7568 148.882 60.6302 148.776C62.2751 148.588 63.8234 147.903 65.0678 146.81C66.2374 145.819 67.3049 144.713 68.254 143.509C70.0813 141.206 71.7703 139.117 73.7665 137.843C74.6722 137.235 75.6902 136.815 76.7608 136.607C77.6616 136.461 78.5822 136.492 79.471 136.699C80.7014 136.955 81.7946 137.654 82.542 138.665C82.7354 138.927 82.8881 139.217 82.995 139.524C83.0354 139.624 83.0687 139.727 83.0948 139.832C82.9353 139.436 82.7318 139.06 82.4882 138.711C81.7257 137.734 80.6343 137.068 79.4172 136.837C78.5465 136.646 77.6471 136.625 76.7685 136.776C75.7231 136.993 74.7314 137.416 73.851 138.02C71.9085 139.279 70.2502 141.375 68.4306 143.67C67.4796 144.896 66.407 146.023 65.229 147.033C63.9381 148.17 62.3309 148.885 60.6225 149.083C59.7008 149.197 58.7653 149.098 57.8881 148.793C57.0109 148.488 56.2154 147.986 55.563 147.325C55.2392 146.956 54.9797 146.536 54.7952 146.081C54.6186 145.628 54.5034 145.16 54.3652 144.707C54.2472 144.258 54.0552 143.833 53.7971 143.448C53.6652 143.271 53.4938 143.127 53.2964 143.029C53.0991 142.93 52.8814 142.879 52.6608 142.88C52.2002 142.88 51.7165 142.987 51.1867 142.995C50.6413 142.999 50.107 142.841 49.6512 142.542C48.8157 141.885 48.1649 141.022 47.7625 140.039C47.345 139.084 46.8601 138.161 46.3115 137.275C45.7085 136.432 44.9206 135.739 44.0082 135.248C43.0625 134.727 42.0031 134.448 40.9237 134.435C39.8443 134.421 38.7783 134.674 37.82 135.171C36.8325 135.695 35.9869 136.451 35.3557 137.374C34.7245 138.296 34.3267 139.358 34.1962 140.469L34.0427 141.92L33.8047 140.476C33.7075 140.035 33.5083 139.622 33.223 139.272C32.9377 138.921 32.5742 138.642 32.1617 138.457C31.318 138.038 30.3474 137.953 29.4438 138.219C28.5343 138.529 27.7626 139.149 27.2634 139.97C26.7425 140.803 26.4365 141.753 26.3728 142.734C26.3095 144.017 26.5461 145.297 27.0638 146.473C27.5731 147.648 28.198 148.769 28.9294 149.82C30.3243 151.915 31.9352 153.858 33.7356 155.617C37.2519 159.056 41.513 161.651 46.0197 162.381L45.9506 162.741H45.7971L45.8892 162.381C49.1169 163.256 52.5195 163.256 55.7472 162.381C58.6954 161.633 61.5512 160.559 64.2617 159.179C66.6772 157.996 68.9887 156.612 71.1715 155.041C73.0339 153.68 74.8108 152.206 76.4921 150.626C79.5017 147.724 81.9201 145.352 82.7877 143.233C83.1502 142.445 83.3111 141.58 83.256 140.714C83.2176 140.131 83.1178 139.839 83.1178 139.832Z" fill="#F3F4F6"/>
<path d="M13.5434 278.443C5.07098 275.23 -2.47684 269.974 -8.42983 263.142C-6.53346 266.213 -3.30119 269.829 -2.49504 273.361C-6.97876 270.19 -13.0748 266.505 -17.0364 262.704C-15.9308 264.908 -12.975 268.194 -9.55075 271.418C-13.4433 268.662 -22.7946 263.879 -25.9885 260.332C-25.405 262.497 -19.5393 266.436 -18.9558 268.593C-22.9788 266.912 -30.3417 261.852 -32.6987 258.804C-31.4703 260.869 -30.2418 263.672 -28.0153 266.413C-31.8925 265.161 -38.4569 263.91 -42.5183 264.347C-38.334 266.351 -30.8944 268.593 -26.3954 269.637C-28.1919 271.457 -32.6526 272.954 -33.5893 275.334C-29.3896 272.67 -22.7792 272.263 -17.8809 273.107C-19.4165 274.781 -22.3109 275.818 -23.8234 277.491C-19.3704 276.155 -15.5239 275.38 -11.1323 275.549C-13.238 276.842 -14.9834 278.646 -16.2072 280.793C-11.2655 278.642 -6.00169 277.324 -0.629395 276.892C-3.54658 277.927 -6.17751 279.637 -8.30698 281.883C1.25929 278.597 10.3419 277.96 19.9542 281.115L13.5434 278.443Z" fill="#F3F4F6"/>
<path d="M19.7382 281.091C19.5824 281.067 19.4302 281.023 19.2853 280.961L17.9954 280.516C16.8822 280.116 15.2622 279.564 13.243 278.911C9.21227 277.621 3.57692 276.063 -2.7187 274.612L-18.8416 270.972L-23.7476 269.836L-25.0682 269.506C-25.2256 269.474 -25.3797 269.428 -25.5288 269.368C-25.3682 269.369 -25.2084 269.389 -25.0528 269.429L-23.7169 269.683L-18.8032 270.704C-14.6573 271.594 -8.92986 272.769 -2.62656 274.228C3.67673 275.686 9.31976 277.299 13.3351 278.65C15.339 279.333 16.9513 279.932 18.0492 280.377L19.3083 280.899C19.4572 280.95 19.6011 281.014 19.7382 281.091Z" fill="#F3F4F6"/>
<path d="M-15.4785 232.577C-15.4226 232.646 -15.3737 232.721 -15.3326 232.8C-15.2328 232.969 -15.1023 233.184 -14.9411 233.468C-14.5879 234.074 -14.0965 234.942 -13.4593 236.047L-12.4075 237.913C-12.0006 238.589 -11.5629 239.326 -11.0869 240.109C-10.1349 241.644 -9.09844 243.487 -7.82396 245.414L-5.87386 248.485C-5.19055 249.545 -4.43047 250.612 -3.67807 251.733C-2.14255 253.998 -0.453484 256.339 1.33539 258.796C4.98993 263.687 9.17422 268.923 13.8422 274.197C18.5102 279.472 23.2626 284.178 27.6618 288.401C29.9114 290.466 32.0227 292.447 34.0957 294.197C35.1321 295.08 36.0995 295.956 37.0746 296.754L39.8769 299.057C41.6504 300.539 43.3241 301.783 44.7675 302.896L46.7944 304.432L48.5295 305.698C49.5506 306.466 50.3568 307.042 50.9173 307.464L51.5391 307.933C51.6773 308.04 51.7464 308.094 51.7388 308.102C51.6596 308.064 51.5849 308.018 51.5161 307.963L50.8712 307.526L48.4374 305.829L46.6792 304.585L44.637 303.05C43.1782 301.936 41.4815 300.746 39.7003 299.211L36.875 296.908C35.8999 296.14 34.9172 295.242 33.8807 294.366C31.8001 292.624 29.6734 290.643 27.4085 288.585C22.9555 284.401 18.1954 279.633 13.512 274.374C8.82872 269.115 4.65212 263.84 1.00526 258.934C-0.775936 256.454 -2.49572 254.113 -3.97749 251.84C-4.74525 250.704 -5.513 249.629 -6.1656 248.57L-8.10035 245.499C-9.3518 243.564 -10.4036 241.737 -11.3173 240.163L-12.5994 237.951L-13.6205 236.124L-15.0332 233.506C-15.1791 233.214 -15.3019 232.992 -15.3864 232.815C-15.428 232.74 -15.459 232.66 -15.4785 232.577Z" fill="#F3F4F6"/>
<path d="M21.3825 198.941C21.9353 197.352 22.1503 195.103 20.3384 193.521C18.5265 191.939 14.4497 186.204 12.4151 185.513C12.0159 185.375 7.46309 188.001 7.46309 188.001C7.46309 188.001 9.76636 184.884 8.59937 183.325C7.92374 182.396 6.13486 181.475 4.80664 180.884C4.59855 180.789 4.37372 180.736 4.14511 180.728C3.9165 180.72 3.68861 180.758 3.47455 180.838C3.26049 180.919 3.06448 181.041 2.89781 181.198C2.73113 181.355 2.59708 181.543 2.50336 181.751L1.91987 183.049C1.91987 183.049 3.19435 180.646 1.06766 179.371C-0.329666 178.534 -3.25483 178.058 -5.07442 177.836C-5.5331 177.781 -5.99684 177.882 -6.39097 178.123C-6.78509 178.364 -7.08667 178.731 -7.24717 179.164L-8.38345 182.235C-8.38345 182.235 -7.82299 178.396 -10.0802 177.713C-12.3374 177.03 -24.0918 177.713 -25.9267 179.41C-27.7617 181.106 -26.779 183.026 -27.2012 184.684C-27.6235 186.342 -23.3624 222.304 -20.2914 225.813C-17.2204 229.322 0.223122 218.135 5.45924 215.41C10.6954 212.684 20.0159 202.811 21.3825 198.941Z" fill="#F3F4F6"/>
<g opacity="0.3">
<path d="M20.0457 197.421C19.3739 197.077 18.5946 197.008 17.8729 197.229C15.0829 197.781 12.4892 199.064 10.3565 200.945C8.7596 202.35 7.2855 204.162 5.21255 204.6C2.5254 205.168 -0.054266 203.218 -2.79516 203.018C-5.65123 202.803 -8.3691 204.554 -10.0812 206.857C-11.7933 209.16 -12.6916 211.947 -13.5515 214.68L-18.0505 228.945L4.65977 218.788C11.8555 214.982 17.4419 208.714 20.3988 201.129C20.9286 199.893 21.1743 198.174 20.0457 197.421Z" fill="#F3F4F6"/>
</g>
<path d="M-18.5957 227.955C-18.4422 227.341 -16.1389 210.296 -9.22139 207.655C-2.30389 205.014 2.00324 208.116 6.77102 207.041C11.5388 205.966 10.1492 204.124 12.6137 203.356C13.9562 202.873 15.4247 202.873 16.7672 203.356L21.3738 198.941C21.3738 198.941 19.2164 205.659 12.606 214.112C5.99559 222.565 -0.921921 230.235 -9.84328 233.306C-18.7646 236.377 -18.5957 227.955 -18.5957 227.955Z" fill="#F3F4F6"/>
<path d="M-18.5957 227.955V228.255C-18.5957 228.454 -18.5419 228.746 -18.4805 229.13C-18.307 230.245 -17.8613 231.299 -17.183 232.201C-16.6006 232.872 -15.8488 233.374 -15.006 233.655C-14.1633 233.936 -13.2605 233.985 -12.3922 233.798C-10.0599 233.357 -7.81784 232.529 -5.75873 231.349C-1.08308 228.869 3.6463 224.569 8.16072 219.241C9.30469 217.913 10.464 216.523 11.5696 215.087C12.6751 213.652 13.8345 212.162 14.917 210.596C17.1596 207.378 19.0659 203.938 20.6061 200.331C20.8134 199.847 20.9977 199.348 21.1666 198.865L21.4967 199.072L16.8901 203.479L16.8057 203.571L16.6752 203.517C15.8658 203.232 15.0024 203.132 14.1492 203.226C13.7251 203.263 13.3059 203.342 12.8978 203.464C12.4944 203.553 12.1131 203.723 11.7769 203.963C11.132 204.416 10.7711 205.299 10.0494 205.844C9.36409 206.369 8.58114 206.752 7.74614 206.972C6.14717 207.439 4.46842 207.567 2.81713 207.348C1.21251 207.187 -0.323004 206.903 -1.78942 206.796C-4.62883 206.516 -7.49024 207.026 -10.0582 208.27C-11.1298 208.96 -12.0472 209.865 -12.753 210.926C-13.4309 211.895 -14.0193 212.922 -14.5112 213.997C-15.3586 215.842 -16.0645 217.749 -16.6225 219.702C-17.1292 221.414 -17.4824 222.911 -17.7511 224.139C-18.0198 225.368 -18.2041 226.312 -18.327 226.957C-18.3884 227.264 -18.4344 227.51 -18.4728 227.725C-18.4874 227.808 -18.5079 227.89 -18.5342 227.97C-18.5444 227.886 -18.5444 227.801 -18.5342 227.717C-18.5342 227.533 -18.4728 227.287 -18.4268 226.949C-18.3269 226.297 -18.1657 225.337 -17.92 224.109C-17.6744 222.88 -17.3365 221.375 -16.8452 219.64C-16.3033 217.673 -15.6102 215.75 -14.7722 213.89C-14.2825 212.794 -13.694 211.746 -13.0141 210.757C-12.2896 209.658 -11.346 208.719 -10.2425 208.001C-7.62411 206.716 -4.70013 206.185 -1.79711 206.466C-0.261589 206.565 1.27393 206.842 2.86319 207.003C4.4665 207.207 6.09465 207.079 7.64633 206.627C8.4428 206.423 9.18975 206.06 9.84212 205.56C10.157 205.295 10.4357 204.991 10.6713 204.654C10.9194 204.276 11.228 203.941 11.5849 203.663C11.9583 203.394 12.3809 203.201 12.8287 203.095C13.2625 202.97 13.7073 202.888 14.1569 202.849C15.0756 202.747 16.0055 202.858 16.8748 203.172L16.6598 203.21L21.2664 198.803L21.8499 198.235L21.5888 199.003C21.4199 199.51 21.228 200.001 21.0284 200.492C19.4739 204.127 17.5495 207.593 15.2855 210.834C14.1953 212.37 13.0667 213.905 11.9151 215.341C10.7634 216.777 9.6118 218.166 8.49087 219.494C3.94574 224.83 -0.845081 229.145 -5.58215 231.617C-7.67749 232.796 -9.9563 233.614 -12.3231 234.036C-13.2252 234.219 -14.1601 234.155 -15.029 233.851C-15.8979 233.547 -16.6686 233.014 -17.2598 232.308C-17.9493 231.381 -18.3882 230.291 -18.5342 229.145C-18.5749 228.85 -18.6005 228.552 -18.611 228.255C-18.6178 228.154 -18.6126 228.054 -18.5957 227.955Z" fill="#F3F4F6"/>
</svg>
