<svg width="152" height="160" viewBox="0 0 152 160" fill="none" xmlns="http://www.w3.org/2000/svg">
<path d="M122.611 156.049C122.611 158.231 101.29 160 74.9903 160C48.6901 160 27.3691 158.231 27.3691 156.049C27.3691 153.868 48.6897 152.099 74.9903 152.099C101.291 152.099 122.611 153.868 122.611 156.049Z" fill="#F5F5F5"/>
<path d="M31.292 4.62445C34.6072 15.4906 29.9819 27.8591 34.397 38.3267C36.0263 42.1898 38.7754 45.4655 40.7821 49.1468C42.9165 53.0622 44.1871 57.3905 46.1708 61.3844C50.5679 70.2357 58.1982 76.9747 65.6417 83.4762C66.7564 74.5308 67.8586 65.3431 65.6843 56.5946C64.6047 52.2507 61.2208 48.1263 59.3707 44.0503C57.6633 40.2881 57.4707 36.5295 55.2131 33.0693C53.3103 30.1534 51.0438 27.495 48.7843 24.8459C43.1037 18.1866 37.4231 11.5272 31.7425 4.86747" fill="#263238"/>
<g opacity="0.1">
<path d="M31.7171 4.87791C37.3977 11.5373 43.0783 18.1966 48.7589 24.8563C51.0184 27.5054 53.285 30.1634 55.1877 33.0797C57.4453 36.5399 57.6379 40.2986 59.3453 44.0608C61.1954 48.1367 64.5794 52.2611 65.6589 56.6051C67.8328 65.3536 66.7306 74.5412 65.6163 83.4867C58.1728 76.9852 50.5425 70.2461 46.1454 61.3948C44.1614 57.401 42.8908 53.0726 40.7567 49.1573C38.75 45.4763 36.0009 42.2002 34.3716 38.3372C29.9565 27.8695 34.5818 15.5011 31.2666 4.63489" fill="white"/>
</g>
<path d="M76.4892 130.185C76.2927 130.185 76.1235 130.037 76.1012 129.837C74.207 112.83 62.888 70.3489 55.23 54.7296L41.9965 27.7035L35.3684 14.2418C35.2731 14.048 35.3528 13.814 35.5462 13.7186C35.7408 13.6229 35.974 13.7034 36.0693 13.8964L42.6978 27.3589L55.9317 54.3854C63.7738 70.3797 74.935 112.303 76.8784 129.75C76.9022 129.965 76.7475 130.158 76.533 130.182C76.5185 130.183 76.5041 130.184 76.4896 130.184L76.4892 130.185Z" fill="#263238"/>
<path d="M50.0115 43.3318C49.9627 43.3318 49.9158 43.3072 49.8884 43.2646C47.5617 39.6454 33.6831 33.0169 33.0494 32.9114C32.9693 32.8981 32.9158 32.8224 32.9287 32.7426C32.942 32.6626 33.0193 32.6082 33.0975 32.6219C33.7183 32.7255 46.9151 39.0273 49.881 42.7543L50.4503 27.4219C50.453 27.341 50.5249 27.2773 50.6019 27.2808C50.6828 27.2836 50.7461 27.3519 50.7429 27.4324L50.158 43.1904C50.1557 43.2544 50.1119 43.3095 50.0506 43.3263C50.0377 43.3299 50.0248 43.3314 50.0119 43.3314L50.0115 43.3318Z" fill="#263238"/>
<path d="M43.7829 30.8265C43.7341 30.8265 43.6872 30.8019 43.6598 30.7593C41.287 27.0679 33.4309 21.2857 32.8175 21.1833C32.7374 21.17 32.6838 21.0942 32.6967 21.0145C32.71 20.9344 32.7878 20.8809 32.8655 20.8938C33.6352 21.0223 41.0834 26.6365 43.6532 30.2288L44.0404 19.8084C44.0431 19.7271 44.1158 19.6587 44.192 19.6677C44.2728 19.6705 44.3361 19.7388 44.333 19.8193L43.9294 30.6859C43.9271 30.75 43.8833 30.8047 43.822 30.8219C43.8091 30.8254 43.7962 30.8269 43.7833 30.8269L43.7829 30.8265Z" fill="#263238"/>
<path d="M54.3242 52.9283C54.2753 52.9283 54.2281 52.9037 54.2011 52.8611C51.8947 49.2736 37.7375 43.4308 37.1339 43.33C37.0538 43.3167 37.0003 43.2409 37.0131 43.1612C37.0264 43.0811 37.1034 43.0276 37.1819 43.0405C37.7747 43.1393 51.2973 48.7274 54.2175 52.3837L55.9429 35.2914C55.9511 35.2106 56.0261 35.1531 56.1035 35.1606C56.184 35.1688 56.2426 35.2407 56.2344 35.3211L54.4703 52.7967C54.464 52.8588 54.4195 52.91 54.3585 52.9244C54.3472 52.9272 54.3355 52.9283 54.3246 52.9283H54.3242Z" fill="#263238"/>
<path d="M58.6362 62.5249C58.587 62.5249 58.5401 62.5002 58.5131 62.4577C56.261 58.9545 44.3755 54.5086 43.5421 54.3695C43.462 54.3562 43.4085 54.2804 43.4213 54.2007C43.4346 54.1206 43.5108 54.0667 43.5901 54.0799C44.4368 54.221 55.775 58.4079 58.5498 62.0025L60.8136 48.2782C60.8269 48.1985 60.9031 48.145 60.982 48.1575C61.0621 48.1708 61.1161 48.2462 61.1028 48.3259L58.7807 62.4018C58.771 62.4616 58.7253 62.5092 58.6659 62.5213C58.6561 62.5233 58.6459 62.5249 58.6362 62.5249Z" fill="#263238"/>
<path d="M62.5033 72.6841C62.4541 72.6841 62.4072 72.659 62.3803 72.6169C60.0957 69.0629 49.446 65.7848 48.8326 65.6824C48.7525 65.6692 48.699 65.5934 48.7119 65.5137C48.7252 65.4336 48.8021 65.3792 48.8807 65.3929C49.5125 65.4984 59.739 68.5995 62.442 72.1937L65.8334 59.2728C65.8545 59.1942 65.935 59.1485 66.0124 59.168C66.0905 59.1888 66.1374 59.2689 66.1171 59.347L62.6452 72.5743C62.6303 72.6305 62.5838 72.6727 62.5264 72.6817C62.5186 72.6829 62.5112 72.6833 62.5033 72.6833V72.6841Z" fill="#263238"/>
<path d="M74.871 121.153C74.6929 121.153 74.5319 121.031 74.4905 120.85C73.0225 114.416 69.8613 106.21 66.2405 99.4361C66.1389 99.2458 66.2104 99.0087 66.4011 98.9071C66.591 98.8051 66.8282 98.8774 66.9297 99.0673C70.581 105.899 73.7696 114.179 75.252 120.675C75.3 120.886 75.1684 121.095 74.9582 121.143C74.9288 121.15 74.8995 121.153 74.8706 121.153L74.871 121.153Z" fill="#263238"/>
<path opacity="0.3" d="M74.4909 120.85C73.023 114.416 69.8617 106.21 66.241 99.4361L66.9302 99.0677C70.5814 105.899 73.77 114.179 75.2524 120.676L74.4909 120.85Z" fill="white"/>
<path d="M79.4247 126.969C79.3958 126.969 79.3669 126.966 79.3372 126.959C79.127 126.911 78.9953 126.702 79.0433 126.491C80.6375 119.504 86.7818 98.1271 90.1178 91.8858C90.2194 91.6959 90.4557 91.6244 90.6468 91.7256C90.8367 91.8272 90.909 92.064 90.807 92.2547C87.5012 98.4401 81.3927 119.707 79.8052 126.666C79.7642 126.847 79.6029 126.969 79.4247 126.969V126.969Z" fill="#263238"/>
<path opacity="0.3" d="M79.8052 126.665L79.0437 126.491C80.6378 119.503 86.7822 98.127 90.1181 91.8857L90.8074 92.2542C87.5015 98.4396 81.3931 119.707 79.8056 126.665H79.8052Z" fill="white"/>
<path d="M80.7962 73.1945C78.1124 61.7313 75.4505 49.566 79.1361 38.3845C80.9193 32.9747 84.5342 30.85 87.3212 25.8821C91.4846 18.4596 96.7456 9.002 102.666 2.76306C103.201 2.19887 104.003 1.59951 104.676 1.99023C105.426 2.42626 105.161 3.5441 104.923 4.37867C104.063 7.39733 104.928 10.5961 105.342 13.7078C106.324 21.0993 105.535 30.2475 103.933 37.5297C102.357 44.6899 100.88 51.5165 95.627 56.6313C88.9118 63.1699 88.943 69.6156 82.4107 72.9441" fill="#263238"/>
<g opacity="0.1">
<path d="M80.7974 73.1956C78.1136 61.7324 75.4517 49.5671 79.1373 38.3856C80.9205 32.9757 84.5354 30.851 87.3224 25.8831C91.4858 18.4607 96.7468 9.00304 102.667 2.7641C103.203 2.19991 104.004 1.60055 104.677 1.99126C105.427 2.4273 105.162 3.54514 104.924 4.3797C104.064 7.39837 104.929 10.5972 105.343 13.7088C106.326 21.1004 105.536 30.2486 103.934 37.5307C102.358 44.6909 100.881 51.5175 95.6282 56.6324C88.913 63.171 88.9442 69.6166 82.4119 72.9451" fill="white"/>
</g>
<path d="M77.4088 125.273H77.4064C77.1904 125.271 77.0169 125.095 77.0181 124.88C77.2521 87.3434 87.3482 40.3896 102.74 5.25926L104.072 2.29334C104.161 2.09681 104.391 2.00812 104.589 2.0972C104.785 2.1855 104.874 2.4168 104.785 2.61373L103.454 5.57652C88.1034 40.6139 78.0328 87.4462 77.7995 124.884C77.7979 125.1 77.6237 125.273 77.4088 125.273Z" fill="#263238"/>
<path d="M90.7707 39.8909C90.7578 39.8909 90.7445 39.8893 90.7313 39.8854C90.675 39.8698 90.634 39.8225 90.6254 39.7651L88.4085 24.3178C88.3971 24.2377 88.4526 24.1635 88.5323 24.1521C88.6136 24.1381 88.687 24.1963 88.6984 24.2764L90.8692 39.4025C93.7323 36.1557 104.931 27.0712 105.046 26.9774C105.108 26.9262 105.201 26.936 105.252 26.9993C105.303 27.0622 105.294 27.1544 105.231 27.2052C105.112 27.3013 93.3311 36.8586 90.8832 39.8374C90.8551 39.8718 90.8129 39.8909 90.7699 39.8909H90.7707Z" fill="#263238"/>
<path d="M87.7606 50.8847H87.754C87.6895 50.8816 87.6344 50.8371 87.6184 50.7746L82.845 32.1574C82.8247 32.0788 82.872 31.9991 82.9509 31.9788C83.0295 31.9581 83.1088 32.0058 83.1291 32.0843L87.7935 50.2776C88.959 47.8211 92.8352 44.7907 95.9735 42.6274C99.3821 40.2776 103.041 38.1963 103.295 38.1963H103.299C103.379 38.2037 103.439 38.2744 103.432 38.3553C103.426 38.4256 103.371 38.4799 103.304 38.4877C102.681 38.6854 89.5169 46.2294 87.8986 50.7871C87.8775 50.8457 87.8227 50.8847 87.7606 50.8847Z" fill="#263238"/>
<path d="M85.0782 60.9072C85.0634 60.9072 85.0485 60.9049 85.0341 60.9002C84.9926 60.8869 84.9594 60.8564 84.943 60.8162L78.0789 44.1162C78.0481 44.0416 78.084 43.9556 78.1586 43.9252C78.2333 43.8939 78.3192 43.9299 78.3497 44.0049L85.147 60.5419C88.2367 58.518 100.129 49.042 100.251 48.9447C100.314 48.8951 100.406 48.9048 100.457 48.9681C100.507 49.0314 100.497 49.1236 100.433 49.174C100.31 49.2725 88.0066 59.0755 85.1563 60.8841C85.1325 60.8994 85.1052 60.9072 85.0778 60.9072H85.0782Z" fill="#263238"/>
<path d="M83.5695 69.2172C83.5629 69.2172 83.5566 69.2172 83.55 69.2161C83.5047 69.2098 83.4644 69.1829 83.4422 69.1426L78.087 59.6467C78.0468 59.5763 78.0722 59.4869 78.1425 59.447C78.2128 59.4068 78.3023 59.4322 78.3422 59.5029L83.6024 68.8297C86.0822 66.3228 91.1459 61.1673 91.1459 61.1673L91.3549 61.3725C91.3549 61.3725 86.0994 66.7237 83.6743 69.1735C83.6465 69.2016 83.609 69.2169 83.5699 69.2169L83.5695 69.2172Z" fill="#263238"/>
<path d="M95.5879 24.7092C95.5723 24.7092 95.5566 24.7069 95.5414 24.7014C95.4863 24.6831 95.4476 24.6342 95.4421 24.5768L94.4419 14.1834C94.4337 14.1025 94.4931 14.031 94.5736 14.0236C94.6599 14.0138 94.726 14.0748 94.7334 14.1553L95.702 24.2216L105.03 14.0701C105.085 14.0111 105.177 14.0072 105.237 14.0615C105.296 14.1162 105.3 14.2088 105.246 14.2686L95.6953 24.662C95.6672 24.6928 95.6277 24.7092 95.5875 24.7092H95.5879Z" fill="#263238"/>
<path d="M22.6143 58.9349C27.8647 65.1359 28.323 74.5689 34.1833 80.1972C36.3459 82.2742 39.0782 83.6492 41.4373 85.5C43.9465 87.4688 46.0052 89.953 48.4378 92.0155C53.8289 96.5869 60.7473 98.8566 67.4754 101.023C65.6785 94.8314 63.8046 88.4839 59.9025 83.3514C57.965 80.8028 54.5759 79.0504 52.2082 76.8957C50.0225 74.9069 48.8336 72.4923 46.3721 70.8575C44.2978 69.4799 42.057 68.3746 39.8237 67.2731L22.9796 58.9673" fill="#263238"/>
<g opacity="0.3">
<path d="M22.6143 58.9349C27.8647 65.1359 28.323 74.5689 34.1833 80.1972C36.3459 82.2742 39.0782 83.6492 41.4373 85.5C43.9465 87.4688 46.0052 89.953 48.4378 92.0155C53.8289 96.5869 60.7473 98.8566 67.4754 101.023C65.6785 94.8314 63.8046 88.4839 59.9025 83.3514C57.965 80.8028 54.5759 79.0504 52.2082 76.8957C50.0225 74.9069 48.8336 72.4923 46.3721 70.8575C44.2978 69.4799 42.057 68.3746 39.8237 67.2731L22.9796 58.9673" fill="white"/>
</g>
<path d="M89.2123 94.7528C94.5882 93.3173 99.2135 89.3039 101.392 84.1836C103.132 80.0959 103.407 75.3593 105.962 71.7256C108.468 68.1619 112.697 66.3142 116.148 63.6558C123.231 58.1994 126.853 49.4912 130.175 41.1901C120.836 49.6748 107.876 54.1458 100.498 64.3806C94.1986 73.1181 93.1304 84.4766 89.0947 94.4637" fill="#263238"/>
<g opacity="0.3">
<path d="M89.2123 94.753C94.5882 93.3175 99.2135 89.3041 101.392 84.1838C103.132 80.0961 103.407 75.3595 105.962 71.7258C108.468 68.1621 112.697 66.3144 116.148 63.656C123.231 58.1996 126.853 49.4914 130.175 41.1902C120.836 49.675 107.876 54.146 100.498 64.3808C94.1986 73.1183 93.1304 84.4768 89.0947 94.4638" fill="white"/>
</g>
<path d="M59.8957 29.93C58.266 26.6816 55.3626 24.2975 52.948 21.5812C50.5333 18.865 48.4782 15.3403 49.16 11.7704C56.5441 17.6936 57.5385 23.5286 59.8957 29.93Z" fill="#65AB6D"/>
<path d="M74.3017 34.5946C75.6336 33.4232 76.1846 31.5841 76.3201 29.8153C76.4557 28.0466 76.2404 26.2669 76.3424 24.4962C76.6042 19.9349 78.9227 15.7813 81.1845 11.812C77.5939 14.0941 75.3289 18.0701 74.3294 22.2054C73.3304 26.3407 73.471 30.6624 73.8168 34.9028" fill="#263238"/>
<path d="M60.9299 26.3818L62.2079 24.4986C62.8014 17.3477 64.172 10.2613 66.2878 3.40506C61.4468 9.82802 60.2743 18.3659 60.9295 26.3822L60.9299 26.3818Z" fill="#263238"/>
<path d="M71.0907 39.4752C71.8241 34.5909 69.5087 28.1456 69.5275 23.2066C69.5458 18.2676 72.0386 14.5007 75.2925 10.7854C73.5843 14.5038 74.2672 18.813 74.6146 22.8901C74.8709 25.8971 74.9232 28.9403 74.4305 31.9176C73.9379 34.8948 72.8794 37.815 71.072 40.2316" fill="#65AB6D"/>
<path d="M72.4788 38.4658C73.2504 36.0278 75.145 34.1215 77.1029 32.4766C79.0607 30.8317 81.1796 29.3106 82.6729 27.2343C85.2794 23.6109 85.6361 18.7972 87.928 14.9667C83.7868 17.1555 80.54 20.7805 78.139 24.8021C75.7381 28.8238 74.1198 33.2572 72.6022 37.6883" fill="#65AB6D"/>
<g opacity="0.3">
<path d="M72.4785 38.4653C73.2502 36.0272 75.1448 34.1209 77.1026 32.476C79.0605 30.8311 81.1793 29.31 82.6727 27.2338C85.2791 23.6103 85.6358 18.7967 87.9278 14.9661C83.7866 17.1549 80.5397 20.7799 78.1388 24.8016C75.7379 28.8232 74.1195 33.2566 72.602 37.6877" fill="white"/>
</g>
<path d="M59.5966 30.4197C60.2147 26.3527 57.89 22.4975 56.7651 18.5404C55.7129 14.8395 55.7164 10.8448 56.7752 7.14594C57.2957 11.3715 59.9607 14.0928 60.9586 18.2313C61.9565 22.3701 61.2419 28.2 59.3563 32.0169" fill="#65AB6D"/>
<path d="M59.5744 32.1196C60.4316 28.7786 63.6871 26.7402 65.9786 24.1619C68.1514 21.7168 69.5216 18.6446 70.3699 15.4857C71.2181 12.3268 71.5725 9.0592 71.9237 5.80728C66.6565 13.7243 61.2697 21.9294 59.5557 31.2827" fill="#65AB6D"/>
<g opacity="0.3">
<path d="M59.5749 32.1197C60.4321 28.7787 63.6876 26.7404 65.9791 24.1621C68.1519 21.717 69.5221 18.6448 70.3704 15.4858C71.2186 12.3269 71.573 9.05936 71.9242 5.80743C66.657 13.7245 61.2702 21.9295 59.5562 31.2828" fill="white"/>
</g>
<path d="M49.8919 23.8045C52.0444 25.265 53.1321 26.8614 55.2009 28.438C56.1445 29.1573 57.201 29.7125 58.2516 30.2642C60.6921 31.5453 63.1332 32.8269 65.6338 33.9861C67.8054 34.993 70.0637 35.9342 71.8403 37.5385C74.9977 40.3895 76.1233 45.2727 74.5324 49.2181C74.2534 47.3177 72.9269 45.7189 71.3965 44.5585C69.866 43.398 68.1078 42.5795 66.4887 41.5468C63.6795 39.755 61.327 37.3431 59.0503 34.9101C55.4991 31.1151 52.0635 27.2115 48.7502 23.2071L49.8919 23.8045Z" fill="#263238"/>
<path d="M72.2261 45.253C72.2261 45.253 73.061 47.5074 72.6762 50.5726C72.3601 53.0927 73.1779 67.9238 73.1779 67.9238L74.4782 67.9574C74.4782 67.9574 73.4639 55.342 74.3062 52.9567C75.1486 50.5714 75.4045 45.1744 75.5253 40.4933C75.5253 40.4933 74.786 44.42 74.2988 44.8244C73.399 45.5714 72.2261 45.253 72.2261 45.253Z" fill="#263238"/>
<path d="M78.0429 131.919C77.7464 131.919 77.492 131.695 77.4608 131.393C75.0344 107.929 73.8807 84.0164 72.9898 63.4445C72.9758 63.121 73.2266 62.8475 73.5501 62.8338C73.8713 62.8166 74.1467 63.0706 74.1608 63.3941C75.0508 83.9488 76.2035 107.841 78.6267 131.273C78.6599 131.595 78.4258 131.883 78.1039 131.916C78.0832 131.918 78.0633 131.919 78.0429 131.919Z" fill="#263238"/>
<path d="M77.7136 132.006C77.666 132.006 77.6171 131.998 77.5702 131.979C77.3694 131.9 77.271 131.673 77.3507 131.472C80.7425 122.882 86.6899 115.113 94.0975 109.597C94.271 109.467 94.5152 109.504 94.6441 109.677C94.773 109.85 94.7371 110.095 94.5644 110.223C87.2717 115.654 81.4164 123.303 78.077 131.759C78.0164 131.913 77.8695 132.006 77.7136 132.006Z" fill="#263238"/>
<path d="M77.5368 139.886C77.4008 139.886 77.2688 139.815 77.1969 139.689C71.7781 130.172 66.3174 122.29 61.2237 115.19C61.0979 115.015 61.1381 114.771 61.3132 114.645C61.489 114.518 61.7328 114.559 61.8586 114.734C66.9645 121.852 72.4391 129.754 77.8759 139.302C77.9826 139.489 77.917 139.728 77.7298 139.835C77.6689 139.87 77.6025 139.886 77.5368 139.886Z" fill="#263238"/>
<path d="M15.7136 78.6456C19.5133 79.0398 23.0536 80.8422 26.091 83.1587C29.1284 85.4753 31.7298 88.304 34.3671 91.0676C43.1789 100.299 52.5819 108.967 62.5002 116.998C64.4428 114.327 65.1645 110.803 64.4284 107.583C63.6923 104.363 61.5105 101.503 58.5997 99.9419C55.9205 98.5048 52.6682 98.1082 50.3642 96.125C47.8433 93.9553 47.0486 90.4037 45.0575 87.7395C42.93 84.8923 39.5992 83.2509 36.3957 81.7119C33.1501 80.1526 29.8661 78.5795 26.3446 77.8266C22.8231 77.0737 18.8718 76.9159 15.7136 78.6456Z" fill="#263238"/>
<g opacity="0.1">
<path d="M15.7134 78.6455C19.5131 79.0397 23.0533 80.8421 26.0908 83.1586C29.1282 85.4752 31.7296 88.304 34.3669 91.0675C43.1787 100.299 52.5816 108.967 62.4999 116.998C64.4426 114.327 65.1642 110.803 64.4281 107.583C63.692 104.363 61.5103 101.503 58.5994 99.9418C55.9203 98.5047 52.668 98.1082 50.3639 96.1249C47.843 93.9552 47.0483 90.4037 45.0572 87.7394C42.9298 84.8922 39.599 83.2508 36.3955 81.7118C33.1498 80.1525 29.8659 78.5794 26.3443 77.8265C22.8228 77.0736 18.8715 76.9158 15.7134 78.6455Z" fill="white"/>
</g>
<path d="M92.7188 101.823C98.1091 95.5927 99.9032 86.5425 106.295 81.3441C112.736 76.1046 122.531 75.9475 128.168 69.8508C128.168 69.8508 128.816 69.7363 127.757 72.4647C126.698 75.193 103.431 98.2894 103.431 98.2894L92.7188 101.823V101.823Z" fill="#263238"/>
<path d="M88.7679 114.317C87.0417 110.588 88.8249 105.575 91.6091 102.552C94.3934 99.5289 98.1982 97.7847 100.524 94.3964C102.326 91.7697 103.337 88.5552 105.676 86.3922C108.478 83.8018 112.544 83.2775 116.113 81.9272C121.361 79.9419 125.802 75.907 128.281 70.873C125.282 80.6472 118.805 89.0198 111.438 96.1078C104.07 103.196 95.7402 109.197 87.9536 115.822" fill="#263238"/>
<g opacity="0.1">
<path d="M88.7681 114.317C87.0419 110.588 88.8251 105.575 91.6094 102.552C94.3936 99.5291 98.1984 97.7849 100.524 94.3967C102.327 91.7699 103.337 88.5555 105.676 86.3925C108.478 83.802 112.544 83.2777 116.113 81.9274C121.361 79.9422 125.802 75.9072 128.281 70.8733C125.282 80.6474 118.805 89.02 111.438 96.108C104.07 103.196 95.7404 109.198 87.9539 115.823" fill="white"/>
</g>
<path d="M91.657 61.7446L87.7607 78.055L88.9388 78.6891L94.2849 66.7282C94.2849 66.7282 92.9256 62.9226 91.657 61.7446Z" fill="#263238"/>
<path d="M97.4726 59.9238C98.5615 58.9665 99.0116 57.4627 99.1226 56.017C99.2335 54.5714 99.0577 53.1163 99.1405 51.6687C99.3546 47.9402 101.25 44.5444 103.099 41.2996C100.164 43.1652 98.3122 46.4156 97.4952 49.7964C96.6782 53.1773 96.7935 56.7101 97.0764 60.1766" fill="#263238"/>
<path d="M90.5345 43.8585C89.9734 50.1424 92.7639 56.8334 97.794 60.6409C98.6864 54.2921 95.7724 47.5554 90.5345 43.8585Z" fill="#65AB6D"/>
<path d="M103.988 43.9585C99.9793 48.1188 97.7132 53.9084 97.8323 59.6844L97.7983 60.6413C99.1717 57.8367 101.255 55.653 102.771 52.9227C104.287 50.1924 105.2 46.8365 103.988 43.9585Z" fill="#65AB6D"/>
<g opacity="0.3">
<path d="M103.988 43.9584C99.9795 48.1188 97.7134 53.9084 97.8326 59.6843L97.7986 60.6412C99.1719 57.8366 101.256 55.6529 102.771 52.9226C104.287 50.1923 105.201 46.8364 103.988 43.9584Z" fill="white"/>
</g>
<path d="M105.97 59.017C102.419 59.0592 98.5755 59.2401 95.8225 61.4836L96.9439 61.198C100.379 62.0892 103.959 62.7288 107.47 62.2072C110.98 61.686 114.441 59.8442 116.189 56.7556C113.345 58.883 109.521 58.9748 105.97 59.017Z" fill="#65AB6D"/>
<path d="M90.4125 55.1567C87.0484 53.225 83.0897 52.3455 79.2244 52.671C81.907 55.2958 85.2093 57.2833 88.7844 58.4254C91.8781 59.4135 95.3363 59.8668 97.706 62.088C96.0384 58.5852 93.7766 57.0884 90.4125 55.1567Z" fill="#65AB6D"/>
<g opacity="0.3">
<path d="M90.4132 55.1564C87.0492 53.2247 83.0904 52.3452 79.2251 52.6707C81.9077 55.2955 85.2101 57.2831 88.7851 58.4252C91.8788 59.4133 95.337 59.8665 97.7067 62.0877C96.0391 58.585 93.7773 57.0881 90.4132 55.1564Z" fill="black"/>
</g>
<path d="M86.2398 58.6882C82.6081 59.1536 79.103 60.4042 75.458 60.7453C80.2114 63.671 86.3418 64.2379 91.5512 62.2343C92.9066 61.7131 95.1235 60.9028 96.5304 61.2622C93.9177 58.6976 89.8711 58.2229 86.2398 58.6882Z" fill="#65AB6D"/>
<path d="M92.3813 66.8188C92.3813 66.8188 92.4302 66.5902 92.5267 66.223C92.9053 64.7843 94.02 61.2179 95.8243 60.9292C98.0897 60.5666 120.199 65.0973 120.199 65.0973C120.199 65.0973 102.525 66.1526 97.999 64.8254C97.999 64.8254 95.6184 65.1383 93.7281 67.9722L92.3813 66.8188Z" fill="#263238"/>
<path d="M88.5299 75.9402C86.3939 82.9277 84.6517 90.0305 83.1572 97.181C81.6459 104.412 80.3874 111.695 79.2586 118.995C78.6315 123.051 78.0451 127.113 77.4785 131.177C77.3758 131.914 78.5049 132.233 78.6089 131.489C79.6193 124.243 80.6929 117.005 81.9456 109.797C83.2095 102.524 84.6532 95.279 86.4111 88.1082C87.3871 84.1276 88.4619 80.1712 89.6602 76.2516C89.8814 75.5288 88.7503 75.2197 88.5299 75.9398V75.9402Z" fill="#263238"/>
<path d="M97.8522 125.497H53.7639V131.782H97.8522V125.497Z" fill="#65AB6D"/>
<path d="M77.7137 128.64H56.8459L61.295 150.82C61.9053 153.862 64.5766 156.051 67.6789 156.051H82.864C86.3996 156.051 89.4445 153.556 90.1399 150.089L94.4425 128.64H77.7137Z" fill="#65AB6D"/>
<path opacity="0.3" d="M57.4756 131.782H93.8117L93.3432 134.117H57.9441L57.4756 131.782Z" fill="black"/>
</svg>
