<svg width="33" height="32" viewBox="0 0 33 32" fill="none" xmlns="http://www.w3.org/2000/svg">
<path d="M26.5001 16.2445C26.5001 15.5556 26.4334 14.8445 26.3223 14.1778H16.7V18.1112H22.2111C21.9889 19.3779 21.2556 20.489 20.1667 21.2001L23.4556 23.7557C25.3889 21.9557 26.5001 19.3334 26.5001 16.2445Z" fill="#4280EF"/>
<path d="M16.7 26.2002C19.4555 26.2002 21.7667 25.289 23.4556 23.7335L20.1667 21.2001C19.2555 21.8223 18.0777 22.1779 16.7 22.1779C14.0333 22.1779 11.7888 20.3779 10.9666 17.9778L7.58875 20.5779C9.3221 24.0224 12.8332 26.2002 16.7 26.2002Z" fill="#34A353"/>
<path d="M10.9665 17.9556C10.5443 16.689 10.5443 15.3112 10.9665 14.0445L7.58872 11.4222C6.14426 14.3112 6.14426 17.7112 7.58872 20.5779L10.9665 17.9556Z" fill="#F6B704"/>
<path d="M16.7 9.84444C18.1444 9.82221 19.5667 10.3778 20.6111 11.3778L23.5223 8.44442C21.6778 6.71107 19.2333 5.77773 16.7 5.79995C12.8332 5.79995 9.3221 7.97775 7.58875 11.4222L10.9666 14.0445C11.7888 11.6222 14.0333 9.84444 16.7 9.84444Z" fill="#E54335"/>
</svg>
